{
.appVersion = "3192";
.formatVersion = 3;
DisplayStrings = (
A,
"ÐĐ",
"ŀ",
",‚„“”‘’",
HOnot
);
axes = (
{
name = Weight;
tag = wght;
}
);
classes = (
{
automatic = 1;

glyphs = (
{
color = 4;
glyphname = A;
kernLeft = A;
kernRight = A;
lastChange = "2021-11-11 12:00:15 +0000";
layers = (
{
anchors = (
{
name = bottom;
pos = (328,0);
},
{
name = ogonek;
pos = (602,0);
},
{
name = top;
pos = (432,745);
}
);
layerId = "9D27F576-B54C-4464-AC1E-5B62749637F3";
shapes = (
{
closed = 1;
nodes = (
(149,0,l),
(220,152,l),
(492,152,l),
(520,0,l),
(683,0,l),
(535,745,l),
(329,745,l),
(-27,0,l)
);
},
{
closed = 1;
nodes = (
(444,632,l),
(403,637,l),
(467,287,l),
(282,287,l)
);
}
);
width = 732;
},
{
anchors = (
{
name = bottom;
pos = (288,0);
},
{
name = ogonek;
pos = (563,0);
},
{
name = top;
pos = (393,745);
}
);
layerId = "F445EC8D-29E3-46C7-99DD-9E4BBA6B70C5";
shapes = (
{
closed = 1;
nodes = (
(61,0,l),
(151,182,l),
(483,182,l),
(522,0,l),
(603,0,l),
(435,745,l),
(349,745,l),
(-27,0,l)
);
},
{
closed = 1;
nodes = (
(399,682,l),
(375,685,l),
(467,257,l),
(188,257,l)
);
}
);
width = 652;
},
{
anchors = (
{
name = bottom;
pos = (285,0);
},
{
name = ogonek;
pos = (558,0);
},
{
name = top;
pos = (390,745);
}
);
layerId = "1C1CFC13-4213-4775-A214-C31251F9A91A";
shapes = (
{
closed = 1;
nodes = (
(43,0,l),
(143,197,l),
(487,197,l),
(531,0,l),
(585,0,l),
(413,745,l),
(365,745,l),
(-15,0,l)
);
},
{
closed = 1;
nodes = (
(397,700,l),
(373,703,l),
(477,242,l),
(165,242,l)
);
}
);
width = 644;
}
);
unicode = 65;
},
{
color = 4;
glyphname = AE;
kernLeft = A;
kernRight = E;
lastChange = "2021-11-10 07:58:16 +0000";
layers = (
{
anchors = (
{
name = bottom;
pos = (459,0);
},
{
name = top;
pos = (563,745);
}
);
layerId = "9D27F576-B54C-4464-AC1E-5B62749637F3";
shapes = (
{
closed = 1;
nodes = (
(150,0,l),
(221,152,l),
(453,152,l),
(432,0,l),
(932,0,l),
(952,135,l),
(606,135,l),
(630,306,l),
(956,306,l),
(975,441,l),
(649,441,l),
(672,610,l),
(1018,610,l),
(1037,745,l),
(329,745,l),
(-27,0,l)
);
},
{
closed = 1;
nodes = (
(434,610,l),
(517,610,l),
(472,287,l),
(283,287,l)
);
}
);
width = 993;
},
{
anchors = (
{
name = bottom;
pos = (455,0);
},
{
name = top;
pos = (560,745);
}
);
layerId = "F445EC8D-29E3-46C7-99DD-9E4BBA6B70C5";
shapes = (
{
closed = 1;
nodes = (
(61,0,l),
(151,182,l),
(448,182,l),
(423,0,l),
(903,0,l),
(913,75,l),
(513,75,l),
(550,336,l),
(930,336,l),
(940,411,l),
(560,411,l),
(597,670,l),
(997,670,l),
(1007,745,l),
(349,745,l),
(-27,0,l)
);
},
{
closed = 1;
nodes = (
(393,670,l),
(517,670,l),
(459,257,l),
(188,257,l)
);
}
);
width = 985;
},
{
anchors = (
{
name = bottom;
pos = (457,0);
},
{
name = top;
pos = (562,745);
}
);
layerId = "1C1CFC13-4213-4775-A214-C31251F9A91A";
shapes = (
{
closed = 1;
nodes = (
(43,0,l),
(142,197,l),
(462,197,l),
(435,0,l),
(895,0,l),
(901,45,l),
(491,45,l),
(534,351,l),
(924,351,l),
(930,396,l),
(540,396,l),
(583,700,l),
(993,700,l),
(999,745,l),
(365,745,l),
(-15,0,l)
);
},
{
closed = 1;
nodes = (
(397,700,l),
(533,700,l),
(469,242,l),
(165,242,l)
);
}
);
width = 987;
}
);
metricLeft = "=A";
metricRight = "=E";
unicode = 198;
},
{
color = 4;
glyphname = B;
kernLeft = I;
kernRight = B;
lastChange = "2021-11-11 09:41:25 +0000";
layers = (
{
anchors = (
{
name = bottom;
pos = (310,0);
},
{
name = top;
pos = (414,745);
}
);
layerId = "9D27F576-B54C-4464-AC1E-5B62749637F3";
shapes = (
{
closed = 1;
nodes = (
(356,0,ls),
(542,0,o),
(658,98,o),
(658,260,cs),
(658,328,o),
(630,391,o),
(541,431,c),
(552,374,l),
(623,415,o),
(658,476,o),
(658,557,cs),
(658,675,o),
(577,745,o),
(434,745,cs),
(132,745,l),
(28,0,l)
);
},
{
closed = 1;
nodes = (
(229,330,l),
(409,330,ls),
(466,330,o),
(502,296,o),
(502,245,cs),
(502,181,o),
(455,135,o),
(388,135,cs),
(202,135,l)
);
},
{
closed = 1;
nodes = (
(269,615,l),
(432,615,ls),
(476,615,o),
(503,589,o),
(503,550,cs),
(503,500,o),
(467,465,o),
(416,465,cs),
(248,465,l)
);
}
);
width = 696;
},
{
anchors = (
{
name = bottom;
pos = (312,0);
},
{
name = top;
pos = (417,745);
}
);
layerId = "F445EC8D-29E3-46C7-99DD-9E4BBA6B70C5";
shapes = (
{
closed = 1;
nodes = (
(378,0,ls),
(531,0,o),
(638,98,o),
(638,239,cs),
(638,315,o),
(594,383,o),
(517,412,c),
(519,390,l),
(597,422,o),
(644,492,o),
(644,573,cs),
(644,678,o),
(572,745,o),
(455,745,cs),
(155,745,l),
(51,0,l)
);
},
{
closed = 1;
nodes = (
(181,358,l),
(416,358,ls),
(503,358,o),
(558,309,o),
(558,234,cs),
(558,139,o),
(488,75,o),
(386,75,cs),
(141,75,l)
);
},
{
closed = 1;
nodes = (
(225,670,l),
(441,670,ls),
(516,670,o),
(563,634,o),
(563,570,cs),
(563,490,o),
(501,430,o),
(416,430,cs),
(191,430,l)
);
}
);
width = 700;
},
{
anchors = (
{
name = bottom;
pos = (314,0);
},
{
name = top;
pos = (419,745);
}
);
layerId = "1C1CFC13-4213-4775-A214-C31251F9A91A";
shapes = (
{
closed = 1;
nodes = (
(377,0,ls),
(528,0,o),
(629,93,o),
(629,231,cs),
(629,318,o),
(575,386,o),
(489,404,c),
(490,389,l),
(578,411,o),
(636,490,o),
(636,579,cs),
(636,675,o),
(566,745,o),
(455,745,cs),
(167,745,l),
(63,0,l)
);
},
{
closed = 1;
nodes = (
(165,370,l),
(417,370,ls),
(516,370,o),
(579,315,o),
(579,228,cs),
(579,119,o),
(496,45,o),
(373,45,cs),
(119,45,l)
);
},
{
closed = 1;
nodes = (
(211,700,l),
(445,700,ls),
(535,700,o),
(586,652,o),
(586,577,cs),
(586,481,o),
(516,415,o),
(415,415,cs),
(171,415,l)
);
}
);
width = 702;
}
);
unicode = 66;
},
{
color = 4;
glyphname = C;
kernLeft = O;
kernRight = C;
lastChange = "2021-11-11 10:23:20 +0000";
layers = (
{
anchors = (
{
name = bottom;
pos = (414,0);
},
{
name = top;
pos = (460,745);
}
);
layerId = "9D27F576-B54C-4464-AC1E-5B62749637F3";
shapes = (
{
closed = 1;
nodes = (
(572,-12,o),
(696,75,o),
(743,185,c),
(609,255,l),
(578,183,o),
(508,128,o),
(412,128,cs),
(292,128,o),
(214,214,o),
(214,348,cs),
(214,502,o),
(316,617,o),
(454,617,cs),
(546,617,o),
(606,566,o),
(627,494,c),
(768,556,l),
(736,666,o),
(622,757,o),
(459,757,cs),
(228,757,o),
(59,573,o),
(59,349,cs),
(59,139,o),
(207,-12,o),
(413,-12,cs)
);
}
);
width = 788;
},
{
anchors = (
{
name = bottom;
pos = (417,0);
},
{
name = top;
pos = (465,745);
}
);
layerId = "F445EC8D-29E3-46C7-99DD-9E4BBA6B70C5";
shapes = (
{
closed = 1;
nodes = (
(570,-12,o),
(685,79,o),
(728,172,c),
(655,207,l),
(611,120,o),
(528,63,o),
(418,63,cs),
(265,63,o),
(161,173,o),
(161,342,cs),
(161,536,o),
(290,682,o),
(465,682,cs),
(574,682,o),
(647,626,o),
(679,539,c),
(756,570,l),
(725,662,o),
(624,757,o),
(466,757,cs),
(246,757,o),
(81,573,o),
(81,342,cs),
(81,121,o),
(231,-12,o),
(417,-12,cs)
);
}
);
width = 796;
},
{
anchors = (
{
name = bottom;
pos = (418,0);
},
{
name = top;
pos = (470,745);
}
);
layerId = "1C1CFC13-4213-4775-A214-C31251F9A91A";
shapes = (
{
closed = 1;
nodes = (
(568,-12,o),
(681,81,o),
(724,168,c),
(678,191,l),
(627,98,o),
(535,36,o),
(417,36,cs),
(253,36,o),
(142,156,o),
(142,341,cs),
(142,542,o),
(274,709,o),
(468,709,cs),
(585,709,o),
(667,649,o),
(704,556,c),
(752,575,l),
(722,661,o),
(620,757,o),
(469,757,cs),
(255,757,o),
(92,571,o),
(92,339,cs),
(92,120,o),
(239,-12,o),
(418,-12,cs)
);
}
);
width = 803;
}
);
unicode = 67;
},
{
color = 4;
glyphname = D;
kernLeft = I;
kernRight = O;
lastChange = "2021-11-11 09:41:25 +0000";
layers = (
{
anchors = (
{
name = bottom;
pos = (339,0);
},
{
name = center;
pos = (207,373);
},
{
name = top;
pos = (443,745);
}
);
layerId = "9D27F576-B54C-4464-AC1E-5B62749637F3";
shapes = (
{
closed = 1;
nodes = (
(302,0,ls),
(554,0,o),
(723,173,o),
(723,408,cs),
(723,606,o),
(577,745,o),
(362,745,cs),
(132,745,l),
(28,0,l)
);
},
{
closed = 1;
nodes = (
(268,610,l),
(352,610,ls),
(485,610,o),
(567,532,o),
(567,406,cs),
(567,246,o),
(458,135,o),
(302,135,cs),
(202,135,l)
);
}
);
width = 742;
},
{
anchors = (
{
name = bottom;
pos = (346,0);
},
{
name = center;
pos = (193,373);
},
{
name = top;
pos = (451,745);
}
);
layerId = "F445EC8D-29E3-46C7-99DD-9E4BBA6B70C5";
shapes = (
{
closed = 1;
nodes = (
(314,0,ls),
(563,0,o),
(716,172,o),
(716,415,cs),
(716,608,o),
(590,745,o),
(387,745,cs),
(155,745,l),
(51,0,l)
);
},
{
closed = 1;
nodes = (
(225,670,l),
(379,670,ls),
(535,670,o),
(632,569,o),
(632,407,cs),
(632,211,o),
(503,75,o),
(317,75,cs),
(141,75,l)
);
}
);
width = 745;
},
{
anchors = (
{
name = bottom;
pos = (347,0);
},
{
name = center;
pos = (190,373);
},
{
name = top;
pos = (452,745);
}
);
layerId = "1C1CFC13-4213-4775-A214-C31251F9A91A";
shapes = (
{
closed = 1;
nodes = (
(314,0,ls),
(566,0,o),
(708,199,o),
(708,415,cs),
(708,618,o),
(579,745,o),
(382,745,cs),
(167,745,l),
(63,0,l)
);
},
{
closed = 1;
nodes = (
(211,700,l),
(376,700,ls),
(553,700,o),
(658,591,o),
(658,415,cs),
(658,217,o),
(524,45,o),
(317,45,cs),
(119,45,l)
);
}
);
width = 746;
}
);
unicode = 68;
},
{
color = 4;
glyphname = E;
kernLeft = H;
kernRight = E;
lastChange = "2021-11-11 09:44:08 +0000";
layers = (
{
anchors = (
{
name = bottom;
pos = (279,0);
},
{
name = ogonek;
pos = (429,0);
},
{
name = top;
pos = (383,745);
}
);
layerId = "9D27F576-B54C-4464-AC1E-5B62749637F3";
shapes = (
{
closed = 1;
nodes = (
(529,0,l),
(548,135,l),
(202,135,l),
(226,306,l),
(552,306,l),
(571,441,l),
(245,441,l),
(268,610,l),
(614,610,l),
(633,745,l),
(132,745,l),
(28,0,l)
);
}
);
width = 589;
},
{
anchors = (
{
name = bottom;
pos = (290,0);
},
{
name = ogonek;
pos = (431,0);
},
{
name = top;
pos = (395,745);
}
);
layerId = "F445EC8D-29E3-46C7-99DD-9E4BBA6B70C5";
shapes = (
{
closed = 1;
nodes = (
(531,0,l),
(541,75,l),
(141,75,l),
(178,336,l),
(558,336,l),
(568,411,l),
(188,411,l),
(225,670,l),
(625,670,l),
(635,745,l),
(155,745,l),
(51,0,l)
);
}
);
width = 613;
},
{
anchors = (
{
name = bottom;
pos = (293,0);
},
{
name = ogonek;
pos = (423,0);
},
{
name = top;
pos = (398,745);
}
);
layerId = "1C1CFC13-4213-4775-A214-C31251F9A91A";
shapes = (
{
closed = 1;
nodes = (
(523,0,l),
(529,45,l),
(119,45,l),
(162,351,l),
(552,351,l),
(558,396,l),
(168,396,l),
(211,700,l),
(621,700,l),
(627,745,l),
(167,745,l),
(63,0,l)
);
}
);
width = 615;
}
);
unicode = 69;
},
{
color = 4;
glyphname = Schwa;
kernLeft = O;
kernRight = O;
lastChange = "2021-11-11 09:41:25 +0000";
layers = (
{
layerId = "9D27F576-B54C-4464-AC1E-5B62749637F3";
shapes = (
{
closed = 1;
nodes = (
(604,-12,o),
(778,165,o),
(778,393,cs),
(778,593,o),
(644,757,o),
(425,757,cs),
(281,757,o),
(156,687,o),
(101,579,c),
(224,518,l),
(266,583,o),
(333,617,o),
(413,617,cs),
(550,617,o),
(638,517,o),
(621,372,c),
(617,222,o),
(518,128,o),
(395,128,cs),
(287,128,o),
(219,202,o),
(219,297,cs),
(219,320,o),
(223,341,o),
(225,352,c),
(149,297,l),
(644,297,l),
(652,417,l),
(67,417,l),
(62,399,o),
(54,366,o),
(54,317,cs),
(54,117,o),
(190,-12,o),
(380,-12,cs)
);
}
);
width = 809;
},
{
layerId = "F445EC8D-29E3-46C7-99DD-9E4BBA6B70C5";
shapes = (
{
closed = 1;
nodes = (
(626,-12,o),
(780,177,o),
(780,399,cs),
(780,616,o),
(627,757,o),
(434,757,cs),
(296,757,o),
(169,686,o),
(111,581,c),
(179,545,l),
(230,630,o),
(324,682,o),
(429,682,cs),
(600,682,o),
(714,545,o),
(699,373,c),
(689,183,o),
(565,63,o),
(408,63,cs),
(262,63,o),
(164,161,o),
(164,295,cs),
(164,307,o),
(165,330,o),
(167,343,c),
(134,325,l),
(715,325,l),
(720,400,l),
(87,400,l),
(84,386,o),
(76,358,o),
(76,311,cs),
(76,123,o),
(214,-12,o),
(403,-12,cs)
);
}
);
width = 832;
},
{
layerId = "1C1CFC13-4213-4775-A214-C31251F9A91A";
shapes = (
{
closed = 1;
nodes = (
(613,-12,o),
(788,173,o),
(788,399,cs),
(788,607,o),
(640,757,o),
(445,757,cs),
(310,757,o),
(182,686,o),
(122,582,c),
(162,560,l),
(221,652,o),
(327,709,o),
(442,709,cs),
(616,709,o),
(738,577,o),
(738,399,cs),
(738,203,o),
(589,36,o),
(406,36,cs),
(253,36,o),
(143,155,o),
(143,317,cs),
(143,324,o),
(143,319,o),
(145,354,c),
(127,342,l),
(769,342,l),
(772,388,l),
(102,388,l),
(100,376,o),
(94,350,o),
(94,310,cs),
(94,125,o),
(228,-12,o),
(406,-12,cs)
);
}
);
width = 850;
}
);
metricLeft = "=O";
metricRight = "=O";
unicode = 399;
},
{
color = 4;
glyphname = F;
kernLeft = H;
kernRight = F;
lastChange = "2021-11-10 04:04:52 +0000";
layers = (
{
anchors = (
{
name = bottom;
pos = (256,0);
},
{
name = top;
pos = (360,745);
}
);
layerId = "9D27F576-B54C-4464-AC1E-5B62749637F3";
shapes = (
{
closed = 1;
nodes = (
(183,0,l),
(223,286,l),
(528,286,l),
(547,421,l),
(242,421,l),
(268,610,l),
(623,610,l),
(642,745,l),
(132,745,l),
(28,0,l)
);
}
);
width = 587;
},
{
anchors = (
{
name = bottom;
pos = (253,0);
},
{
name = top;
pos = (358,745);
}
);
layerId = "F445EC8D-29E3-46C7-99DD-9E4BBA6B70C5";
shapes = (
{
closed = 1;
nodes = (
(131,0,l),
(178,336,l),
(528,336,l),
(538,411,l),
(188,411,l),
(225,670,l),
(605,670,l),
(615,745,l),
(155,745,l),
(51,0,l)
);
}
);
width = 582;
},
{
anchors = (
{
name = bottom;
pos = (260,0);
},
{
name = top;
pos = (365,745);
}
);
layerId = "1C1CFC13-4213-4775-A214-C31251F9A91A";
shapes = (
{
closed = 1;
nodes = (
(113,0,l),
(162,351,l),
(522,351,l),
(528,396,l),
(168,396,l),
(211,700,l),
(611,700,l),
(617,745,l),
(167,745,l),
(63,0,l)
);
}
);
width = 594;
}
);
unicode = 70;
},
{
color = 4;
glyphname = G;
kernLeft = O;
kernRight = G;
lastChange = "2021-11-11 09:41:25 +0000";
layers = (
{
anchors = (
{
name = bottom;
pos = (367,0);
},
{
name = top;
pos = (471,745);
}
);
layerId = "9D27F576-B54C-4464-AC1E-5B62749637F3";
shapes = (
{
closed = 1;
nodes = (
(591,-12,o),
(765,99,o),
(786,326,cs),
(795,425,l),
(440,425,l),
(431,295,l),
(701,295,l),
(634,355,l),
(626,293,ls),
(613,189,o),
(525,128,o),
(422,128,cs),
(298,128,o),
(214,216,o),
(214,353,cs),
(214,502,o),
(313,617,o),
(451,617,cs),
(544,617,o),
(605,564,o),
(626,492,c),
(768,558,l),
(737,668,o),
(623,757,o),
(463,757,cs),
(232,757,o),
(59,573,o),
(59,346,cs),
(59,127,o),
(220,-12,o),
(411,-12,cs)
);
}
);
width = 809;
},
{
anchors = (
{
name = bottom;
pos = (376,0);
},
{
name = top;
pos = (481,745);
}
);
layerId = "F445EC8D-29E3-46C7-99DD-9E4BBA6B70C5";
shapes = (
{
closed = 1;
nodes = (
(607,-12,o),
(760,128,o),
(779,323,cs),
(785,385,l),
(447,385,l),
(438,315,l),
(734,315,l),
(703,351,l),
(698,310,ls),
(681,168,o),
(570,63,o),
(423,63,cs),
(267,63,o),
(161,174,o),
(161,346,cs),
(161,532,o),
(285,682,o),
(465,682,cs),
(574,682,o),
(651,627,o),
(682,536,c),
(756,571,l),
(725,665,o),
(622,757,o),
(468,757,cs),
(256,757,o),
(81,581,o),
(81,343,cs),
(81,129,o),
(223,-12,o),
(415,-12,cs)
);
}
);
width = 827;
},
{
anchors = (
{
name = bottom;
pos = (384,0);
},
{
name = top;
pos = (489,745);
}
);
layerId = "1C1CFC13-4213-4775-A214-C31251F9A91A";
shapes = (
{
closed = 1;
nodes = (
(628,-12,o),
(766,139,o),
(781,319,cs),
(785,368,l),
(451,368,l),
(448,323,l),
(753,323,l),
(734,349,l),
(731,319,ls),
(715,157,o),
(591,36,o),
(426,36,cs),
(268,36,o),
(143,147,o),
(143,342,cs),
(143,546,o),
(279,709,o),
(475,709,cs),
(592,709,o),
(678,650,o),
(716,555,c),
(764,576,l),
(734,663,o),
(632,757,o),
(476,757,cs),
(254,757,o),
(93,572,o),
(93,342,cs),
(93,131,o),
(233,-12,o),
(424,-12,cs)
);
}
);
width = 841;
}
);
unicode = 71;
},
{
color = 4;
glyphname = G.ss01;
kernLeft = O;
kernRight = G;
lastChange = "2021-11-11 09:41:25 +0000";
layers = (
{
anchors = (
{
name = bottom;
pos = (372,0);
},
{
name = top;
pos = (471,745);
}
);
layerId = "9D27F576-B54C-4464-AC1E-5B62749637F3";
shapes = (
{
closed = 1;
nodes = (
(490,-12,o),
(579,20,o),
(643,98,c),
(607,129,l),
(589,0,l),
(730,0,l),
(790,425,l),
(435,425,l),
(416,295,l),
(687,295,l),
(635,362,l),
(625,288,ls),
(611,185,o),
(515,128,o),
(413,128,cs),
(288,128,o),
(204,216,o),
(204,353,cs),
(204,502,o),
(303,617,o),
(441,617,cs),
(534,617,o),
(595,564,o),
(616,492,c),
(758,558,l),
(727,668,o),
(613,757,o),
(453,757,cs),
(221,757,o),
(49,571,o),
(49,345,cs),
(49,124,o),
(213,-12,o),
(400,-12,cs)
);
}
);
width = 800;
},
{
anchors = (
{
name = bottom;
pos = (375,0);
},
{
name = top;
pos = (476,745);
}
);
layerId = "F445EC8D-29E3-46C7-99DD-9E4BBA6B70C5";
shapes = (
{
closed = 1;
nodes = (
(524,-12,o),
(627,44,o),
(688,133,c),
(673,150,l),
(652,0,l),
(723,0,l),
(776,385,l),
(437,385,l),
(428,315,l),
(724,315,l),
(702,351,l),
(696,306,ls),
(677,165,o),
(560,63,o),
(413,63,cs),
(265,63,o),
(151,165,o),
(151,345,cs),
(151,535,o),
(277,682,o),
(456,682,cs),
(564,682,o),
(641,627,o),
(672,536,c),
(746,571,l),
(715,665,o),
(612,757,o),
(458,757,cs),
(243,757,o),
(71,581,o),
(71,345,cs),
(71,124,o),
(221,-12,o),
(404,-12,cs)
);
}
);
width = 811;
},
{
anchors = (
{
name = bottom;
pos = (377,0);
},
{
name = top;
pos = (476,745);
}
);
layerId = "1C1CFC13-4213-4775-A214-C31251F9A91A";
shapes = (
{
closed = 1;
nodes = (
(539,-12,o),
(653,63,o),
(708,170,c),
(695,185,l),
(669,0,l),
(719,0,l),
(771,368,l),
(437,368,l),
(430,323,l),
(741,323,l),
(716,359,l),
(711,319,ls),
(691,157,o),
(568,36,o),
(411,36,cs),
(243,36,o),
(127,157,o),
(127,340,cs),
(127,552,o),
(268,709,o),
(459,709,cs),
(576,709,o),
(662,650,o),
(700,555,c),
(748,576,l),
(718,663,o),
(615,757,o),
(462,757,cs),
(242,757,o),
(77,578,o),
(77,340,cs),
(77,134,o),
(217,-12,o),
(407,-12,cs)
);
}
);
width = 811;
},
{
associatedMasterId = "1C1CFC13-4213-4775-A214-C31251F9A91A";
layerId = "166F4FCC-9E13-4215-8637-87FEE999D628";
name = "Nov 30 20, 17:49";
shapes = (
{
closed = 1;
nodes = (
(521,-12,o),
(631,62,o),
(686,168,c),
(676,185,l),
(651,0,l),
(701,0,l),
(752,368,l),
(418,368,l),
(411,323,l),
(721,323,l),
(695,358,l),
(690,320,ls),
(669,159,o),
(548,36,o),
(389,36,cs),
(227,36,o),
(108,149,o),
(108,338,cs),
(108,542,o),
(244,709,o),
(443,709,cs),
(561,709,o),
(645,650,o),
(682,557,c),
(730,574,l),
(700,660,o),
(595,757,o),
(440,757,cs),
(219,757,o),
(58,569,o),
(58,338,cs),
(58,133,o),
(191,-12,o),
(389,-12,cs)
);
}
);
width = 795;
}
);
},
{
color = 4;
glyphname = G.ss03;
kernLeft = O;
kernRight = G;
lastChange = "2021-11-11 09:41:25 +0000";
layers = (
{
anchors = (
{
name = bottom;
pos = (387,0);
},
{
name = top;
pos = (491,745);
}
);
layerId = "9D27F576-B54C-4464-AC1E-5B62749637F3";
shapes = (
{
closed = 1;
nodes = (
(551,-12,o),
(689,44,o),
(768,177,c),
(803,425,l),
(449,425,l),
(431,295,l),
(697,295,l),
(642,352,l),
(613,155,l),
(644,263,l),
(616,178,o),
(522,128,o),
(429,128,cs),
(309,128,o),
(214,209,o),
(214,354,cs),
(214,499,o),
(310,617,o),
(451,617,cs),
(544,617,o),
(605,564,o),
(626,492,c),
(768,558,l),
(737,668,o),
(623,757,o),
(463,757,cs),
(235,757,o),
(59,579,o),
(59,347,cs),
(59,138,o),
(203,-12,o),
(419,-12,cs)
);
}
);
width = 810;
},
{
anchors = (
{
name = bottom;
pos = (388,0);
},
{
name = top;
pos = (493,745);
}
);
layerId = "F445EC8D-29E3-46C7-99DD-9E4BBA6B70C5";
shapes = (
{
closed = 1;
nodes = (
(564,-12,o),
(685,56,o),
(753,167,c),
(783,385,l),
(453,385,l),
(443,315,l),
(724,315,l),
(703,351,l),
(675,149,l),
(690,206,l),
(642,119,o),
(546,63,o),
(432,63,cs),
(278,63,o),
(161,165,o),
(161,346,cs),
(161,532,o),
(285,682,o),
(465,682,cs),
(574,682,o),
(651,627,o),
(682,536,c),
(756,571,l),
(725,665,o),
(622,757,o),
(466,757,cs),
(244,757,o),
(81,571,o),
(81,343,cs),
(81,127,o),
(227,-12,o),
(425,-12,cs)
);
}
);
width = 808;
},
{
anchors = (
{
name = bottom;
pos = (386,0);
},
{
name = top;
pos = (491,745);
}
);
layerId = "1C1CFC13-4213-4775-A214-C31251F9A91A";
shapes = (
{
closed = 1;
nodes = (
(579,-12,o),
(697,62,o),
(754,174,c),
(782,368,l),
(459,368,l),
(452,323,l),
(757,323,l),
(732,359,l),
(703,151,l),
(717,208,l),
(676,104,o),
(566,36,o),
(437,36,cs),
(263,36,o),
(143,157,o),
(143,341,cs),
(143,551,o),
(284,709,o),
(475,709,cs),
(599,709,o),
(680,644,o),
(716,555,c),
(764,576,l),
(734,663,o),
(631,757,o),
(478,757,cs),
(257,757,o),
(93,576,o),
(93,341,cs),
(93,132,o),
(239,-12,o),
(433,-12,cs)
);
}
);
width = 798;
}
);
metricLeft = "=O";
},
{
color = 4;
glyphname = H;
kernLeft = H;
kernRight = H;
lastChange = "2021-11-11 09:41:25 +0000";
layers = (
{
anchors = (
{
name = bottom;
pos = (328,0);
},
{
name = center;
pos = (411,595);
},
{
name = top;
pos = (432,745);
}
);
layerId = "9D27F576-B54C-4464-AC1E-5B62749637F3";
shapes = (
{
closed = 1;
nodes = (
(183,0,l),
(223,288,l),
(513,288,l),
(473,0,l),
(628,0,l),
(732,745,l),
(577,745,l),
(532,423,l),
(242,423,l),
(287,745,l),
(132,745,l),
(28,0,l)
);
}
);
width = 732;
},
{
anchors = (
{
name = bottom;
pos = (331,0);
},
{
name = center;
pos = (414,595);
},
{
name = top;
pos = (436,745);
}
);
layerId = "F445EC8D-29E3-46C7-99DD-9E4BBA6B70C5";
shapes = (
{
closed = 1;
nodes = (
(131,0,l),
(178,335,l),
(578,335,l),
(531,0,l),
(611,0,l),
(715,745,l),
(635,745,l),
(588,410,l),
(188,410,l),
(235,745,l),
(155,745,l),
(51,0,l)
);
}
);
width = 737;
},
{
anchors = (
{
name = bottom;
pos = (333,0);
},
{
name = center;
pos = (416,595);
},
{
name = top;
pos = (438,745);
}
);
layerId = "1C1CFC13-4213-4775-A214-C31251F9A91A";
shapes = (
{
closed = 1;
nodes = (
(113,0,l),
(163,357,l),
(603,357,l),
(553,0,l),
(603,0,l),
(707,745,l),
(657,745,l),
(609,402,l),
(169,402,l),
(217,745,l),
(167,745,l),
(63,0,l)
);
}
);
width = 739;
}
);
unicode = 72;
},
{
color = 4;
glyphname = I;
kernLeft = H;
kernRight = H;
lastChange = "2021-11-11 09:44:25 +0000";
layers = (
{
anchors = (
{
name = bottom;
pos = (106,0);
},
{
name = ogonek;
pos = (133,0);
},
{
name = top;
pos = (210,745);
}
);
layerId = "9D27F576-B54C-4464-AC1E-5B62749637F3";
shapes = (
{
closed = 1;
nodes = (
(183,0,l),
(287,745,l),
(132,745,l),
(28,0,l)
);
}
);
width = 287;
},
{
anchors = (
{
name = bottom;
pos = (91,0);
},
{
name = ogonek;
pos = (101,0);
},
{
name = top;
pos = (196,745);
}
);
layerId = "F445EC8D-29E3-46C7-99DD-9E4BBA6B70C5";
shapes = (
{
closed = 1;
nodes = (
(131,0,l),
(235,745,l),
(155,745,l),
(51,0,l)
);
}
);
width = 257;
},
{
anchors = (
{
name = bottom;
pos = (88,0);
},
{
name = ogonek;
pos = (93,0);
},
{
name = top;
pos = (193,745);
}
);
layerId = "1C1CFC13-4213-4775-A214-C31251F9A91A";
shapes = (
{
closed = 1;
nodes = (
(113,0,l),
(217,745,l),
(167,745,l),
(63,0,l)
);
}
);
width = 249;
}
);
unicode = 73;
},
{
color = 4;
glyphname = I.ss01;
kernLeft = H;
kernRight = H;
lastChange = "2021-11-11 09:45:45 +0000";
layers = (
{
anchors = (
{
name = bottom;
pos = (222,0);
},
{
name = ogonek;
pos = (242,0);
},
{
name = top;
pos = (327,745);
}
);
layerId = "9D27F576-B54C-4464-AC1E-5B62749637F3";
shapes = (
{
closed = 1;
nodes = (
(420,0,l),
(439,135,l),
(320,135,l),
(386,610,l),
(505,610,l),
(524,745,l),
(129,745,l),
(110,610,l),
(230,610,l),
(164,135,l),
(44,135,l),
(25,0,l)
);
}
);
width = 520;
},
{
anchors = (
{
name = bottom;
pos = (144,0);
},
{
name = ogonek;
pos = (165,0);
},
{
name = top;
pos = (249,745);
}
);
layerId = "F445EC8D-29E3-46C7-99DD-9E4BBA6B70C5";
shapes = (
{
closed = 1;
nodes = (
(285,0,l),
(294,70,l),
(195,70,l),
(281,675,l),
(380,675,l),
(389,745,l),
(109,745,l),
(100,675,l),
(200,675,l),
(114,70,l),
(14,70,l),
(5,0,l)
);
}
);
width = 365;
},
{
anchors = (
{
name = bottom;
pos = (146,0);
},
{
name = ogonek;
pos = (166,0);
},
{
name = top;
pos = (251,745);
}
);
layerId = "1C1CFC13-4213-4775-A214-C31251F9A91A";
shapes = (
{
closed = 1;
nodes = (
(271,0,l),
(277,45,l),
(177,45,l),
(269,700,l),
(369,700,l),
(375,745,l),
(125,745,l),
(119,700,l),
(219,700,l),
(127,45,l),
(27,45,l),
(21,0,l)
);
}
);
width = 365;
}
);
},
{
color = 4;
glyphname = J;
kernLeft = J;
kernRight = J;
lastChange = "2021-11-11 09:41:25 +0000";
layers = (
{
anchors = (
{
name = bottom;
pos = (171,0);
},
{
name = top;
pos = (322,745);
}
);
layerId = "9D27F576-B54C-4464-AC1E-5B62749637F3";
shapes = (
{
closed = 1;
nodes = (
(60,0,ls),
(216,0,o),
(308,96,o),
(324,210,cs),
(399,745,l),
(244,745,l),
(172,233,ls),
(164,177,o),
(119,140,o),
(59,140,cs),
(14,140,l),
(-5,0,l)
);
}
);
width = 396;
},
{
anchors = (
{
name = bottom;
pos = (165,0);
},
{
name = top;
pos = (322,745);
}
);
layerId = "F445EC8D-29E3-46C7-99DD-9E4BBA6B70C5";
shapes = (
{
closed = 1;
nodes = (
(58,0,ls),
(180,0,o),
(269,79,o),
(286,205,cs),
(362,745,l),
(282,745,l),
(206,205,ls),
(196,128,o),
(138,80,o),
(59,80,cs),
(29,80,l),
(18,0,l)
);
}
);
width = 383;
},
{
anchors = (
{
name = bottom;
pos = (164,0);
},
{
name = top;
pos = (324,745);
}
);
layerId = "1C1CFC13-4213-4775-A214-C31251F9A91A";
shapes = (
{
closed = 1;
nodes = (
(67,0,ls),
(179,0,o),
(255,72,o),
(271,191,cs),
(349,745,l),
(299,745,l),
(222,194,ls),
(209,99,o),
(158,50,o),
(74,50,cs),
(36,50,l),
(29,0,l)
);
}
);
width = 380;
}
);
unicode = 74;
},
{
color = 4;
glyphname = J.ss03;
kernLeft = J.ss03;
kernRight = J;
lastChange = "2021-11-11 09:41:25 +0000";
layers = (
{
anchors = (
{
name = bottom;
pos = (293,0);
},
{
name = top;
pos = (551,745);
}
);
layerId = "9D27F576-B54C-4464-AC1E-5B62749637F3";
shapes = (
{
closed = 1;
nodes = (
(428,-12,o),
(536,93,o),
(557,241,cs),
(628,745,l),
(473,745,l),
(404,249,ls),
(394,176,o),
(342,128,o),
(267,128,cs),
(207,128,o),
(167,159,o),
(159,224,c),
(12,193,l),
(20,68,o),
(115,-12,o),
(262,-12,cs)
);
}
);
width = 625;
},
{
anchors = (
{
name = bottom;
pos = (258,0);
},
{
name = top;
pos = (517,745);
}
);
layerId = "F445EC8D-29E3-46C7-99DD-9E4BBA6B70C5";
shapes = (
{
closed = 1;
nodes = (
(376,-12,o),
(464,79,o),
(480,193,cs),
(557,745,l),
(476,745,l),
(400,197,ls),
(389,120,o),
(330,63,o),
(245,63,cs),
(172,63,o),
(119,107,o),
(107,183,c),
(31,165,l),
(43,60,o),
(123,-12,o),
(242,-12,cs)
);
}
);
width = 579;
},
{
anchors = (
{
name = bottom;
pos = (238,0);
},
{
name = top;
pos = (497,745);
}
);
layerId = "1C1CFC13-4213-4775-A214-C31251F9A91A";
shapes = (
{
closed = 1;
nodes = (
(345,-12,o),
(427,68,o),
(443,183,cs),
(522,745,l),
(472,745,l),
(395,197,ls),
(380,93,o),
(316,33,o),
(227,33,cs),
(146,33,o),
(90,82,o),
(76,164,c),
(30,153,l),
(44,52,o),
(119,-12,o),
(222,-12,cs)
);
}
);
width = 553;
}
);
metricRight = "=J";
},
{
color = 4;
glyphname = K;
kernLeft = H;
kernRight = K;
lastChange = "2021-11-11 09:41:25 +0000";
layers = (
{
anchors = (
{
name = bottom;
pos = (306,0);
},
{
name = top;
pos = (410,745);
}
);
layerId = "9D27F576-B54C-4464-AC1E-5B62749637F3";
shapes = (
{
closed = 1;
nodes = (
(183,0,l),
(211,204,l),
(326,322,l),
(467,0,l),
(638,0,l),
(416,499,l),
(391,389,l),
(736,745,l),
(542,745,l),
(194,387,l),
(235,372,l),
(287,745,l),
(132,745,l),
(28,0,l)
);
}
);
width = 687;
},
{
anchors = (
{
name = bottom;
pos = (290,0);
},
{
name = top;
pos = (395,745);
}
);
layerId = "F445EC8D-29E3-46C7-99DD-9E4BBA6B70C5";
shapes = (
{
closed = 1;
nodes = (
(131,0,l),
(162,225,l),
(311,371,l),
(516,0,l),
(606,0,l),
(355,460,l),
(343,403,l),
(692,745,l),
(589,745,l),
(154,319,l),
(174,310,l),
(235,745,l),
(155,745,l),
(51,0,l)
);
}
);
width = 655;
},
{
anchors = (
{
name = bottom;
pos = (289,0);
},
{
name = top;
pos = (394,745);
}
);
layerId = "1C1CFC13-4213-4775-A214-C31251F9A91A";
shapes = (
{
closed = 1;
nodes = (
(113,0,l),
(147,241,l),
(303,392,l),
(535,0,l),
(593,0,l),
(331,444,l),
(324,409,l),
(674,745,l),
(607,745,l),
(132,294,l),
(153,285,l),
(217,745,l),
(167,745,l),
(63,0,l)
);
}
);
width = 652;
}
);
unicode = 75;
},
{
color = 4;
glyphname = K.ss01;
kernLeft = H;
kernRight = K;
lastChange = "2021-11-11 09:41:25 +0000";
layers = (
{
anchors = (
{
name = bottom;
pos = (312,0);
},
{
name = top;
pos = (416,745);
}
);
layerId = "9D27F576-B54C-4464-AC1E-5B62749637F3";
shapes = (
{
closed = 1;
nodes = (
(632,0,l),
(408,374,l),
(699,745,l),
(509,745,l),
(242,408,l),
(239,358,l),
(449,0,l)
);
},
{
closed = 1;
nodes = (
(177,0,l),
(281,745,l),
(126,745,l),
(22,0,l)
);
},
{
closed = 1;
nodes = (
(352,303,l),
(372,443,l),
(168,443,l),
(148,303,l)
);
}
);
width = 671;
},
{
anchors = (
{
name = bottom;
pos = (303,0);
},
{
name = top;
pos = (408,745);
}
);
layerId = "F445EC8D-29E3-46C7-99DD-9E4BBA6B70C5";
shapes = (
{
closed = 1;
nodes = (
(603,0,l),
(379,374,l),
(670,745,l),
(574,745,l),
(299,399,l),
(300,346,l),
(512,0,l)
);
},
{
closed = 1;
nodes = (
(123,0,l),
(227,745,l),
(147,745,l),
(43,0,l)
);
},
{
closed = 1;
nodes = (
(336,335,l),
(346,410,l),
(142,410,l),
(132,335,l)
);
}
);
width = 652;
},
{
anchors = (
{
name = bottom;
pos = (305,0);
},
{
name = top;
pos = (410,745);
}
);
layerId = "1C1CFC13-4213-4775-A214-C31251F9A91A";
shapes = (
{
closed = 1;
nodes = (
(586,0,l),
(362,374,l),
(653,745,l),
(593,745,l),
(309,388,l),
(309,366,l),
(527,0,l)
);
},
{
closed = 1;
nodes = (
(106,0,l),
(210,745,l),
(160,745,l),
(56,0,l)
);
},
{
closed = 1;
nodes = (
(334,350,l),
(340,395,l),
(136,395,l),
(130,350,l)
);
}
);
width = 652;
}
);
},
{
color = 4;
glyphname = K.ss03;
kernLeft = H;
kernRight = K;
lastChange = "2021-11-11 09:41:25 +0000";
layers = (
{
anchors = (
{
name = bottom;
pos = (318,0);
},
{
name = top;
pos = (422,745);
}
);
layerId = "9D27F576-B54C-4464-AC1E-5B62749637F3";
shapes = (
{
closed = 1;
nodes = (
(662,-6,l),
(680,124,l),
(645,124,ls),
(597,124,o),
(570,150,o),
(541,215,cs),
(416,499,l),
(392,389,l),
(737,745,l),
(543,745,l),
(194,387,l),
(235,372,l),
(288,745,l),
(133,745,l),
(28,0,l),
(183,0,l),
(212,204,l),
(326,322,l),
(397,160,ls),
(458,17,o),
(502,-6,o),
(620,-6,cs)
);
}
);
width = 712;
},
{
anchors = (
{
name = bottom;
pos = (304,0);
},
{
name = top;
pos = (409,745);
}
);
layerId = "F445EC8D-29E3-46C7-99DD-9E4BBA6B70C5";
shapes = (
{
closed = 1;
nodes = (
(634,-6,l),
(644,64,l),
(631,64,ls),
(575,64,o),
(556,91,o),
(526,147,cs),
(355,460,l),
(343,403,l),
(692,745,l),
(589,745,l),
(154,319,l),
(174,310,l),
(235,745,l),
(155,745,l),
(50,0,l),
(130,0,l),
(162,225,l),
(311,371,l),
(436,142,ls),
(509,8,o),
(540,-6,o),
(621,-6,cs)
);
}
);
width = 684;
},
{
anchors = (
{
name = bottom;
pos = (306,0);
},
{
name = top;
pos = (411,745);
}
);
layerId = "1C1CFC13-4213-4775-A214-C31251F9A91A";
shapes = (
{
closed = 1;
nodes = (
(626,-6,l),
(633,39,l),
(619,39,ls),
(568,39,o),
(555,60,o),
(520,120,cs),
(330,444,l),
(324,409,l),
(674,745,l),
(604,745,l),
(131,294,l),
(152,285,l),
(217,745,l),
(167,745,l),
(62,0,l),
(112,0,l),
(146,241,l),
(302,391,l),
(462,120,ls),
(524,15,o),
(537,-6,o),
(611,-6,cs)
);
}
);
width = 686;
}
);
metricLeft = "=K";
metricRight = "=K";
},
{
color = 4;
glyphname = L;
kernLeft = H;
kernRight = L;
lastChange = "2021-11-11 09:59:06 +0000";
layers = (
{
anchors = (
{
name = bottom;
pos = (263,0);
},
{
name = center;
pos = (157,373);
},
{
name = dot;
pos = (393,372);
},
{
name = top;
pos = (210,745);
},
{
name = topright;
pos = (417,546);
}
);
layerId = "9D27F576-B54C-4464-AC1E-5B62749637F3";
shapes = (
{
closed = 1;
nodes = (
(498,0,l),
(517,135,l),
(202,135,l),
(287,745,l),
(132,745,l),
(28,0,l)
);
}
);
width = 547;
},
{
anchors = (
{
name = bottom;
pos = (256,0);
},
{
name = center;
pos = (143,373);
},
{
name = dot;
pos = (348,372);
},
{
name = top;
pos = (195,745);
},
{
name = topright;
pos = (371,536);
}
);
layerId = "F445EC8D-29E3-46C7-99DD-9E4BBA6B70C5";
shapes = (
{
closed = 1;
nodes = (
(461,0,l),
(471,75,l),
(141,75,l),
(235,745,l),
(155,745,l),
(51,0,l)
);
}
);
width = 532;
},
{
anchors = (
{
name = bottom;
pos = (258,0);
},
{
name = center;
pos = (140,373);
},
{
name = dot;
pos = (335,372);
},
{
name = top;
pos = (192,745);
},
{
name = topright;
pos = (357,526);
}
);
layerId = "1C1CFC13-4213-4775-A214-C31251F9A91A";
shapes = (
{
closed = 1;
nodes = (
(453,0,l),
(459,45,l),
(119,45,l),
(217,745,l),
(167,745,l),
(63,0,l)
);
}
);
width = 534;
}
);
unicode = 76;
},
{
color = 4;
glyphname = M;
kernLeft = H;
kernRight = H;
lastChange = "2021-11-11 09:41:25 +0000";
layers = (
{
anchors = (
{
name = bottom;
pos = (418,0);
},
{
name = top;
pos = (522,745);
}
);
guides = (
{
pos = (253,501);
}
);
layerId = "9D27F576-B54C-4464-AC1E-5B62749637F3";
shapes = (
{
closed = 1;
nodes = (
(183,0,l),
(262,569,l),
(198,595,l),
(434,190,l),
(454,190,l),
(777,553,l),
(732,569,l),
(653,0,l),
(808,0,l),
(912,745,l),
(757,745,l),
(415,367,l),
(511,360,l),
(282,745,l),
(132,745,l),
(28,0,l)
);
}
);
width = 912;
},
{
anchors = (
{
name = bottom;
pos = (381,0);
},
{
name = top;
pos = (486,745);
}
);
layerId = "F445EC8D-29E3-46C7-99DD-9E4BBA6B70C5";
shapes = (
{
closed = 1;
nodes = (
(131,0,l),
(220,637,l),
(198,627,l),
(411,230,l),
(415,230,l),
(750,627,l),
(720,637,l),
(631,0,l),
(711,0,l),
(815,745,l),
(745,745,l),
(403,339,l),
(444,339,l),
(225,745,l),
(155,745,l),
(51,0,l)
);
}
);
width = 837;
},
{
anchors = (
{
name = bottom;
pos = (373,0);
},
{
name = top;
pos = (478,745);
}
);
layerId = "1C1CFC13-4213-4775-A214-C31251F9A91A";
shapes = (
{
closed = 1;
nodes = (
(113,0,l),
(206,662,l),
(200,654,l),
(406,246,l),
(408,246,l),
(736,654,l),
(726,662,l),
(633,0,l),
(683,0,l),
(787,745,l),
(747,745,l),
(409,323,l),
(421,323,l),
(207,745,l),
(167,745,l),
(63,0,l)
);
}
);
width = 819;
}
);
unicode = 77;
},
{
color = 4;
glyphname = N;
kernLeft = H;
kernRight = H;
lastChange = "2021-11-11 09:41:25 +0000";
layers = (
{
anchors = (
{
name = bottom;
pos = (333,0);
},
{
name = top;
pos = (437,745);
}
);
layerId = "9D27F576-B54C-4464-AC1E-5B62749637F3";
shapes = (
{
closed = 1;
nodes = (
(183,0,l),
(259,546,l),
(208,531,l),
(518,0,l),
(638,0,l),
(742,745,l),
(587,745,l),
(511,203,l),
(568,218,l),
(251,745,l),
(132,745,l),
(28,0,l)
);
}
);
width = 742;
},
{
anchors = (
{
name = bottom;
pos = (331,0);
},
{
name = top;
pos = (436,745);
}
);
layerId = "F445EC8D-29E3-46C7-99DD-9E4BBA6B70C5";
shapes = (
{
closed = 1;
nodes = (
(131,0,l),
(219,631,l),
(197,631,l),
(541,0,l),
(611,0,l),
(715,745,l),
(635,745,l),
(547,118,l),
(569,118,l),
(225,745,l),
(155,745,l),
(51,0,l)
);
}
);
width = 737;
},
{
anchors = (
{
name = bottom;
pos = (333,0);
},
{
name = top;
pos = (438,745);
}
);
layerId = "1C1CFC13-4213-4775-A214-C31251F9A91A";
shapes = (
{
closed = 1;
nodes = (
(113,0,l),
(207,671,l),
(191,671,l),
(563,0,l),
(603,0,l),
(707,745,l),
(657,745,l),
(564,78,l),
(577,78,l),
(207,745,l),
(167,745,l),
(63,0,l)
);
}
);
width = 739;
}
);
unicode = 78;
},
{
color = 4;
glyphname = Eng;
kernLeft = H;
kernRight = H;
lastChange = "2021-11-11 09:41:25 +0000";
layers = (
{
layerId = "9D27F576-B54C-4464-AC1E-5B62749637F3";
shapes = (
{
closed = 1;
nodes = (
(527,-222,o),
(617,-149,o),
(635,-20,cs),
(742,745,l),
(587,745,l),
(514,225,l),
(558,234,l),
(251,745,l),
(132,745,l),
(28,0,l),
(183,0,l),
(256,530,l),
(213,521,l),
(528,-16,l),
(504,109,l),
(485,-20,ls),
(478,-67,o),
(446,-92,o),
(389,-92,cs),
(377,-92,o),
(366,-91,o),
(356,-89,c),
(338,-217,l),
(350,-220,o),
(371,-222,o),
(391,-222,cs)
);
}
);
width = 742;
},
{
layerId = "F445EC8D-29E3-46C7-99DD-9E4BBA6B70C5";
shapes = (
{
closed = 1;
nodes = (
(499,-220,o),
(588,-161,o),
(604,-50,cs),
(715,745,l),
(635,745,l),
(546,114,l),
(568,118,l),
(225,745,l),
(155,745,l),
(51,0,l),
(131,0,l),
(220,635,l),
(198,631,l),
(550,-18,l),
(539,50,l),
(523,-50,ls),
(512,-117,o),
(471,-145,o),
(417,-145,cs),
(404,-145,o),
(389,-144,o),
(375,-142,c),
(365,-216,l),
(374,-219,o),
(395,-220,o),
(404,-220,cs)
);
}
);
width = 737;
},
{
layerId = "1C1CFC13-4213-4775-A214-C31251F9A91A";
shapes = (
{
closed = 1;
nodes = (
(507,-220,o),
(581,-165,o),
(595,-62,cs),
(707,745,l),
(657,745,l),
(562,61,l),
(584,66,l),
(207,745,l),
(167,745,l),
(63,0,l),
(113,0,l),
(209,684,l),
(187,679,l),
(572,-17,l),
(560,50,l),
(544,-62,ls),
(533,-136,o),
(489,-175,o),
(420,-175,cs),
(409,-175,o),
(395,-174,o),
(384,-172,c),
(378,-215,l),
(387,-218,o),
(400,-220,o),
(416,-220,cs)
);
}
);
width = 740;
}
);
metricLeft = "=N";
metricRight = "=N";
unicode = 330;
},
{
color = 4;
glyphname = O;
kernLeft = O;
kernRight = O;
lastChange = "2021-11-11 09:46:05 +0000";
layers = (
{
anchors = (
{
name = bottom;
pos = (403,0);
},
{
name = center;
pos = (455,373);
},
{
name = ogonek;
pos = (423,0);
},
{
name = top;
pos = (507,745);
},
{
name = topright;
pos = (928,745);
}
);
layerId = "9D27F576-B54C-4464-AC1E-5B62749637F3";
shapes = (
{
closed = 1;
nodes = (
(666,-12,o),
(851,166,o),
(851,398,cs),
(851,604,o),
(694,757,o),
(476,757,cs),
(242,757,o),
(59,580,o),
(59,349,cs),
(59,142,o),
(217,-12,o),
(434,-12,cs)
);
},
{
closed = 1;
nodes = (
(306,128,o),
(214,218,o),
(214,349,cs),
(214,505,o),
(331,617,o),
(476,617,cs),
(604,617,o),
(696,528,o),
(696,397,cs),
(696,241,o),
(579,128,o),
(434,128,cs)
);
}
);
width = 882;
},
{
anchors = (
{
name = bottom;
pos = (403,0);
},
{
name = center;
pos = (456,373);
},
{
name = ogonek;
pos = (423,0);
},
{
name = top;
pos = (508,745);
},
{
name = topright;
pos = (928,745);
}
);
layerId = "F445EC8D-29E3-46C7-99DD-9E4BBA6B70C5";
shapes = (
{
closed = 1;
nodes = (
(655,-12,o),
(829,174,o),
(829,400,cs),
(829,611,o),
(678,757,o),
(479,757,cs),
(253,757,o),
(81,572,o),
(81,345,cs),
(81,133,o),
(232,-12,o),
(430,-12,cs)
);
},
{
closed = 1;
nodes = (
(269,63,o),
(161,188,o),
(161,347,cs),
(161,525,o),
(295,682,o),
(479,682,cs),
(642,682,o),
(749,557,o),
(749,398,cs),
(749,220,o),
(614,63,o),
(431,63,cs)
);
}
);
width = 881;
},
{
anchors = (
{
name = bottom;
pos = (407,0);
},
{
name = center;
pos = (459,373);
},
{
name = ogonek;
pos = (427,0);
},
{
name = top;
pos = (512,745);
},
{
name = topright;
pos = (935,745);
}
);
layerId = "1C1CFC13-4213-4775-A214-C31251F9A91A";
shapes = (
{
closed = 1;
nodes = (
(654,-12,o),
(825,173,o),
(825,403,cs),
(825,612,o),
(677,757,o),
(484,757,cs),
(264,757,o),
(93,573,o),
(93,343,cs),
(93,133,o),
(242,-12,o),
(434,-12,cs)
);
},
{
closed = 1;
nodes = (
(257,36,o),
(143,175,o),
(143,344,cs),
(143,534,o),
(286,709,o),
(484,709,cs),
(663,709,o),
(775,569,o),
(775,402,cs),
(775,207,o),
(630,36,o),
(434,36,cs)
);
}
);
width = 887;
}
);
unicode = 79;
},
{
color = 4;
glyphname = Ohorn;
kernLeft = O;
kernRight = O;
lastChange = "2021-11-11 09:41:25 +0000";
layers = (
{
anchors = (
{
name = bottom;
pos = (407,0);
},
{
name = center;
pos = (459,373);
},
{
name = top;
pos = (512,745);
}
);
layerId = "1C1CFC13-4213-4775-A214-C31251F9A91A";
shapes = (
{
closed = 1;
nodes = (
(654,-12,o),
(825,173,o),
(825,403,cs),
(825,552,o),
(750,668,o),
(637,723,c),
(628,716,l),
(694,716,ls),
(760,716,o),
(804,759,o),
(804,825,cs),
(804,846,o),
(800,868,o),
(794,893,c),
(749,893,l),
(754,872,o),
(759,850,o),
(759,829,cs),
(759,781,o),
(734,757,o),
(697,757,cs),
(484,757,ls),
(264,757,o),
(93,573,o),
(93,343,cs),
(93,133,o),
(242,-12,o),
(434,-12,cs)
);
},
{
closed = 1;
nodes = (
(257,36,o),
(143,175,o),
(143,344,cs),
(143,534,o),
(286,709,o),
(484,709,cs),
(663,709,o),
(775,569,o),
(775,402,cs),
(775,207,o),
(630,36,o),
(434,36,cs)
);
}
);
width = 887;
},
{
anchors = (
{
name = bottom;
pos = (403,0);
},
{
name = center;
pos = (455,373);
},
{
name = top;
pos = (508,745);
}
);
layerId = "F445EC8D-29E3-46C7-99DD-9E4BBA6B70C5";
shapes = (
{
closed = 1;
nodes = (
(655,-12,o),
(829,174,o),
(829,400,cs),
(829,527,o),
(775,629,o),
(689,692,c),
(678,683,l),
(715,683,ls),
(794,683,o),
(844,736,o),
(844,823,cs),
(844,845,o),
(838,867,o),
(829,889,c),
(737,889,l),
(745,867,o),
(750,845,o),
(750,824,cs),
(750,770,o),
(719,757,o),
(691,757,cs),
(479,757,ls),
(253,757,o),
(81,572,o),
(81,345,cs),
(81,133,o),
(232,-12,o),
(430,-12,cs)
);
},
{
closed = 1;
nodes = (
(269,63,o),
(161,188,o),
(161,347,cs),
(161,525,o),
(295,682,o),
(479,682,cs),
(642,682,o),
(749,557,o),
(749,398,cs),
(749,220,o),
(614,63,o),
(431,63,cs)
);
}
);
width = 881;
},
{
anchors = (
{
name = bottom;
pos = (403,0);
},
{
name = center;
pos = (456,373);
},
{
name = top;
pos = (507,745);
}
);
layerId = "9D27F576-B54C-4464-AC1E-5B62749637F3";
shapes = (
{
closed = 1;
nodes = (
(666,-12,o),
(851,166,o),
(851,398,cs),
(851,518,o),
(798,619,o),
(712,683,c),
(676,654,l),
(759,654,ls),
(823,654,o),
(863,718,o),
(863,818,cs),
(863,839,o),
(858,862,o),
(851,882,c),
(725,882,l),
(730,861,o),
(735,839,o),
(735,820,cs),
(735,760,o),
(699,757,o),
(680,757,cs),
(476,757,ls),
(242,757,o),
(59,580,o),
(59,349,cs),
(59,142,o),
(217,-12,o),
(434,-12,cs)
);
},
{
closed = 1;
nodes = (
(306,128,o),
(214,218,o),
(214,349,cs),
(214,505,o),
(331,617,o),
(476,617,cs),
(604,617,o),
(696,528,o),
(696,397,cs),
(696,241,o),
(579,128,o),
(434,128,cs)
);
}
);
width = 882;
}
);
metricLeft = "=O";
metricRight = "=O";
unicode = 416;
},
{
color = 4;
glyphname = OE;
kernLeft = O;
kernRight = E;
lastChange = "2021-11-11 09:41:25 +0000";
layers = (
{
layerId = "9D27F576-B54C-4464-AC1E-5B62749637F3";
shapes = (
{
closed = 1;
nodes = (
(534,-12,o),
(624,21,o),
(696,87,c),
(669,119,l),
(653,0,l),
(1153,0,l),
(1173,135,l),
(828,135,l),
(852,306,l),
(1177,306,l),
(1196,441,l),
(871,441,l),
(894,610,l),
(1239,610,l),
(1258,745,l),
(757,745,l),
(736,588,l),
(774,614,l),
(706,712,o),
(602,757,o),
(476,757,cs),
(242,757,o),
(59,580,o),
(59,349,cs),
(59,142,o),
(217,-12,o),
(434,-12,cs)
);
},
{
closed = 1;
nodes = (
(306,128,o),
(214,218,o),
(214,349,cs),
(214,505,o),
(331,617,o),
(476,617,cs),
(604,617,o),
(696,528,o),
(696,397,cs),
(696,241,o),
(579,128,o),
(434,128,cs)
);
}
);
width = 1214;
},
{
layerId = "F445EC8D-29E3-46C7-99DD-9E4BBA6B70C5";
shapes = (
{
closed = 1;
nodes = (
(555,-12,o),
(663,39,o),
(735,139,c),
(725,152,l),
(704,0,l),
(1184,0,l),
(1194,75,l),
(795,75,l),
(832,336,l),
(1211,336,l),
(1221,411,l),
(842,411,l),
(879,670,l),
(1278,670,l),
(1288,745,l),
(808,745,l),
(780,545,l),
(796,554,l),
(740,686,o),
(623,757,o),
(479,757,cs),
(253,757,o),
(81,572,o),
(81,345,cs),
(81,133,o),
(232,-12,o),
(430,-12,cs)
);
},
{
closed = 1;
nodes = (
(269,63,o),
(161,188,o),
(161,347,cs),
(161,525,o),
(295,682,o),
(479,682,cs),
(642,682,o),
(749,557,o),
(749,398,cs),
(749,220,o),
(614,63,o),
(431,63,cs)
);
}
);
width = 1266;
},
{
layerId = "1C1CFC13-4213-4775-A214-C31251F9A91A";
shapes = (
{
closed = 1;
nodes = (
(574,-12,o),
(696,64,o),
(764,178,c),
(756,194,l),
(729,0,l),
(1189,0,l),
(1195,45,l),
(786,45,l),
(829,351,l),
(1218,351,l),
(1224,396,l),
(835,396,l),
(878,700,l),
(1287,700,l),
(1293,745,l),
(833,745,l),
(799,498,l),
(812,510,l),
(770,660,o),
(642,757,o),
(484,757,cs),
(264,757,o),
(93,573,o),
(93,343,cs),
(93,133,o),
(242,-12,o),
(434,-12,cs)
);
},
{
closed = 1;
nodes = (
(257,36,o),
(143,175,o),
(143,344,cs),
(143,534,o),
(286,709,o),
(484,709,cs),
(663,709,o),
(775,569,o),
(775,402,cs),
(775,207,o),
(630,36,o),
(434,36,cs)
);
}
);
width = 1281;
}
);
metricLeft = "=O";
metricRight = "=E";
unicode = 338;
},
{
color = 4;
glyphname = P;
kernLeft = H;
kernRight = P;
lastChange = "2021-11-11 09:41:25 +0000";
layers = (
{
anchors = (
{
name = bottom;
pos = (287,0);
},
{
name = top;
pos = (391,745);
}
);
layerId = "9D27F576-B54C-4464-AC1E-5B62749637F3";
shapes = (
{
closed = 1;
nodes = (
(183,0,l),
(221,270,l),
(363,270,ls),
(537,270,o),
(648,371,o),
(648,520,cs),
(648,668,o),
(550,745,o),
(407,745,cs),
(132,745,l),
(28,0,l)
);
},
{
closed = 1;
nodes = (
(268,610,l),
(394,610,ls),
(454,610,o),
(492,575,o),
(492,520,cs),
(492,453,o),
(442,405,o),
(373,405,cs),
(240,405,l)
);
}
);
width = 649;
},
{
anchors = (
{
name = bottom;
pos = (283,0);
},
{
name = top;
pos = (388,745);
}
);
layerId = "F445EC8D-29E3-46C7-99DD-9E4BBA6B70C5";
shapes = (
{
closed = 1;
nodes = (
(131,0,l),
(171,290,l),
(359,290,ls),
(516,290,o),
(621,391,o),
(621,528,cs),
(621,660,o),
(535,745,o),
(399,745,cs),
(155,745,l),
(51,0,l)
);
},
{
closed = 1;
nodes = (
(225,670,l),
(395,670,ls),
(484,670,o),
(541,618,o),
(541,530,cs),
(541,434,o),
(468,365,o),
(363,365,cs),
(182,365,l)
);
}
);
width = 642;
},
{
anchors = (
{
name = bottom;
pos = (284,0);
},
{
name = top;
pos = (389,745);
}
);
layerId = "1C1CFC13-4213-4775-A214-C31251F9A91A";
shapes = (
{
closed = 1;
nodes = (
(113,0,l),
(155,300,l),
(353,300,ls),
(509,300,o),
(613,408,o),
(613,542,cs),
(613,669,o),
(521,745,o),
(399,745,cs),
(167,745,l),
(63,0,l)
);
},
{
closed = 1;
nodes = (
(211,700,l),
(395,700,ls),
(496,700,o),
(563,638,o),
(563,542,cs),
(563,436,o),
(480,345,o),
(357,345,cs),
(161,345,l)
);
}
);
width = 642;
}
);
unicode = 80;
},
{
color = 4;
glyphname = Thorn;
kernLeft = H;
kernRight = P;
lastChange = "2021-11-10 07:58:16 +0000";
layers = (
{
layerId = "9D27F576-B54C-4464-AC1E-5B62749637F3";
shapes = (
{
closed = 1;
nodes = (
(177,0,l),
(196,135,l),
(357,135,ls),
(531,135,o),
(642,236,o),
(642,385,cs),
(642,533,o),
(544,610,o),
(401,610,cs),
(262,610,l),
(281,745,l),
(126,745,l),
(22,0,l)
);
},
{
closed = 1;
nodes = (
(243,475,l),
(388,475,ls),
(448,475,o),
(486,440,o),
(486,385,cs),
(486,318,o),
(436,270,o),
(367,270,cs),
(215,270,l)
);
}
);
width = 674;
},
{
layerId = "F445EC8D-29E3-46C7-99DD-9E4BBA6B70C5";
shapes = (
{
closed = 1;
nodes = (
(123,0,l),
(143,145,l),
(351,145,ls),
(508,145,o),
(613,246,o),
(613,383,cs),
(613,515,o),
(527,600,o),
(391,600,cs),
(207,600,l),
(227,745,l),
(147,745,l),
(43,0,l)
);
},
{
closed = 1;
nodes = (
(196,525,l),
(387,525,ls),
(476,525,o),
(533,473,o),
(533,385,cs),
(533,289,o),
(460,220,o),
(355,220,cs),
(154,220,l)
);
}
);
width = 654;
},
{
layerId = "1C1CFC13-4213-4775-A214-C31251F9A91A";
shapes = (
{
closed = 1;
nodes = (
(109,0,l),
(130,150,l),
(349,150,ls),
(499,150,o),
(609,252,o),
(609,395,cs),
(609,512,o),
(524,595,o),
(395,595,cs),
(192,595,l),
(213,745,l),
(163,745,l),
(59,0,l)
);
},
{
closed = 1;
nodes = (
(186,550,l),
(391,550,ls),
(492,550,o),
(559,488,o),
(559,395,cs),
(559,281,o),
(471,195,o),
(353,195,cs),
(136,195,l)
);
}
);
width = 653;
}
);
unicode = 222;
},
{
color = 4;
glyphname = Q;
kernLeft = O;
kernRight = O;
lastChange = "2021-11-11 09:41:25 +0000";
layers = (
{
anchors = (
{
name = bottom;
pos = (403,0);
},
{
name = top;
pos = (507,745);
}
);
layerId = "9D27F576-B54C-4464-AC1E-5B62749637F3";
shapes = (
{
closed = 1;
nodes = (
(666,-12,o),
(851,166,o),
(851,398,cs),
(851,604,o),
(694,757,o),
(476,757,cs),
(242,757,o),
(59,580,o),
(59,349,cs),
(59,142,o),
(217,-12,o),
(434,-12,cs)
);
},
{
closed = 1;
nodes = (
(306,128,o),
(214,218,o),
(214,349,cs),
(214,505,o),
(331,617,o),
(476,617,cs),
(604,617,o),
(696,528,o),
(696,397,cs),
(696,241,o),
(579,128,o),
(434,128,cs)
);
},
{
closed = 1;
nodes = (
(709,-90,l),
(539,298,l),
(387,298,l),
(554,-90,l)
);
}
);
width = 882;
},
{
anchors = (
{
name = bottom;
pos = (403,0);
},
{
name = top;
pos = (508,745);
}
);
layerId = "F445EC8D-29E3-46C7-99DD-9E4BBA6B70C5";
shapes = (
{
closed = 1;
nodes = (
(655,-12,o),
(829,174,o),
(829,400,cs),
(829,611,o),
(678,757,o),
(479,757,cs),
(253,757,o),
(81,572,o),
(81,345,cs),
(81,133,o),
(232,-12,o),
(430,-12,cs)
);
},
{
closed = 1;
nodes = (
(269,63,o),
(161,188,o),
(161,347,cs),
(161,525,o),
(295,682,o),
(479,682,cs),
(642,682,o),
(749,557,o),
(749,398,cs),
(749,220,o),
(614,63,o),
(431,63,cs)
);
},
{
closed = 1;
nodes = (
(694,-90,l),
(484,298,l),
(399,298,l),
(609,-90,l)
);
}
);
width = 881;
},
{
anchors = (
{
name = bottom;
pos = (407,0);
},
{
name = top;
pos = (512,745);
}
);
layerId = "1C1CFC13-4213-4775-A214-C31251F9A91A";
shapes = (
{
closed = 1;
nodes = (
(654,-12,o),
(825,173,o),
(825,403,cs),
(825,612,o),
(677,757,o),
(484,757,cs),
(264,757,o),
(93,573,o),
(93,343,cs),
(93,133,o),
(242,-12,o),
(434,-12,cs)
);
},
{
closed = 1;
nodes = (
(257,36,o),
(143,175,o),
(143,344,cs),
(143,534,o),
(286,709,o),
(484,709,cs),
(663,709,o),
(775,569,o),
(775,402,cs),
(775,207,o),
(630,36,o),
(434,36,cs)
);
},
{
closed = 1;
nodes = (
(684,-90,l),
(489,298,l),
(433,298,l),
(628,-90,l)
);
}
);
width = 887;
}
);
unicode = 81;
},
{
color = 4;
glyphname = Q.ss03;
kernLeft = O;
kernRight = O;
lastChange = "2021-11-11 09:41:25 +0000";
layers = (
{
layerId = "9D27F576-B54C-4464-AC1E-5B62749637F3";
shapes = (
{
closed = 1;
nodes = (
(666,-12,o),
(851,166,o),
(851,398,cs),
(851,604,o),
(694,757,o),
(476,757,cs),
(242,757,o),
(59,580,o),
(59,349,cs),
(59,142,o),
(217,-12,o),
(434,-12,cs)
);
},
{
closed = 1;
nodes = (
(306,128,o),
(214,218,o),
(214,349,cs),
(214,505,o),
(331,617,o),
(476,617,cs),
(604,617,o),
(696,528,o),
(696,397,cs),
(696,241,o),
(579,128,o),
(434,128,cs)
);
},
{
closed = 1;
nodes = (
(694,-180,l),
(712,-50,l),
(539,-50,ls),
(496,-50,o),
(476,-40,o),
(481,0,cs),
(490,67,l),
(340,67,l),
(328,-19,ls),
(312,-132,o),
(365,-180,o),
(508,-180,cs)
);
}
);
width = 882;
},
{
layerId = "F445EC8D-29E3-46C7-99DD-9E4BBA6B70C5";
shapes = (
{
closed = 1;
nodes = (
(655,-12,o),
(829,174,o),
(829,400,cs),
(829,611,o),
(678,757,o),
(479,757,cs),
(253,757,o),
(81,572,o),
(81,345,cs),
(81,133,o),
(232,-12,o),
(430,-12,cs)
);
},
{
closed = 1;
nodes = (
(269,63,o),
(161,188,o),
(161,347,cs),
(161,525,o),
(295,682,o),
(479,682,cs),
(642,682,o),
(749,557,o),
(749,398,cs),
(749,220,o),
(614,63,o),
(431,63,cs)
);
},
{
closed = 1;
nodes = (
(704,-180,l),
(713,-115,l),
(543,-115,ls),
(469,-115,o),
(433,-88,o),
(441,-20,cs),
(444,5,l),
(369,5,l),
(366,-20,ls),
(353,-125,o),
(409,-180,o),
(536,-180,cs)
);
}
);
width = 881;
},
{
layerId = "1C1CFC13-4213-4775-A214-C31251F9A91A";
shapes = (
{
closed = 1;
nodes = (
(654,-12,o),
(825,173,o),
(825,403,cs),
(825,612,o),
(677,757,o),
(484,757,cs),
(264,757,o),
(93,573,o),
(93,343,cs),
(93,133,o),
(242,-12,o),
(434,-12,cs)
);
},
{
closed = 1;
nodes = (
(257,36,o),
(143,175,o),
(143,344,cs),
(143,534,o),
(286,709,o),
(484,709,cs),
(663,709,o),
(775,569,o),
(775,402,cs),
(775,207,o),
(630,36,o),
(434,36,cs)
);
},
{
closed = 1;
nodes = (
(711,-180,l),
(717,-140,l),
(558,-140,ls),
(469,-140,o),
(429,-96,o),
(439,-20,cs),
(443,12,l),
(398,12,l),
(394,-20,ls),
(381,-121,o),
(434,-180,o),
(550,-180,cs)
);
}
);
width = 887;
}
);
metricLeft = "=O";
metricRight = "=O";
},
{
color = 4;
glyphname = R;
kernLeft = H;
kernRight = R;
lastChange = "2021-11-11 09:41:25 +0000";
layers = (
{
anchors = (
{
name = bottom;
pos = (296,0);
},
{
name = top;
pos = (400,745);
}
);
layerId = "9D27F576-B54C-4464-AC1E-5B62749637F3";
shapes = (
{
closed = 1;
nodes = (
(183,0,l),
(221,270,l),
(407,270,l),
(314,332,l),
(453,0,l),
(618,0,l),
(493,292,l),
(590,330,o),
(648,413,o),
(648,520,cs),
(648,668,o),
(550,745,o),
(407,745,cs),
(132,745,l),
(28,0,l)
);
},
{
closed = 1;
nodes = (
(268,610,l),
(394,610,ls),
(454,610,o),
(492,575,o),
(492,520,cs),
(492,453,o),
(442,405,o),
(373,405,cs),
(240,405,l)
);
}
);
width = 678;
},
{
anchors = (
{
name = bottom;
pos = (278,0);
},
{
name = top;
pos = (383,745);
}
);
layerId = "F445EC8D-29E3-46C7-99DD-9E4BBA6B70C5";
shapes = (
{
closed = 1;
nodes = (
(131,0,l),
(171,290,l),
(394,290,l),
(344,323,l),
(482,0,l),
(571,0,l),
(441,300,l),
(551,329,o),
(621,416,o),
(621,528,cs),
(621,660,o),
(535,745,o),
(399,745,cs),
(155,745,l),
(51,0,l)
);
},
{
closed = 1;
nodes = (
(225,670,l),
(395,670,ls),
(484,670,o),
(541,618,o),
(541,530,cs),
(541,434,o),
(468,365,o),
(363,365,cs),
(182,365,l)
);
}
);
width = 642;
},
{
anchors = (
{
name = bottom;
pos = (277,0);
},
{
name = top;
pos = (382,745);
}
);
layerId = "1C1CFC13-4213-4775-A214-C31251F9A91A";
shapes = (
{
closed = 1;
nodes = (
(113,0,l),
(155,300,l),
(407,300,l),
(357,333,l),
(501,0,l),
(557,0,l),
(422,308,l),
(539,334,o),
(613,429,o),
(613,542,cs),
(613,669,o),
(521,745,o),
(399,745,cs),
(167,745,l),
(63,0,l)
);
},
{
closed = 1;
nodes = (
(211,700,l),
(395,700,ls),
(496,700,o),
(563,638,o),
(563,542,cs),
(563,436,o),
(480,345,o),
(357,345,cs),
(161,345,l)
);
}
);
width = 638;
}
);
unicode = 82;
},
{
color = 4;
glyphname = R.ss03;
kernLeft = H;
kernRight = R;
lastChange = "2021-11-11 09:41:25 +0000";
layers = (
{
anchors = (
{
name = bottom;
pos = (287,0);
},
{
name = top;
pos = (391,745);
}
);
layerId = "9D27F576-B54C-4464-AC1E-5B62749637F3";
shapes = (
{
closed = 1;
nodes = (
(183,0,l),
(221,270,l),
(394,270,ls),
(437,270,o),
(457,249,o),
(451,209,cs),
(441,139,o),
(432,70,o),
(433,0,c),
(589,0,l),
(589,73,o),
(598,147,o),
(609,220,cs),
(620,296,o),
(595,342,o),
(538,365,c),
(540,316,l),
(609,360,o),
(648,432,o),
(648,520,cs),
(648,668,o),
(550,745,o),
(407,745,cs),
(132,745,l),
(28,0,l)
);
},
{
closed = 1;
nodes = (
(268,610,l),
(394,610,ls),
(454,610,o),
(492,575,o),
(492,520,cs),
(492,453,o),
(442,405,o),
(373,405,cs),
(240,405,l)
);
}
);
width = 671;
},
{
anchors = (
{
name = bottom;
pos = (278,0);
},
{
name = top;
pos = (383,745);
}
);
layerId = "F445EC8D-29E3-46C7-99DD-9E4BBA6B70C5";
shapes = (
{
closed = 1;
nodes = (
(131,0,l),
(171,290,l),
(434,290,ls),
(476,290,o),
(498,271,o),
(492,230,cs),
(481,153,o),
(470,77,o),
(470,0,c),
(550,0,l),
(551,79,o),
(562,157,o),
(573,236,cs),
(581,298,o),
(557,336,o),
(506,350,c),
(509,328,l),
(579,370,o),
(621,441,o),
(621,528,cs),
(621,660,o),
(535,745,o),
(399,745,cs),
(155,745,l),
(51,0,l)
);
},
{
closed = 1;
nodes = (
(225,670,l),
(395,670,ls),
(484,670,o),
(541,618,o),
(541,530,cs),
(541,434,o),
(468,365,o),
(363,365,cs),
(182,365,l)
);
}
);
width = 643;
},
{
anchors = (
{
name = bottom;
pos = (284,0);
},
{
name = top;
pos = (389,745);
}
);
layerId = "1C1CFC13-4213-4775-A214-C31251F9A91A";
shapes = (
{
closed = 1;
nodes = (
(113,0,l),
(155,300,l),
(451,300,ls),
(495,300,o),
(514,280,o),
(508,240,cs),
(497,160,o),
(486,80,o),
(485,0,c),
(535,0,l),
(536,80,o),
(547,160,o),
(558,240,cs),
(567,302,o),
(539,339,o),
(468,342,c),
(476,327,l),
(561,365,o),
(613,448,o),
(613,542,cs),
(613,669,o),
(521,745,o),
(399,745,cs),
(167,745,l),
(63,0,l)
);
},
{
closed = 1;
nodes = (
(211,700,l),
(395,700,ls),
(496,700,o),
(563,638,o),
(563,542,cs),
(563,436,o),
(480,345,o),
(357,345,cs),
(161,345,l)
);
}
);
width = 653;
}
);
metricLeft = "=R";
},
{
color = 4;
glyphname = S;
kernLeft = S;
kernRight = S;
lastChange = "2021-11-11 12:18:29 +0000";
layers = (
{
anchors = (
{
name = bottom;
pos = (287,0);
},
{
name = top;
pos = (391,745);
}
);
layerId = "9D27F576-B54C-4464-AC1E-5B62749637F3";
shapes = (
{
closed = 1;
nodes = (
(476,-12,o),
(597,89,o),
(597,222,cs),
(597,317,o),
(543,379,o),
(434,417,cs),
(305,462,ls),
(260,478,o),
(239,501,o),
(239,537,cs),
(239,589,o),
(281,622,o),
(348,622,cs),
(422,622,o),
(479,582,o),
(501,514,c),
(631,565,l),
(600,683,o),
(494,757,o),
(352,757,cs),
(200,757,o),
(84,656,o),
(84,524,cs),
(84,428,o),
(136,362,o),
(245,325,cs),
(377,280,ls),
(422,265,o),
(441,243,o),
(441,211,cs),
(441,160,o),
(394,123,o),
(327,123,cs),
(248,123,o),
(181,172,o),
(154,251,c),
(23,200,l),
(54,71,o),
(175,-12,o),
(330,-12,cs)
);
}
);
width = 650;
},
{
anchors = (
{
name = bottom;
pos = (286,0);
},
{
name = top;
pos = (391,745);
}
);
layerId = "F445EC8D-29E3-46C7-99DD-9E4BBA6B70C5";
shapes = (
{
closed = 1;
nodes = (
(474,-12,o),
(570,90,o),
(570,203,cs),
(570,290,o),
(516,356,o),
(410,389,cs),
(296,424,ls),
(224,446,o),
(192,490,o),
(192,544,cs),
(192,627,o),
(261,685,o),
(357,685,cs),
(446,685,o),
(510,636,o),
(530,553,c),
(602,577,l),
(580,674,o),
(489,757,o),
(357,757,cs),
(213,757,o),
(113,657,o),
(113,537,cs),
(113,452,o),
(164,384,o),
(258,355,cs),
(388,315,ls),
(454,295,o),
(490,258,o),
(490,199,cs),
(490,120,o),
(429,60,o),
(317,60,cs),
(213,60,o),
(141,112,o),
(118,213,c),
(44,190,l),
(70,69,o),
(177,-12,o),
(311,-12,cs)
);
}
);
width = 647;
},
{
anchors = (
{
name = bottom;
pos = (283,0);
},
{
name = top;
pos = (388,745);
}
);
layerId = "1C1CFC13-4213-4775-A214-C31251F9A91A";
shapes = (
{
closed = 1;
nodes = (
(450,-12,o),
(551,75,o),
(551,195,cs),
(551,283,o),
(504,345,o),
(413,373,cs),
(291,410,ls),
(205,436,o),
(172,478,o),
(172,549,cs),
(172,643,o),
(250,714,o),
(354,714,cs),
(444,714,o),
(513,660,o),
(537,569,c),
(583,583,l),
(562,686,o),
(470,757,o),
(357,757,cs),
(226,757,o),
(124,666,o),
(124,548,cs),
(124,458,o),
(172,393,o),
(264,365,cs),
(399,325,ls),
(468,305,o),
(503,259,o),
(503,192,cs),
(503,98,o),
(424,31,o),
(311,31,cs),
(206,31,o),
(128,89,o),
(100,188,c),
(53,174,l),
(77,64,o),
(181,-12,o),
(310,-12,cs)
);
}
);
width = 640;
}
);
unicode = 83;
},
{
color = 4;
glyphname = T;
kernLeft = T;
kernRight = T;
lastChange = "2021-11-11 12:17:57 +0000";
layers = (
{
anchors = (
{
name = bottom;
pos = (238,0);
},
{
name = center;
pos = (290,373);
},
{
name = top;
pos = (342,745);
}
);
layerId = "9D27F576-B54C-4464-AC1E-5B62749637F3";
shapes = (
{
closed = 1;
nodes = (
(317,0,l),
(402,610,l),
(588,610,l),
(607,745,l),
(77,745,l),
(58,610,l),
(247,610,l),
(162,0,l)
);
}
);
width = 552;
},
{
anchors = (
{
name = bottom;
pos = (219,0);
},
{
name = center;
pos = (272,373);
},
{
name = top;
pos = (324,745);
}
);
layerId = "F445EC8D-29E3-46C7-99DD-9E4BBA6B70C5";
shapes = (
{
closed = 1;
nodes = (
(260,0,l),
(354,670,l),
(558,670,l),
(568,745,l),
(78,745,l),
(68,670,l),
(274,670,l),
(180,0,l)
);
}
);
width = 513;
},
{
anchors = (
{
name = bottom;
pos = (221,0);
},
{
name = center;
pos = (273,373);
},
{
name = top;
pos = (326,745);
}
);
layerId = "1C1CFC13-4213-4775-A214-C31251F9A91A";
shapes = (
{
closed = 1;
nodes = (
(247,0,l),
(345,700,l),
(554,700,l),
(560,745,l),
(90,745,l),
(84,700,l),
(295,700,l),
(197,0,l)
);
}
);
width = 515;
}
);
unicode = 84;
},
{
color = 4;
glyphname = U;
kernLeft = U;
kernRight = U;
lastChange = "2021-11-11 09:48:03 +0000";
layers = (
{
anchors = (
{
name = bottom;
pos = (324,0);
},
{
name = ogonek;
pos = (345,0);
},
{
name = top;
pos = (428,745);
}
);
layerId = "9D27F576-B54C-4464-AC1E-5B62749637F3";
shapes = (
{
closed = 1;
nodes = (
(507,-12,o),
(643,105,o),
(666,269,cs),
(733,745,l),
(578,745,l),
(514,287,ls),
(500,188,o),
(430,128,o),
(344,128,cs),
(255,128,o),
(201,190,o),
(213,279,cs),
(278,745,l),
(123,745,l),
(58,277,ls),
(35,113,o),
(157,-12,o),
(336,-12,cs)
);
}
);
width = 724;
},
{
anchors = (
{
name = bottom;
pos = (312,0);
},
{
name = ogonek;
pos = (332,0);
},
{
name = top;
pos = (417,745);
}
);
layerId = "F445EC8D-29E3-46C7-99DD-9E4BBA6B70C5";
shapes = (
{
closed = 1;
nodes = (
(476,-12,o),
(590,93,o),
(611,241,cs),
(682,745,l),
(603,745,l),
(533,243,ls),
(518,135,o),
(432,63,o),
(323,63,cs),
(213,63,o),
(148,135,o),
(163,243,cs),
(233,745,l),
(152,745,l),
(82,245,ls),
(61,97,o),
(158,-12,o),
(319,-12,cs)
);
}
);
width = 700;
},
{
anchors = (
{
name = bottom;
pos = (309,0);
},
{
name = ogonek;
pos = (330,0);
},
{
name = top;
pos = (414,745);
}
);
layerId = "1C1CFC13-4213-4775-A214-C31251F9A91A";
shapes = (
{
closed = 1;
nodes = (
(458,-12,o),
(572,91,o),
(594,249,cs),
(663,745,l),
(613,745,l),
(544,249,ls),
(526,118,o),
(428,33,o),
(313,33,cs),
(197,33,o),
(125,119,o),
(143,245,cs),
(213,745,l),
(163,745,l),
(94,253,ls),
(72,95,o),
(159,-12,o),
(310,-12,cs)
);
}
);
width = 691;
}
);
unicode = 85;
},
{
color = 4;
glyphname = U.ss01;
kernLeft = H;
kernRight = H;
lastChange = "2021-11-11 09:48:20 +0000";
layers = (
{
anchors = (
{
name = bottom;
pos = (332,0);
},
{
name = ogonek;
pos = (353,0);
},
{
name = top;
pos = (437,745);
}
);
layerId = "9D27F576-B54C-4464-AC1E-5B62749637F3";
shapes = (
{
closed = 1;
nodes = (
(638,0,l),
(742,745,l),
(587,745,l),
(502,135,l),
(202,135,l),
(287,745,l),
(132,745,l),
(28,0,l)
);
}
);
width = 742;
},
{
anchors = (
{
name = bottom;
pos = (315,0);
},
{
name = ogonek;
pos = (336,0);
},
{
name = top;
pos = (420,745);
}
);
layerId = "F445EC8D-29E3-46C7-99DD-9E4BBA6B70C5";
shapes = (
{
closed = 1;
nodes = (
(581,0,l),
(685,745,l),
(605,745,l),
(511,75,l),
(141,75,l),
(235,745,l),
(155,745,l),
(51,0,l)
);
}
);
width = 707;
},
{
anchors = (
{
name = bottom;
pos = (312,0);
},
{
name = ogonek;
pos = (333,0);
},
{
name = top;
pos = (417,745);
}
);
layerId = "1C1CFC13-4213-4775-A214-C31251F9A91A";
shapes = (
{
closed = 1;
nodes = (
(563,0,l),
(667,745,l),
(617,745,l),
(519,45,l),
(119,45,l),
(217,745,l),
(167,745,l),
(63,0,l)
);
}
);
width = 699;
}
);
metricLeft = "=H";
metricRight = "=H";
},
{
color = 4;
glyphname = Uhorn;
kernLeft = U;
kernRight = U;
lastChange = "2021-11-11 09:41:25 +0000";
layers = (
{
anchors = (
{
name = bottom;
pos = (309,0);
},
{
name = ogonek;
pos = (586,10);
},
{
name = top;
pos = (414,745);
}
);
layerId = "1C1CFC13-4213-4775-A214-C31251F9A91A";
shapes = (
{
closed = 1;
nodes = (
(458,-12,o),
(572,91,o),
(594,249,cs),
(663,745,l),
(613,745,l),
(544,249,ls),
(526,118,o),
(428,33,o),
(313,33,cs),
(197,33,o),
(125,119,o),
(143,245,cs),
(213,745,l),
(163,745,l),
(94,253,ls),
(72,95,o),
(159,-12,o),
(310,-12,cs)
);
},
{
closed = 1;
nodes = (
(653,704,ls),
(719,704,o),
(763,747,o),
(763,813,cs),
(763,834,o),
(759,856,o),
(753,881,c),
(708,881,l),
(713,860,o),
(718,838,o),
(718,817,cs),
(718,769,o),
(693,745,o),
(656,745,cs),
(643,745,l),
(637,704,l)
);
}
);
width = 690;
},
{
anchors = (
{
name = bottom;
pos = (312,0);
},
{
name = ogonek;
pos = (594,10);
},
{
name = top;
pos = (417,745);
}
);
layerId = "F445EC8D-29E3-46C7-99DD-9E4BBA6B70C5";
shapes = (
{
closed = 1;
nodes = (
(476,-12,o),
(590,93,o),
(611,241,cs),
(682,745,l),
(603,745,l),
(533,243,ls),
(518,135,o),
(432,63,o),
(323,63,cs),
(213,63,o),
(148,135,o),
(163,243,cs),
(233,745,l),
(152,745,l),
(82,245,ls),
(61,97,o),
(158,-12,o),
(319,-12,cs)
);
},
{
closed = 1;
nodes = (
(678,671,ls),
(769,671,o),
(827,724,o),
(827,811,cs),
(827,833,o),
(821,855,o),
(812,877,c),
(720,877,l),
(728,855,o),
(733,833,o),
(733,812,cs),
(733,758,o),
(702,745,o),
(674,745,cs),
(662,745,l),
(651,671,l)
);
}
);
width = 700;
},
{
anchors = (
{
name = bottom;
pos = (324,0);
},
{
name = ogonek;
pos = (615,10);
},
{
name = top;
pos = (428,745);
}
);
layerId = "9D27F576-B54C-4464-AC1E-5B62749637F3";
shapes = (
{
closed = 1;
nodes = (
(507,-12,o),
(643,105,o),
(666,269,cs),
(733,745,l),
(578,745,l),
(514,287,ls),
(500,188,o),
(430,128,o),
(344,128,cs),
(255,128,o),
(201,190,o),
(213,279,cs),
(278,745,l),
(123,745,l),
(58,277,ls),
(35,113,o),
(157,-12,o),
(336,-12,cs)
);
},
{
closed = 1;
nodes = (
(716,642,ls),
(823,642,o),
(890,706,o),
(890,806,cs),
(890,827,o),
(885,850,o),
(878,870,c),
(752,870,l),
(757,849,o),
(762,827,o),
(762,808,cs),
(762,748,o),
(726,745,o),
(707,745,cs),
(683,745,l),
(669,642,l)
);
}
);
width = 724;
}
);
metricLeft = "=U";
unicode = 431;
},
{
color = 4;
glyphname = Uhorn.ss01;
kernLeft = H;
kernRight = H;
lastChange = "2021-11-11 09:41:25 +0000";
layers = (
{
anchors = (
{
name = bottom;
pos = (333,0);
},
{
name = top;
pos = (437,745);
}
);
layerId = "9D27F576-B54C-4464-AC1E-5B62749637F3";
shapes = (
{
closed = 1;
nodes = (
(638,0,l),
(742,745,l),
(587,745,l),
(502,135,l),
(202,135,l),
(287,745,l),
(132,745,l),
(28,0,l)
);
},
{
closed = 1;
nodes = (
(725,642,ls),
(832,642,o),
(899,706,o),
(899,806,cs),
(899,827,o),
(894,850,o),
(887,870,c),
(761,870,l),
(766,849,o),
(771,827,o),
(771,808,cs),
(771,748,o),
(735,745,o),
(716,745,cs),
(692,745,l),
(678,642,l)
);
}
);
width = 733;
},
{
anchors = (
{
name = bottom;
pos = (316,0);
},
{
name = top;
pos = (421,745);
}
);
layerId = "F445EC8D-29E3-46C7-99DD-9E4BBA6B70C5";
shapes = (
{
closed = 1;
nodes = (
(581,0,l),
(685,745,l),
(605,745,l),
(511,75,l),
(141,75,l),
(235,745,l),
(155,745,l),
(51,0,l)
);
},
{
closed = 1;
nodes = (
(678,671,ls),
(769,671,o),
(827,724,o),
(827,811,cs),
(827,833,o),
(821,855,o),
(812,877,c),
(720,877,l),
(728,855,o),
(733,833,o),
(733,812,cs),
(733,758,o),
(702,745,o),
(674,745,cs),
(662,745,l),
(651,671,l)
);
}
);
width = 700;
},
{
anchors = (
{
name = bottom;
pos = (313,0);
},
{
name = top;
pos = (418,745);
}
);
layerId = "1C1CFC13-4213-4775-A214-C31251F9A91A";
shapes = (
{
closed = 1;
nodes = (
(563,0,l),
(667,745,l),
(617,745,l),
(519,45,l),
(119,45,l),
(217,745,l),
(167,745,l),
(63,0,l)
);
},
{
closed = 1;
nodes = (
(657,704,ls),
(723,704,o),
(767,747,o),
(767,813,cs),
(767,834,o),
(763,856,o),
(757,881,c),
(712,881,l),
(717,860,o),
(722,838,o),
(722,817,cs),
(722,769,o),
(697,745,o),
(660,745,cs),
(647,745,l),
(641,704,l)
);
}
);
width = 694;
}
);
metricLeft = "=H";
metricRight = "=Uhorn";
},
{
color = 4;
glyphname = V;
lastChange = "2021-11-11 09:41:25 +0000";
layers = (
{
anchors = (
{
name = bottom;
pos = (318,0);
},
{
name = top;
pos = (422,745);
}
);
layerId = "9D27F576-B54C-4464-AC1E-5B62749637F3";
shapes = (
{
closed = 1;
nodes = (
(408,0,l),
(767,745,l),
(589,745,l),
(313,147,l),
(349,147,l),
(241,745,l),
(77,745,l),
(228,0,l)
);
}
);
width = 712;
},
{
anchors = (
{
name = bottom;
pos = (288,0);
},
{
name = top;
pos = (393,745);
}
);
layerId = "F445EC8D-29E3-46C7-99DD-9E4BBA6B70C5";
shapes = (
{
closed = 1;
nodes = (
(330,0,l),
(708,745,l),
(620,745,l),
(286,71,l),
(303,71,l),
(158,745,l),
(78,745,l),
(246,0,l)
);
}
);
width = 652;
},
{
anchors = (
{
name = bottom;
pos = (290,0);
},
{
name = top;
pos = (395,745);
}
);
layerId = "1C1CFC13-4213-4775-A214-C31251F9A91A";
shapes = (
{
closed = 1;
nodes = (
(315,0,l),
(700,745,l),
(642,745,l),
(284,46,l),
(306,46,l),
(143,745,l),
(90,745,l),
(267,0,l)
);
}
);
width = 654;
}
);
unicode = 86;
},
{
color = 4;
glyphname = W;
kernLeft = W;
kernRight = W;
lastChange = "2021-11-11 12:17:29 +0000";
layers = (
{
anchors = (
{
name = bottom;
pos = (478,0);
},
{
name = top;
pos = (582,745);
}
);
layerId = "9D27F576-B54C-4464-AC1E-5B62749637F3";
shapes = (
{
closed = 1;
nodes = (
(348,0,l),
(588,600,l),
(536,600,l),
(608,0,l),
(788,0,l),
(1087,745,l),
(917,745,l),
(673,121,l),
(730,121,l),
(655,745,l),
(502,745,l),
(250,121,l),
(301,121,l),
(241,745,l),
(77,745,l),
(168,0,l)
);
}
);
width = 1032;
},
{
anchors = (
{
name = bottom;
pos = (454,0);
},
{
name = top;
pos = (559,745);
}
);
layerId = "F445EC8D-29E3-46C7-99DD-9E4BBA6B70C5";
shapes = (
{
closed = 1;
nodes = (
(273,0,l),
(560,670,l),
(540,670,l),
(637,0,l),
(722,0,l),
(1040,745,l),
(957,745,l),
(675,78,l),
(696,78,l),
(600,745,l),
(517,745,l),
(230,78,l),
(249,78,l),
(157,745,l),
(78,745,l),
(188,0,l)
);
}
);
width = 984;
},
{
anchors = (
{
name = bottom;
pos = (457,0);
},
{
name = top;
pos = (562,745);
}
);
layerId = "1C1CFC13-4213-4775-A214-C31251F9A91A";
shapes = (
{
closed = 1;
nodes = (
(257,0,l),
(571,706,l),
(544,706,l),
(659,0,l),
(707,0,l),
(1034,745,l),
(979,745,l),
(672,44,l),
(700,45,l),
(586,745,l),
(538,745,l),
(223,45,l),
(251,44,l),
(143,745,l),
(90,745,l),
(209,0,l)
);
}
);
width = 988;
}
);
unicode = 87;
},
{
color = 4;
glyphname = X;
lastChange = "2021-11-11 09:41:25 +0000";
layers = (
{
anchors = (
{
name = bottom;
pos = (304,0);
},
{
name = top;
pos = (408,745);
}
);
layerId = "9D27F576-B54C-4464-AC1E-5B62749637F3";
shapes = (
{
closed = 1;
nodes = (
(163,0,l),
(391,291,l),
(319,298,l),
(467,0,l),
(635,0,l),
(451,369,l),
(739,745,l),
(548,745,l),
(332,459,l),
(403,453,l),
(257,745,l),
(89,745,l),
(271,382,l),
(-27,0,l)
);
}
);
width = 684;
},
{
anchors = (
{
name = bottom;
pos = (261,0);
},
{
name = top;
pos = (366,745);
}
);
layerId = "F445EC8D-29E3-46C7-99DD-9E4BBA6B70C5";
shapes = (
{
closed = 1;
nodes = (
(67,0,l),
(332,339,l),
(294,343,l),
(464,0,l),
(548,0,l),
(362,371,l),
(643,745,l),
(547,745,l),
(300,410,l),
(337,407,l),
(169,745,l),
(85,745,l),
(268,380,l),
(-27,0,l)
);
}
);
width = 597;
},
{
anchors = (
{
name = bottom;
pos = (258,0);
},
{
name = top;
pos = (363,745);
}
);
layerId = "1C1CFC13-4213-4775-A214-C31251F9A91A";
shapes = (
{
closed = 1;
nodes = (
(51,0,l),
(330,366,l),
(292,369,l),
(472,0,l),
(531,0,l),
(343,380,l),
(626,745,l),
(559,745,l),
(295,400,l),
(333,397,l),
(162,745,l),
(103,745,l),
(282,387,l),
(-15,0,l)
);
}
);
width = 590;
}
);
unicode = 88;
},
{
color = 4;
glyphname = Y;
kernLeft = Y;
kernRight = Y;
lastChange = "2021-11-11 09:41:25 +0000";
layers = (
{
anchors = (
{
name = bottom;
pos = (298,0);
},
{
name = top;
pos = (402,745);
}
);
layerId = "9D27F576-B54C-4464-AC1E-5B62749637F3";
shapes = (
{
closed = 1;
nodes = (
(377,0,l),
(422,326,l),
(727,745,l),
(539,745,l),
(316,429,l),
(380,429,l),
(244,745,l),
(77,745,l),
(265,325,l),
(220,0,l)
);
}
);
width = 672;
},
{
anchors = (
{
name = bottom;
pos = (274,0);
},
{
name = top;
pos = (379,745);
}
);
layerId = "F445EC8D-29E3-46C7-99DD-9E4BBA6B70C5";
shapes = (
{
closed = 1;
nodes = (
(316,0,l),
(364,346,l),
(679,745,l),
(584,745,l),
(311,400,l),
(343,396,l),
(162,745,l),
(78,745,l),
(283,346,l),
(235,0,l)
);
}
);
width = 623;
},
{
anchors = (
{
name = bottom;
pos = (275,0);
},
{
name = top;
pos = (380,745);
}
);
layerId = "1C1CFC13-4213-4775-A214-C31251F9A91A";
shapes = (
{
closed = 1;
nodes = (
(301,0,l),
(347,333,l),
(670,745,l),
(607,745,l),
(310,369,l),
(338,369,l),
(143,745,l),
(90,745,l),
(297,333,l),
(251,0,l)
);
}
);
width = 624;
}
);
unicode = 89;
},
{
color = 4;
glyphname = Z;
kernLeft = Z;
kernRight = Z;
lastChange = "2021-11-11 09:41:25 +0000";
layers = (
{
anchors = (
{
name = bottom;
pos = (246,0);
},
{
name = center;
pos = (298,373);
},
{
name = top;
pos = (350,745);
}
);
layerId = "9D27F576-B54C-4464-AC1E-5B62749637F3";
shapes = (
{
closed = 1;
nodes = (
(518,0,l),
(537,135,l),
(196,135,l),
(595,620,l),
(612,745,l),
(97,745,l),
(78,610,l),
(384,610,l),
(-10,125,l),
(-27,0,l)
);
}
);
width = 567;
},
{
anchors = (
{
name = bottom;
pos = (255,0);
},
{
name = center;
pos = (308,373);
},
{
name = top;
pos = (360,745);
}
);
layerId = "F445EC8D-29E3-46C7-99DD-9E4BBA6B70C5";
shapes = (
{
closed = 1;
nodes = (
(525,0,l),
(535,75,l),
(106,75,l),
(613,691,l),
(620,745,l),
(114,745,l),
(104,670,l),
(499,670,l),
(-8,54,l),
(-15,0,l)
);
}
);
width = 585;
},
{
anchors = (
{
name = bottom;
pos = (266,0);
},
{
name = center;
pos = (318,373);
},
{
name = top;
pos = (371,745);
}
);
layerId = "1C1CFC13-4213-4775-A214-C31251F9A91A";
shapes = (
{
closed = 1;
nodes = (
(536,0,l),
(542,45,l),
(75,45,l),
(626,715,l),
(630,745,l),
(127,745,l),
(121,700,l),
(552,700,l),
(0,30,l),
(-4,0,l)
);
}
);
width = 606;
}
);
unicode = 90;
},
{
color = 4;
glyphname = a;
kernLeft = a;
kernRight = a;
lastChange = "2021-11-11 12:19:03 +0000";
layers = (
{
anchors = (
{
name = bottom;
pos = (254,0);
},
{
name = ogonek;
pos = (460,0);
},
{
name = top;
pos = (330,546);
}
);
layerId = "9D27F576-B54C-4464-AC1E-5B62749637F3";
shapes = (
{
closed = 1;
nodes = (
(281,-12,o),
(345,18,o),
(401,91,c),
(361,88,l),
(349,0,l),
(490,0,l),
(539,353,ls),
(556,474,o),
(452,558,o),
(315,558,cs),
(202,558,o),
(104,504,o),
(62,413,c),
(178,350,l),
(201,398,o),
(249,433,o),
(306,433,cs),
(354,433,o),
(395,405,o),
(389,360,cs),
(370,221,ls),
(361,154,o),
(308,98,o),
(235,98,cs),
(198,98,o),
(171,113,o),
(171,146,cs),
(171,184,o),
(205,204,o),
(247,212,cs),
(387,238,l),
(398,348,l),
(226,321,ls),
(106,302,o),
(16,245,o),
(16,137,cs),
(16,40,o),
(88,-12,o),
(198,-12,cs)
);
}
);
width = 583;
},
{
anchors = (
{
name = bottom;
pos = (249,0);
},
{
name = ogonek;
pos = (420,0);
},
{
name = top;
pos = (325,536);
}
);
layerId = "F445EC8D-29E3-46C7-99DD-9E4BBA6B70C5";
shapes = (
{
closed = 1;
nodes = (
(295,-12,o),
(373,31,o),
(410,94,c),
(397,107,l),
(382,0,l),
(458,0,l),
(508,356,ls),
(524,469,o),
(436,548,o),
(321,548,cs),
(222,548,o),
(135,495,o),
(98,427,c),
(163,386,l),
(193,438,o),
(248,476,o),
(316,476,cs),
(382,476,o),
(443,439,o),
(432,359,cs),
(415,234,ls),
(402,135,o),
(319,56,o),
(219,56,cs),
(158,56,o),
(118,88,o),
(118,138,cs),
(118,191,o),
(164,230,o),
(240,243,cs),
(434,275,l),
(441,343,l),
(226,308,ls),
(108,289,o),
(38,224,o),
(38,134,cs),
(38,36,o),
(121,-12,o),
(209,-12,cs)
);
}
);
width = 573;
},
{
anchors = (
{
name = bottom;
pos = (250,0);
},
{
name = ogonek;
pos = (426,0);
},
{
name = top;
pos = (324,526);
}
);
layerId = "1C1CFC13-4213-4775-A214-C31251F9A91A";
shapes = (
{
closed = 1;
nodes = (
(308,-12,o),
(392,49,o),
(426,115,c),
(419,115,l),
(403,0,l),
(448,0,l),
(497,350,ls),
(513,462,o),
(428,538,o),
(316,538,cs),
(223,538,o),
(141,485,o),
(105,426,c),
(144,403,l),
(182,458,o),
(247,495,o),
(317,495,cs),
(406,495,o),
(465,442,o),
(453,356,cs),
(438,250,ls),
(421,129,o),
(333,30,o),
(212,30,cs),
(143,30,o),
(94,62,o),
(94,126,cs),
(94,197,o),
(155,244,o),
(249,259,cs),
(457,293,l),
(461,336,l),
(236,299,ls),
(124,281,o),
(48,217,o),
(48,126,cs),
(48,40,o),
(117,-12,o),
(208,-12,cs)
);
}
);
width = 573;
}
);
unicode = 97;
},
{
color = 4;
glyphname = a.ss01;
kernLeft = a;
kernRight = a;
lastChange = "2021-11-11 09:50:22 +0000";
layers = (
{
anchors = (
{
name = bottom;
pos = (254,0);
},
{
name = ogonek;
pos = (461,0);
},
{
name = top;
pos = (330,546);
}
);
layerId = "9D27F576-B54C-4464-AC1E-5B62749637F3";
shapes = (
{
closed = 1;
nodes = (
(281,-12,o),
(345,18,o),
(401,91,c),
(362,88,l),
(350,0,l),
(491,0,l),
(567,546,l),
(132,546,l),
(114,416,l),
(397,416,l),
(370,221,ls),
(361,154,o),
(308,98,o),
(235,98,cs),
(198,98,o),
(171,113,o),
(171,146,cs),
(171,184,o),
(205,204,o),
(247,212,cs),
(387,238,l),
(398,348,l),
(226,321,ls),
(106,302,o),
(16,245,o),
(16,137,cs),
(16,40,o),
(88,-12,o),
(198,-12,cs)
);
}
);
width = 584;
},
{
anchors = (
{
name = bottom;
pos = (249,0);
},
{
name = ogonek;
pos = (420,0);
},
{
name = top;
pos = (325,536);
}
);
layerId = "F445EC8D-29E3-46C7-99DD-9E4BBA6B70C5";
shapes = (
{
closed = 1;
nodes = (
(295,-12,o),
(373,31,o),
(410,94,c),
(397,107,l),
(382,0,l),
(458,0,l),
(533,536,l),
(143,536,l),
(132,461,l),
(447,461,l),
(415,234,ls),
(401,135,o),
(319,56,o),
(219,56,cs),
(158,56,o),
(118,88,o),
(118,138,cs),
(118,191,o),
(164,230,o),
(240,243,cs),
(434,275,l),
(441,343,l),
(226,308,ls),
(108,289,o),
(38,224,o),
(38,134,cs),
(38,36,o),
(121,-12,o),
(209,-12,cs)
);
}
);
width = 573;
},
{
anchors = (
{
name = bottom;
pos = (250,0);
},
{
name = ogonek;
pos = (426,0);
},
{
name = top;
pos = (324,526);
}
);
layerId = "1C1CFC13-4213-4775-A214-C31251F9A91A";
shapes = (
{
closed = 1;
nodes = (
(308,-12,o),
(392,49,o),
(426,115,c),
(419,115,l),
(403,0,l),
(448,0,l),
(522,526,l),
(149,526,l),
(143,486,l),
(471,486,l),
(438,250,ls),
(421,129,o),
(333,30,o),
(212,30,cs),
(143,30,o),
(94,62,o),
(94,126,cs),
(94,197,o),
(155,244,o),
(249,259,cs),
(457,293,l),
(461,336,l),
(236,299,ls),
(124,281,o),
(48,217,o),
(48,126,cs),
(48,40,o),
(117,-12,o),
(208,-12,cs)
);
}
);
width = 573;
}
);
metricLeft = "=a";
metricRight = "=|n";
},
{
color = 4;
glyphname = a.ss02;
kernLeft = a;
kernRight = a;
lastChange = "2021-11-10 07:58:16 +0000";
layers = (
{
anchors = (
{
name = bottom;
pos = (254,0);
},
{
name = ogonek;
pos = (460,0);
},
{
name = top;
pos = (330,546);
}
);
layerId = "9D27F576-B54C-4464-AC1E-5B62749637F3";
shapes = (
{
closed = 1;
nodes = (
(281,-12,o),
(345,18,o),
(401,91,c),
(361,88,l),
(349,0,l),
(550,0,l),
(566,120,l),
(507,120,l),
(539,353,ls),
(556,474,o),
(452,558,o),
(315,558,cs),
(202,558,o),
(104,504,o),
(62,413,c),
(178,350,l),
(201,398,o),
(249,433,o),
(306,433,cs),
(354,433,o),
(395,405,o),
(389,360,cs),
(370,221,ls),
(361,154,o),
(308,98,o),
(235,98,cs),
(198,98,o),
(171,113,o),
(171,146,cs),
(171,184,o),
(205,204,o),
(247,212,cs),
(387,238,l),
(398,348,l),
(226,321,ls),
(106,302,o),
(16,245,o),
(16,137,cs),
(16,40,o),
(88,-12,o),
(198,-12,cs)
);
}
);
width = 616;
},
{
anchors = (
{
name = bottom;
pos = (249,0);
},
{
name = ogonek;
pos = (420,0);
},
{
name = top;
pos = (325,536);
}
);
layerId = "F445EC8D-29E3-46C7-99DD-9E4BBA6B70C5";
shapes = (
{
closed = 1;
nodes = (
(295,-12,o),
(373,31,o),
(410,94,c),
(397,107,l),
(382,0,l),
(517,0,l),
(527,70,l),
(467,70,l),
(508,356,ls),
(524,469,o),
(436,548,o),
(321,548,cs),
(222,548,o),
(135,495,o),
(98,427,c),
(163,386,l),
(193,438,o),
(248,476,o),
(316,476,cs),
(382,476,o),
(443,439,o),
(432,359,cs),
(415,234,ls),
(402,135,o),
(319,56,o),
(219,56,cs),
(158,56,o),
(118,88,o),
(118,138,cs),
(118,191,o),
(164,230,o),
(240,243,cs),
(434,275,l),
(441,343,l),
(226,308,ls),
(108,289,o),
(38,224,o),
(38,134,cs),
(38,36,o),
(121,-12,o),
(209,-12,cs)
);
}
);
width = 594;
},
{
anchors = (
{
name = bottom;
pos = (250,0);
},
{
name = ogonek;
pos = (426,0);
},
{
name = top;
pos = (324,526);
}
);
layerId = "1C1CFC13-4213-4775-A214-C31251F9A91A";
shapes = (
{
closed = 1;
nodes = (
(308,-12,o),
(392,49,o),
(426,115,c),
(419,115,l),
(403,0,l),
(509,0,l),
(515,40,l),
(454,40,l),
(497,350,ls),
(513,462,o),
(428,538,o),
(316,538,cs),
(223,538,o),
(141,485,o),
(105,426,c),
(144,403,l),
(182,458,o),
(247,495,o),
(317,495,cs),
(406,495,o),
(465,442,o),
(453,356,cs),
(438,250,ls),
(421,129,o),
(333,30,o),
(212,30,cs),
(143,30,o),
(94,62,o),
(94,126,cs),
(94,197,o),
(155,244,o),
(249,259,cs),
(457,293,l),
(461,336,l),
(236,299,ls),
(124,281,o),
(48,217,o),
(48,126,cs),
(48,40,o),
(117,-12,o),
(208,-12,cs)
);
}
);
width = 590;
}
);
metricLeft = "=a";
metricRight = "=l/2";
},
{
color = 4;
glyphname = a.ss03;
kernLeft = a;
kernRight = a;
lastChange = "2021-11-11 09:51:14 +0000";
layers = (
{
anchors = (
{
name = bottom;
pos = (254,0);
},
{
name = ogonek;
pos = (460,0);
},
{
name = top;
pos = (330,546);
}
);
layerId = "9D27F576-B54C-4464-AC1E-5B62749637F3";
shapes = (
{
closed = 1;
nodes = (
(281,-12,o),
(345,18,o),
(401,91,c),
(361,88,l),
(349,0,l),
(490,0,l),
(536,328,ls),
(555,460,o),
(471,546,o),
(322,546,cs),
(132,546,l),
(114,416,l),
(311,416,ls),
(366,416,o),
(393,384,o),
(385,328,cs),
(370,221,ls),
(361,154,o),
(308,98,o),
(235,98,cs),
(198,98,o),
(171,113,o),
(171,146,cs),
(171,184,o),
(205,204,o),
(247,212,cs),
(387,238,l),
(398,348,l),
(226,321,ls),
(106,302,o),
(16,245,o),
(16,137,cs),
(16,40,o),
(88,-12,o),
(198,-12,cs)
);
}
);
width = 583;
},
{
anchors = (
{
name = bottom;
pos = (249,0);
},
{
name = ogonek;
pos = (420,0);
},
{
name = top;
pos = (325,536);
}
);
layerId = "F445EC8D-29E3-46C7-99DD-9E4BBA6B70C5";
shapes = (
{
closed = 1;
nodes = (
(295,-12,o),
(373,31,o),
(410,94,c),
(397,107,l),
(382,0,l),
(458,0,l),
(503,325,ls),
(521,458,o),
(449,536,o),
(309,536,cs),
(143,536,l),
(132,461,l),
(302,461,ls),
(397,461,o),
(439,412,o),
(428,329,cs),
(415,234,ls),
(401,135,o),
(319,56,o),
(219,56,cs),
(158,56,o),
(118,88,o),
(118,138,cs),
(118,191,o),
(164,230,o),
(240,243,cs),
(434,275,l),
(441,343,l),
(226,308,ls),
(108,289,o),
(38,224,o),
(38,134,cs),
(38,36,o),
(121,-12,o),
(209,-12,cs)
);
}
);
width = 573;
},
{
anchors = (
{
name = bottom;
pos = (250,0);
},
{
name = ogonek;
pos = (426,0);
},
{
name = top;
pos = (324,526);
}
);
layerId = "1C1CFC13-4213-4775-A214-C31251F9A91A";
shapes = (
{
closed = 1;
nodes = (
(308,-12,o),
(392,49,o),
(426,115,c),
(419,115,l),
(403,0,l),
(448,0,l),
(496,335,ls),
(512,448,o),
(445,526,o),
(322,526,cs),
(149,526,l),
(143,486,l),
(320,486,ls),
(416,486,o),
(464,428,o),
(451,339,cs),
(438,250,ls),
(420,129,o),
(333,30,o),
(212,30,cs),
(143,30,o),
(94,62,o),
(94,126,cs),
(94,197,o),
(155,244,o),
(249,259,cs),
(457,293,l),
(461,336,l),
(236,299,ls),
(124,281,o),
(48,217,o),
(48,126,cs),
(48,40,o),
(117,-12,o),
(208,-12,cs)
);
}
);
width = 573;
}
);
},
{
color = 4;
glyphname = ae;
kernLeft = a;
kernRight = e;
lastChange = "2021-11-11 09:41:25 +0000";
layers = (
{
anchors = (
{
name = bottom;
pos = (443,0);
},
{
name = top;
pos = (519,546);
}
);
layerId = "9D27F576-B54C-4464-AC1E-5B62749637F3";
shapes = (
{
closed = 1;
nodes = (
(275,-12,o),
(336,14,o),
(390,77,c),
(365,109,l),
(349,0,l),
(490,0,l),
(505,101,l),
(464,60,l),
(509,15,o),
(574,-12,o),
(654,-12,cs),
(764,-12,o),
(856,39,o),
(895,119,c),
(777,180,l),
(754,143,o),
(712,118,o),
(657,118,cs),
(586,118,o),
(543,159,o),
(538,231,c),
(921,231,l),
(928,260,o),
(932,285,o),
(932,310,cs),
(932,451,o),
(842,558,o),
(676,558,cs),
(590,558,o),
(515,522,o),
(461,463,c),
(517,462,l),
(482,522,o),
(406,558,o),
(315,558,cs),
(202,558,o),
(104,504,o),
(62,413,c),
(178,350,l),
(201,398,o),
(249,433,o),
(306,433,cs),
(354,433,o),
(395,405,o),
(389,360,cs),
(387,346,l),
(226,321,ls),
(106,302,o),
(16,245,o),
(16,137,cs),
(16,40,o),
(88,-12,o),
(198,-12,cs)
);
},
{
closed = 1;
nodes = (
(198,98,o),
(171,113,o),
(171,146,cs),
(171,184,o),
(205,204,o),
(247,212,cs),
(372,235,l),
(370,221,ls),
(361,154,o),
(308,98,o),
(235,98,cs)
);
},
{
closed = 1;
nodes = (
(567,398,o),
(606,438,o),
(675,438,cs),
(736,438,o),
(775,398,o),
(776,341,c),
(549,341,l)
);
}
);
width = 962;
},
{
anchors = (
{
name = bottom;
pos = (454,0);
},
{
name = top;
pos = (530,536);
}
);
layerId = "F445EC8D-29E3-46C7-99DD-9E4BBA6B70C5";
shapes = (
{
closed = 1;
nodes = (
(292,-12,o),
(366,27,o),
(406,86,c),
(397,104,l),
(382,0,l),
(458,0,l),
(476,125,l),
(458,109,l),
(500,34,o),
(578,-12,o),
(672,-12,cs),
(780,-12,o),
(870,48,o),
(908,121,c),
(845,157,l),
(808,101,o),
(752,58,o),
(673,58,cs),
(573,58,o),
(500,128,o),
(501,245,c),
(923,245,l),
(926,259,o),
(931,289,o),
(931,310,cs),
(931,432,o),
(847,548,o),
(699,548,cs),
(607,548,o),
(529,503,o),
(479,433,c),
(502,431,l),
(481,502,o),
(409,548,o),
(321,548,cs),
(222,548,o),
(135,495,o),
(98,427,c),
(163,386,l),
(193,438,o),
(248,476,o),
(316,476,cs),
(382,476,o),
(441,439,o),
(432,359,cs),
(430,341,l),
(226,308,ls),
(108,289,o),
(38,224,o),
(38,134,cs),
(38,36,o),
(121,-12,o),
(209,-12,cs)
);
},
{
closed = 1;
nodes = (
(158,56,o),
(118,88,o),
(118,138,cs),
(118,191,o),
(164,230,o),
(240,243,cs),
(420,273,l),
(415,234,ls),
(402,135,o),
(319,56,o),
(219,56,cs)
);
},
{
closed = 1;
nodes = (
(531,415,o),
(595,478,o),
(698,478,cs),
(790,478,o),
(860,407,o),
(852,315,c),
(509,315,l)
);
}
);
width = 984;
},
{
anchors = (
{
name = bottom;
pos = (466,0);
},
{
name = top;
pos = (540,526);
}
);
layerId = "1C1CFC13-4213-4775-A214-C31251F9A91A";
shapes = (
{
closed = 1;
nodes = (
(309,-12,o),
(393,51,o),
(427,116,c),
(422,135,l),
(403,0,l),
(448,0,l),
(472,170,l),
(458,157,l),
(491,56,o),
(580,-12,o),
(693,-12,cs),
(786,-12,o),
(871,35,o),
(915,112,c),
(878,134,l),
(836,69,o),
(769,30,o),
(692,30,cs),
(574,30,o),
(489,116,o),
(489,249,c),
(936,249,l),
(940,266,o),
(943,287,o),
(943,306,cs),
(943,439,o),
(849,538,o),
(718,538,cs),
(616,538,o),
(530,479,o),
(483,393,c),
(499,390,l),
(492,480,o),
(414,538,o),
(316,538,cs),
(223,538,o),
(141,485,o),
(105,426,c),
(144,403,l),
(182,458,o),
(247,495,o),
(317,495,cs),
(406,495,o),
(465,442,o),
(453,356,cs),
(450,334,l),
(236,299,ls),
(124,281,o),
(48,217,o),
(48,126,cs),
(48,40,o),
(117,-12,o),
(208,-12,cs)
);
},
{
closed = 1;
nodes = (
(143,30,o),
(94,62,o),
(94,126,cs),
(94,197,o),
(155,244,o),
(249,259,cs),
(444,291,l),
(438,250,ls),
(421,129,o),
(333,30,o),
(212,30,cs)
);
},
{
closed = 1;
nodes = (
(513,403,o),
(604,496,o),
(719,496,cs),
(829,496,o),
(905,409,o),
(896,289,c),
(493,289,l)
);
}
);
width = 1005;
}
);
metricLeft = "=a";
metricRight = "=e";
unicode = 230;
},
{
color = 4;
glyphname = b;
kernLeft = h;
kernRight = o;
lastChange = "2021-11-11 09:41:25 +0000";
layers = (
{
anchors = (
{
name = bottom;
pos = (298,0);
},
{
name = top;
pos = (408,784);
}
);
layerId = "9D27F576-B54C-4464-AC1E-5B62749637F3";
shapes = (
{
closed = 1;
nodes = (
(507,-12,o),
(638,124,o),
(638,290,cs),
(638,442,o),
(526,558,o),
(375,558,cs),
(297,558,o),
(232,529,o),
(192,474,c),
(231,442,l),
(274,757,l),
(123,757,l),
(17,0,l),
(159,0,l),
(172,100,l),
(154,71,l),
(191,18,o),
(261,-12,o),
(342,-12,cs)
);
},
{
closed = 1;
nodes = (
(251,123,o),
(202,176,o),
(202,255,cs),
(202,348,o),
(264,423,o),
(354,423,cs),
(431,423,o),
(482,368,o),
(482,290,cs),
(482,196,o),
(418,123,o),
(326,123,cs)
);
}
);
width = 672;
},
{
anchors = (
{
name = bottom;
pos = (295,0);
},
{
name = top;
pos = (406,784);
}
);
layerId = "F445EC8D-29E3-46C7-99DD-9E4BBA6B70C5";
shapes = (
{
closed = 1;
nodes = (
(490,-12,o),
(611,125,o),
(611,289,cs),
(611,434,o),
(513,548,o),
(363,548,cs),
(272,548,o),
(196,506,o),
(149,438,c),
(174,416,l),
(222,757,l),
(146,757,l),
(40,0,l),
(116,0,l),
(132,120,l),
(117,110,l),
(152,34,o),
(234,-12,o),
(328,-12,cs)
);
},
{
closed = 1;
nodes = (
(224,63,o),
(150,143,o),
(150,253,cs),
(150,371,o),
(235,473,o),
(354,473,cs),
(459,473,o),
(531,394,o),
(531,287,cs),
(531,166,o),
(443,63,o),
(326,63,cs)
);
}
);
width = 666;
},
{
anchors = (
{
name = bottom;
pos = (301,0);
},
{
name = top;
pos = (411,784);
}
);
layerId = "1C1CFC13-4213-4775-A214-C31251F9A91A";
shapes = (
{
closed = 1;
nodes = (
(487,-12,o),
(610,120,o),
(610,284,cs),
(610,429,o),
(509,538,o),
(368,538,cs),
(268,538,o),
(179,482,o),
(135,395,c),
(150,377,l),
(203,757,l),
(158,757,l),
(52,0,l),
(98,0,l),
(118,149,l),
(110,141,l),
(146,46,o),
(231,-12,o),
(333,-12,cs)
);
},
{
closed = 1;
nodes = (
(218,33,o),
(136,120,o),
(136,242,cs),
(136,378,o),
(235,493,o),
(368,493,cs),
(479,493,o),
(562,410,o),
(562,286,cs),
(562,148,o),
(467,33,o),
(332,33,cs)
);
}
);
width = 676;
}
);
unicode = 98;
},
{
color = 4;
glyphname = c;
kernLeft = o;
kernRight = c;
lastChange = "2021-11-11 12:19:05 +0000";
layers = (
{
anchors = (
{
name = bottom;
pos = (311,0);
},
{
name = top;
pos = (349,546);
}
);
layerId = "9D27F576-B54C-4464-AC1E-5B62749637F3";
shapes = (
{
closed = 1;
nodes = (
(431,-12,o),
(534,56,o),
(572,153,c),
(445,214,l),
(422,159,o),
(373,123,o),
(311,123,cs),
(238,123,o),
(190,177,o),
(190,257,cs),
(190,345,o),
(249,423,o),
(339,423,cs),
(396,423,o),
(440,391,o),
(455,336,c),
(588,388,l),
(562,489,o),
(465,558,o),
(341,558,cs),
(171,558,o),
(34,426,o),
(34,257,cs),
(34,103,o),
(150,-12,o),
(309,-12,cs)
);
}
);
width = 622;
},
{
anchors = (
{
name = bottom;
pos = (302,0);
},
{
name = top;
pos = (344,536);
}
);
layerId = "F445EC8D-29E3-46C7-99DD-9E4BBA6B70C5";
shapes = (
{
closed = 1;
nodes = (
(405,-12,o),
(495,44,o),
(537,124,c),
(471,163,l),
(439,103,o),
(379,63,o),
(307,63,cs),
(208,63,o),
(136,141,o),
(136,249,cs),
(136,367,o),
(221,473,o),
(339,473,cs),
(410,473,o),
(464,434,o),
(487,377,c),
(556,410,l),
(525,492,o),
(441,548,o),
(338,548,cs),
(180,548,o),
(56,418,o),
(56,249,cs),
(56,98,o),
(156,-12,o),
(301,-12,cs)
);
}
);
width = 612;
},
{
anchors = (
{
name = bottom;
pos = (311,0);
},
{
name = top;
pos = (345,526);
}
);
layerId = "1C1CFC13-4213-4775-A214-C31251F9A91A";
shapes = (
{
closed = 1;
nodes = (
(408,-12,o),
(491,41,o),
(532,112,c),
(495,134,l),
(453,68,o),
(388,30,o),
(311,30,cs),
(200,30,o),
(111,109,o),
(111,241,cs),
(111,381,o),
(210,496,o),
(347,496,cs),
(423,496,o),
(482,460,o),
(514,394,c),
(553,413,l),
(521,484,o),
(445,538,o),
(347,538,cs),
(192,538,o),
(66,406,o),
(66,243,cs),
(66,93,o),
(174,-12,o),
(311,-12,cs)
);
}
);
width = 619;
},
{
associatedMasterId = "1C1CFC13-4213-4775-A214-C31251F9A91A";
background = {
anchors = (
{
name = bottom;
pos = (298,0);
},
{
name = top;
pos = (272,526);
}
);
shapes = (
{
closed = 1;
nodes = (
(396,-12,o),
(482,48,o),
(515,121,c),
(451,156,l),
(423,97,o),
(369,58,o),
(298,58,cs),
(193,58,o),
(114,147,o),
(114,263,cs),
(114,381,o),
(193,468,o),
(298,468,cs),
(369,468,o),
(423,429,o),
(451,371,c),
(515,405,l),
(482,479,o),
(397,538,o),
(298,538,cs),
(149,538,o),
(39,422,o),
(39,264,cs),
(39,106,o),
(149,-12,o),
(298,-12,cs)
);
}
);
};
layerId = "80DBEC3A-18A3-45AD-A4B6-A6658D69CD24";
name = "Nov 23 20, 19:44";
shapes = (
{
closed = 1;
nodes = (
(400,-12,o),
(486,41,o),
(523,119,c),
(483,140,l),
(450,74,o),
(384,32,o),
(305,32,cs),
(182,32,o),
(90,130,o),
(90,263,cs),
(90,396,o),
(183,496,o),
(305,496,cs),
(382,496,o),
(450,451,o),
(482,386,c),
(523,407,l),
(486,485,o),
(401,538,o),
(305,538,cs),
(154,538,o),
(45,420,o),
(45,263,cs),
(45,108,o),
(155,-12,o),
(305,-12,cs)
);
}
);
width = 545;
}
);
unicode = 99;
},
{
color = 4;
glyphname = d;
kernLeft = o;
kernRight = d;
lastChange = "2021-11-11 09:59:57 +0000";
layers = (
{
anchors = (
{
name = bottom;
pos = (297,0);
},
{
name = center;
pos = (589,640);
},
{
name = top;
pos = (407,784);
},
{
name = topright;
pos = (708,546);
}
);
layerId = "9D27F576-B54C-4464-AC1E-5B62749637F3";
shapes = (
{
closed = 1;
nodes = (
(370,-12,o),
(440,17,o),
(480,77,c),
(448,100,l),
(435,0,l),
(576,0,l),
(682,757,l),
(530,757,l),
(487,442,l),
(521,470,l),
(486,525,o),
(421,558,o),
(339,558,cs),
(175,558,o),
(33,436,o),
(33,247,cs),
(33,94,o),
(138,-12,o),
(295,-12,cs)
);
},
{
closed = 1;
nodes = (
(240,123,o),
(189,177,o),
(189,256,cs),
(189,351,o),
(254,423,o),
(345,423,cs),
(420,423,o),
(469,367,o),
(469,291,cs),
(469,197,o),
(408,123,o),
(317,123,cs)
);
}
);
width = 669;
},
{
anchors = (
{
name = bottom;
pos = (297,0);
},
{
name = center;
pos = (605,640);
},
{
name = top;
pos = (408,784);
},
{
name = topright;
pos = (707,536);
}
);
layerId = "F445EC8D-29E3-46C7-99DD-9E4BBA6B70C5";
shapes = (
{
closed = 1;
nodes = (
(393,-12,o),
(475,31,o),
(517,108,c),
(495,120,l),
(479,0,l),
(554,0,l),
(659,757,l),
(583,757,l),
(536,416,l),
(546,432,l),
(507,504,o),
(435,548,o),
(337,548,cs),
(175,548,o),
(55,413,o),
(55,247,cs),
(55,97,o),
(157,-12,o),
(302,-12,cs)
);
},
{
closed = 1;
nodes = (
(206,63,o),
(135,141,o),
(135,247,cs),
(135,369,o),
(221,473,o),
(340,473,cs),
(442,473,o),
(517,393,o),
(517,286,cs),
(517,167,o),
(425,63,o),
(307,63,cs)
);
}
);
width = 669;
},
{
anchors = (
{
name = bottom;
pos = (301,0);
},
{
name = center;
pos = (616,640);
},
{
name = top;
pos = (411,784);
},
{
name = topright;
pos = (712,526);
}
);
layerId = "1C1CFC13-4213-4775-A214-C31251F9A91A";
shapes = (
{
closed = 1;
nodes = (
(409,-12,o),
(498,44,o),
(543,131,c),
(525,149,l),
(505,0,l),
(550,0,l),
(656,757,l),
(610,757,l),
(557,377,l),
(564,387,l),
(532,480,o),
(446,538,o),
(344,538,cs),
(188,538,o),
(66,403,o),
(66,244,cs),
(66,102,o),
(164,-12,o),
(309,-12,cs)
);
},
{
closed = 1;
nodes = (
(193,33,o),
(114,120,o),
(114,241,cs),
(114,378,o),
(211,493,o),
(344,493,cs),
(453,493,o),
(540,412,o),
(540,286,cs),
(540,147,o),
(442,33,o),
(308,33,cs)
);
}
);
width = 675;
}
);
unicode = 100;
},
{
color = 4;
glyphname = eth;
kernLeft = o;
kernRight = o;
lastChange = "2021-11-11 09:41:25 +0000";
layers = (
{
layerId = "9D27F576-B54C-4464-AC1E-5B62749637F3";
shapes = (
{
closed = 1;
nodes = (
(515,-12,o),
(625,151,o),
(625,365,cs),
(625,599,o),
(495,796,o),
(261,796,cs),
(218,796,o),
(169,789,o),
(118,772,c),
(128,650,l),
(161,660,o),
(195,666,o),
(229,666,cs),
(360,666,o),
(479,581,o),
(474,438,c),
(496,465,l),
(458,525,o),
(405,548,o),
(333,548,cs),
(167,548,o),
(33,418,o),
(33,252,cs),
(33,96,o),
(155,-12,o),
(303,-12,cs)
);
},
{
closed = 1;
nodes = (
(238,123,o),
(188,176,o),
(188,254,cs),
(188,340,o),
(249,413,o),
(341,413,cs),
(419,413,o),
(465,359,o),
(465,287,cs),
(465,196,o),
(401,123,o),
(313,123,cs)
);
},
{
closed = 1;
nodes = (
(600,693,l),
(603,753,l),
(240,615,l),
(236,555,l)
);
}
);
width = 651;
},
{
layerId = "F445EC8D-29E3-46C7-99DD-9E4BBA6B70C5";
shapes = (
{
closed = 1;
nodes = (
(536,-12,o),
(637,144,o),
(637,357,cs),
(637,582,o),
(516,795,o),
(265,795,cs),
(222,795,o),
(175,787,o),
(126,771,c),
(139,704,l),
(180,718,o),
(221,725,o),
(261,725,cs),
(438,725,o),
(571,568,o),
(549,395,c),
(571,437,l),
(530,514,o),
(446,538,o),
(376,538,cs),
(211,538,o),
(86,409,o),
(86,245,cs),
(86,97,o),
(189,-12,o),
(338,-12,cs)
);
},
{
closed = 1;
nodes = (
(244,63,o),
(165,140,o),
(165,247,cs),
(165,365,o),
(258,463,o),
(375,463,cs),
(482,463,o),
(552,384,o),
(552,282,cs),
(552,166,o),
(459,63,o),
(343,63,cs)
);
},
{
closed = 1;
nodes = (
(602,696,l),
(606,756,l),
(300,647,l),
(296,588,l)
);
}
);
width = 686;
},
{
layerId = "1C1CFC13-4213-4775-A214-C31251F9A91A";
shapes = (
{
closed = 1;
nodes = (
(526,-12,o),
(627,140,o),
(627,339,cs),
(627,560,o),
(502,796,o),
(257,796,cs),
(219,796,o),
(179,790,o),
(138,778,c),
(151,736,l),
(187,748,o),
(221,753,o),
(253,753,cs),
(442,753,o),
(585,562,o),
(579,349,c),
(600,363,l),
(559,487,o),
(465,528,o),
(374,528,cs),
(213,528,o),
(90,401,o),
(90,239,cs),
(90,96,o),
(193,-12,o),
(343,-12,cs)
);
},
{
closed = 1;
nodes = (
(225,31,o),
(138,119,o),
(138,239,cs),
(138,374,o),
(241,485,o),
(374,485,cs),
(493,485,o),
(574,396,o),
(574,280,cs),
(574,146,o),
(478,31,o),
(338,31,cs)
);
},
{
closed = 1;
nodes = (
(582,684,l),
(585,727,l),
(302,630,l),
(299,588,l)
);
}
);
width = 688;
}
);
metricLeft = "=o";
metricRight = "=o";
unicode = 240;
},
{
color = 4;
glyphname = e;
kernLeft = o;
kernRight = e;
lastChange = "2021-11-11 09:51:36 +0000";
layers = (
{
anchors = (
{
name = bottom;
pos = (268,0);
},
{
name = ogonek;
pos = (370,0);
},
{
name = top;
pos = (344,546);
}
);
layerId = "9D27F576-B54C-4464-AC1E-5B62749637F3";
shapes = (
{
closed = 1;
nodes = (
(414,-12,o),
(506,39,o),
(545,119,c),
(427,180,l),
(404,143,o),
(362,118,o),
(307,118,cs),
(231,118,o),
(187,165,o),
(187,248,cs),
(187,351,o),
(223,438,o),
(325,438,cs),
(403,438,o),
(444,374,o),
(418,291,c),
(493,341,l),
(169,341,l),
(161,231,l),
(571,231,l),
(578,260,o),
(582,285,o),
(582,310,cs),
(582,451,o),
(492,558,o),
(326,558,cs),
(161,558,o),
(34,422,o),
(34,255,cs),
(34,106,o),
(137,-12,o),
(304,-12,cs)
);
}
);
width = 612;
},
{
anchors = (
{
name = bottom;
pos = (271,0);
},
{
name = ogonek;
pos = (372,0);
},
{
name = top;
pos = (347,536);
}
);
layerId = "F445EC8D-29E3-46C7-99DD-9E4BBA6B70C5";
shapes = (
{
closed = 1;
nodes = (
(413,-12,o),
(503,48,o),
(541,121,c),
(478,157,l),
(441,101,o),
(385,58,o),
(306,58,cs),
(214,58,o),
(134,125,o),
(134,232,cs),
(134,378,o),
(202,478,o),
(331,478,cs),
(433,478,o),
(507,391,o),
(480,286,c),
(518,315,l),
(108,315,l),
(103,245,l),
(556,245,l),
(559,259,o),
(564,289,o),
(564,310,cs),
(564,432,o),
(480,548,o),
(332,548,cs),
(173,548,o),
(56,412,o),
(56,249,cs),
(56,97,o),
(161,-12,o),
(305,-12,cs)
);
}
);
width = 617;
},
{
anchors = (
{
name = bottom;
pos = (277,0);
},
{
name = ogonek;
pos = (379,0);
},
{
name = top;
pos = (351,526);
}
);
layerId = "1C1CFC13-4213-4775-A214-C31251F9A91A";
shapes = (
{
closed = 1;
nodes = (
(409,-12,o),
(494,35,o),
(538,112,c),
(501,134,l),
(459,69,o),
(392,30,o),
(315,30,cs),
(196,30,o),
(112,120,o),
(112,242,cs),
(112,376,o),
(212,496,o),
(342,496,cs),
(456,496,o),
(533,403,o),
(518,277,c),
(536,289,l),
(93,289,l),
(90,249,l),
(559,249,l),
(563,266,o),
(566,287,o),
(566,306,cs),
(566,439,o),
(472,538,o),
(341,538,cs),
(186,538,o),
(67,402,o),
(67,245,cs),
(67,99,o),
(172,-12,o),
(316,-12,cs)
);
}
);
width = 628;
}
);
unicode = 101;
},
{
color = 4;
glyphname = e.ss03;
kernLeft = o;
kernRight = e;
lastChange = "2021-11-10 07:58:16 +0000";
layers = (
{
anchors = (
{
name = bottom;
pos = (268,0);
},
{
name = ogonek;
pos = (369,0);
},
{
name = top;
pos = (344,546);
}
);
layerId = "9D27F576-B54C-4464-AC1E-5B62749637F3";
shapes = (
{
closed = 1;
nodes = (
(500,-12,l),
(518,118,l),
(327,118,ls),
(231,118,o),
(187,165,o),
(187,248,cs),
(187,351,o),
(223,438,o),
(325,438,cs),
(403,438,o),
(444,374,o),
(418,291,c),
(493,341,l),
(169,341,l),
(161,231,l),
(571,231,l),
(578,260,o),
(582,285,o),
(582,310,cs),
(582,451,o),
(492,558,o),
(326,558,cs),
(161,558,o),
(34,422,o),
(34,255,cs),
(34,106,o),
(137,-12,o),
(324,-12,cs)
);
}
);
width = 612;
},
{
anchors = (
{
name = bottom;
pos = (271,0);
},
{
name = ogonek;
pos = (372,0);
},
{
name = top;
pos = (347,536);
}
);
layerId = "F445EC8D-29E3-46C7-99DD-9E4BBA6B70C5";
shapes = (
{
closed = 1;
nodes = (
(512,-12,l),
(521,58,l),
(326,58,ls),
(214,58,o),
(134,125,o),
(134,232,cs),
(134,378,o),
(202,478,o),
(331,478,cs),
(433,478,o),
(507,391,o),
(480,286,c),
(518,315,l),
(108,315,l),
(103,245,l),
(556,245,l),
(559,259,o),
(564,289,o),
(564,310,cs),
(564,432,o),
(480,548,o),
(332,548,cs),
(173,548,o),
(56,412,o),
(56,249,cs),
(56,97,o),
(161,-12,o),
(325,-12,cs)
);
}
);
width = 615;
},
{
anchors = (
{
name = bottom;
pos = (277,0);
},
{
name = ogonek;
pos = (379,0);
},
{
name = top;
pos = (351,526);
}
);
layerId = "1C1CFC13-4213-4775-A214-C31251F9A91A";
shapes = (
{
closed = 1;
nodes = (
(503,-12,l),
(509,30,l),
(335,30,ls),
(196,30,o),
(112,120,o),
(112,242,cs),
(112,376,o),
(212,496,o),
(342,496,cs),
(456,496,o),
(533,403,o),
(518,277,c),
(536,289,l),
(93,289,l),
(90,249,l),
(559,249,l),
(563,266,o),
(566,287,o),
(566,306,cs),
(566,439,o),
(472,538,o),
(341,538,cs),
(186,538,o),
(67,402,o),
(67,245,cs),
(67,99,o),
(172,-12,o),
(336,-12,cs)
);
}
);
width = 628;
}
);
},
{
color = 4;
glyphname = schwa;
kernLeft = o;
kernRight = o;
lastChange = "2021-11-11 09:41:25 +0000";
layers = (
{
layerId = "9D27F576-B54C-4464-AC1E-5B62749637F3";
shapes = (
{
closed = 1;
nodes = (
(451,-12,o),
(578,124,o),
(578,291,cs),
(578,440,o),
(475,558,o),
(308,558,cs),
(198,558,o),
(106,507,o),
(67,427,c),
(185,366,l),
(208,403,o),
(250,428,o),
(305,428,cs),
(381,428,o),
(425,381,o),
(425,298,cs),
(425,195,o),
(389,108,o),
(287,108,cs),
(209,108,o),
(168,172,o),
(194,255,c),
(119,205,l),
(443,205,l),
(451,315,l),
(41,315,l),
(34,286,o),
(30,261,o),
(30,236,cs),
(30,95,o),
(120,-12,o),
(286,-12,cs)
);
}
);
width = 612;
},
{
layerId = "F445EC8D-29E3-46C7-99DD-9E4BBA6B70C5";
shapes = (
{
closed = 1;
nodes = (
(444,-12,o),
(561,124,o),
(561,287,cs),
(561,439,o),
(456,548,o),
(312,548,cs),
(204,548,o),
(114,488,o),
(76,415,c),
(139,379,l),
(176,435,o),
(232,478,o),
(311,478,cs),
(403,478,o),
(483,411,o),
(483,304,cs),
(483,158,o),
(415,58,o),
(286,58,cs),
(184,58,o),
(110,145,o),
(137,250,c),
(99,221,l),
(509,221,l),
(514,291,l),
(61,291,l),
(58,277,o),
(53,247,o),
(53,226,cs),
(53,104,o),
(137,-12,o),
(285,-12,cs)
);
}
);
width = 617;
},
{
layerId = "1C1CFC13-4213-4775-A214-C31251F9A91A";
shapes = (
{
closed = 1;
nodes = (
(442,-12,o),
(561,124,o),
(561,281,cs),
(561,427,o),
(456,538,o),
(312,538,cs),
(219,538,o),
(134,491,o),
(90,414,c),
(127,392,l),
(169,457,o),
(236,496,o),
(313,496,cs),
(432,496,o),
(516,406,o),
(516,284,cs),
(516,150,o),
(416,30,o),
(286,30,cs),
(172,30,o),
(95,123,o),
(110,249,c),
(92,237,l),
(535,237,l),
(538,277,l),
(69,277,l),
(65,260,o),
(62,239,o),
(62,220,cs),
(62,87,o),
(156,-12,o),
(287,-12,cs)
);
}
);
width = 628;
}
);
metricLeft = "=|e";
metricRight = "=|e";
unicode = 601;
},
{
color = 4;
glyphname = f;
kernLeft = f;
kernRight = f;
lastChange = "2021-11-11 12:18:23 +0000";
layers = (
{
anchors = (
{
name = bottom;
pos = (169,0);
},
{
name = top;
pos = (279,784);
}
);
layerId = "9D27F576-B54C-4464-AC1E-5B62749637F3";
shapes = (
{
closed = 1;
nodes = (
(233,0,l),
(291,416,l),
(408,416,l),
(426,546,l),
(309,546,l),
(310,553,ls),
(318,607,o),
(353,627,o),
(413,627,cs),
(420,627,o),
(429,627,o),
(442,625,c),
(452,751,l),
(439,754,o),
(417,757,o),
(396,757,cs),
(264,757,o),
(182,686,o),
(161,558,cs),
(159,546,l),
(67,546,l),
(49,416,l),
(140,416,l),
(82,0,l)
);
}
);
width = 414;
},
{
anchors = (
{
name = bottom;
pos = (160,0);
},
{
name = top;
pos = (271,784);
}
);
layerId = "F445EC8D-29E3-46C7-99DD-9E4BBA6B70C5";
shapes = (
{
closed = 1;
nodes = (
(170,0,l),
(234,461,l),
(365,461,l),
(376,536,l),
(245,536,l),
(250,572,ls),
(262,658,o),
(316,687,o),
(382,687,cs),
(387,687,o),
(407,686,o),
(416,684,c),
(421,752,l),
(408,755,o),
(388,757,o),
(370,757,cs),
(283,757,o),
(193,698,o),
(175,576,cs),
(169,536,l),
(63,536,l),
(52,461,l),
(158,461,l),
(94,0,l)
);
}
);
width = 396;
},
{
anchors = (
{
name = bottom;
pos = (158,0);
},
{
name = top;
pos = (268,784);
}
);
layerId = "1C1CFC13-4213-4775-A214-C31251F9A91A";
shapes = (
{
closed = 1;
nodes = (
(151,0,l),
(219,486,l),
(352,486,l),
(358,526,l),
(224,526,l),
(232,580,ls),
(245,665,o),
(298,714,o),
(375,714,cs),
(384,714,o),
(398,713,o),
(409,711,c),
(410,753,l),
(401,756,o),
(388,757,o),
(370,757,cs),
(280,757,o),
(203,695,o),
(187,583,cs),
(179,526,l),
(71,526,l),
(65,486,l),
(174,486,l),
(106,0,l)
);
}
);
width = 389;
}
);
unicode = 102;
},
{
color = 4;
glyphname = f.ss01;
kernLeft = f;
kernRight = f;
lastChange = "2021-11-11 09:41:25 +0000";
layers = (
{
layerId = "9D27F576-B54C-4464-AC1E-5B62749637F3";
shapes = (
{
closed = 1;
nodes = (
(233,0,l),
(291,416,l),
(408,416,l),
(426,546,l),
(309,546,l),
(320,625,l),
(438,625,l),
(455,745,l),
(186,745,l),
(157,546,l),
(67,546,l),
(49,416,l),
(140,416,l),
(82,0,l)
);
}
);
width = 410;
},
{
layerId = "F445EC8D-29E3-46C7-99DD-9E4BBA6B70C5";
shapes = (
{
closed = 1;
nodes = (
(170,0,l),
(234,461,l),
(365,461,l),
(376,536,l),
(245,536,l),
(265,675,l),
(413,675,l),
(422,745,l),
(199,745,l),
(169,536,l),
(63,536,l),
(52,461,l),
(158,461,l),
(94,0,l)
);
}
);
width = 394;
},
{
layerId = "1C1CFC13-4213-4775-A214-C31251F9A91A";
shapes = (
{
closed = 1;
nodes = (
(151,0,l),
(219,486,l),
(352,486,l),
(358,526,l),
(225,526,l),
(250,705,l),
(406,705,l),
(411,745,l),
(210,745,l),
(180,526,l),
(71,526,l),
(65,486,l),
(174,486,l),
(106,0,l)
);
}
);
width = 387;
}
);
metricLeft = "=f";
metricRight = "=f";
},
{
color = 4;
glyphname = g;
kernLeft = o;
kernRight = g;
lastChange = "2021-11-11 09:41:25 +0000";
layers = (
{
anchors = (
{
name = bottom;
pos = (254,-240);
},
{
name = top;
pos = (364,546);
}
);
layerId = "9D27F576-B54C-4464-AC1E-5B62749637F3";
shapes = (
{
closed = 1;
nodes = (
(422,-220,o),
(541,-120,o),
(560,18,cs),
(633,546,l),
(492,546,l),
(476,427,l),
(508,461,l),
(471,525,o),
(400,558,o),
(317,558,cs),
(159,558,o),
(37,440,o),
(37,276,cs),
(37,131,o),
(139,27,o),
(287,27,cs),
(364,27,o),
(424,55,o),
(465,116,c),
(428,154,l),
(409,23,ls),
(400,-38,o),
(348,-85,o),
(275,-85,cs),
(211,-85,o),
(166,-58,o),
(159,-7,c),
(16,-48,l),
(35,-150,o),
(138,-220,o),
(264,-220,cs)
);
},
{
closed = 1;
nodes = (
(237,163,o),
(192,210,o),
(192,279,cs),
(192,360,o),
(252,423,o),
(333,423,cs),
(404,423,o),
(448,375,o),
(448,305,cs),
(448,227,o),
(393,163,o),
(309,163,cs)
);
}
);
width = 651;
},
{
anchors = (
{
name = bottom;
pos = (261,-240);
},
{
name = top;
pos = (370,536);
}
);
layerId = "F445EC8D-29E3-46C7-99DD-9E4BBA6B70C5";
shapes = (
{
closed = 1;
nodes = (
(412,-220,o),
(531,-129,o),
(550,10,cs),
(623,536,l),
(547,536,l),
(531,416,l),
(541,436,l),
(502,504,o),
(430,548,o),
(338,548,cs),
(178,548,o),
(57,417,o),
(57,259,cs),
(57,109,o),
(167,8,o),
(302,8,cs),
(390,8,o),
(472,51,o),
(514,128,c),
(492,140,l),
(474,12,ls),
(459,-96,o),
(367,-145,o),
(278,-145,cs),
(185,-145,o),
(136,-104,o),
(120,-57,c),
(50,-86,l),
(75,-164,o),
(153,-220,o),
(270,-220,cs)
);
},
{
closed = 1;
nodes = (
(211,83,o),
(137,159,o),
(137,262,cs),
(137,382,o),
(231,473,o),
(340,473,cs),
(442,473,o),
(513,395,o),
(513,293,cs),
(513,183,o),
(419,83,o),
(308,83,cs)
);
}
);
width = 663;
},
{
anchors = (
{
name = bottom;
pos = (263,-240);
},
{
name = top;
pos = (371,526);
}
);
layerId = "1C1CFC13-4213-4775-A214-C31251F9A91A";
shapes = (
{
closed = 1;
nodes = (
(410,-220,o),
(524,-124,o),
(542,2,cs),
(615,526,l),
(570,526,l),
(549,377,l),
(556,393,l),
(526,479,o),
(442,538,o),
(340,538,cs),
(188,538,o),
(68,409,o),
(68,255,cs),
(68,117,o),
(165,8,o),
(306,8,cs),
(406,8,o),
(492,64,o),
(536,151,c),
(520,169,l),
(498,7,ls),
(481,-117,o),
(371,-178,o),
(278,-178,cs),
(192,-178,o),
(129,-141,o),
(99,-75,c),
(60,-93,l),
(89,-164,o),
(165,-220,o),
(275,-220,cs)
);
},
{
closed = 1;
nodes = (
(191,53,o),
(116,140,o),
(116,252,cs),
(116,381,o),
(209,493,o),
(340,493,cs),
(454,493,o),
(532,407,o),
(532,294,cs),
(532,162,o),
(435,53,o),
(306,53,cs)
);
}
);
width = 667;
},
{
associatedMasterId = "9D27F576-B54C-4464-AC1E-5B62749637F3";
guides = (
{
pos = (245,27);
}
);
layerId = "36422917-9031-4902-B1BB-24A8D1428F60";
name = "Nov 30 20, 14:05";
shapes = (
{
closed = 1;
nodes = (
(383,23,ls),
(375,-38,o),
(321,-85,o),
(248,-85,cs),
(184,-85,o),
(139,-58,o),
(132,-7,c),
(-11,-48,l),
(8,-150,o),
(111,-220,o),
(237,-220,cs),
(395,-220,o),
(513,-120,o),
(532,18,cs),
(536,43,l),
(386,43,l)
);
}
);
width = 631;
},
{
associatedMasterId = "F445EC8D-29E3-46C7-99DD-9E4BBA6B70C5";
layerId = "93CA3938-7F08-44F2-A43D-DEF172223270";
name = "Nov 30 20, 14:15";
shapes = (
{
closed = 1;
nodes = (
(378,-220,o),
(496,-120,o),
(515,19,cs),
(588,536,l),
(513,536,l),
(497,416,l),
(510,435,l),
(477,503,o),
(409,548,o),
(320,548,cs),
(170,548,o),
(43,431,o),
(22,282,cs),
(1,129,o),
(99,8,o),
(252,8,cs),
(337,8,o),
(421,50,o),
(468,127,c),
(457,140,l),
(441,23,ls),
(426,-85,o),
(331,-145,o),
(232,-145,cs),
(149,-145,o),
(100,-104,o),
(86,-53,c),
(14,-86,l),
(39,-164,o),
(119,-220,o),
(232,-220,cs)
);
},
{
closed = 1;
nodes = (
(152,83,o),
(86,169,o),
(101,274,cs),
(116,383,o),
(212,473,o),
(321,473,cs),
(422,473,o),
(492,386,o),
(477,282,cs),
(462,174,o),
(363,83,o),
(258,83,cs)
);
}
);
width = 629;
},
{
associatedMasterId = "1C1CFC13-4213-4775-A214-C31251F9A91A";
layerId = "42626357-0875-4421-AAFE-11C188FE47A7";
name = "Nov 30 20, 14:21";
shapes = (
{
closed = 1;
nodes = (
(370,-220,o),
(483,-123,o),
(501,6,cs),
(575,526,l),
(530,526,l),
(509,377,l),
(521,392,l),
(494,479,o),
(419,538,o),
(316,538,cs),
(171,538,o),
(50,421,o),
(30,277,cs),
(9,129,o),
(101,8,o),
(250,8,cs),
(349,8,o),
(437,63,o),
(488,150,c),
(479,169,l),
(457,10,ls),
(439,-116,o),
(328,-178,o),
(235,-178,cs),
(149,-178,o),
(89,-141,o),
(59,-75,c),
(20,-93,l),
(49,-164,o),
(125,-220,o),
(235,-220,cs)
);
},
{
closed = 1;
nodes = (
(128,53,o),
(60,149,o),
(76,269,cs),
(94,393,o),
(194,493,o),
(318,493,cs),
(437,493,o),
(509,398,o),
(492,277,cs),
(474,152,o),
(371,53,o),
(248,53,cs)
);
}
);
width = 630;
}
);
unicode = 103;
},
{
color = 4;
glyphname = g.ss01;
kernLeft = o;
kernRight = g;
lastChange = "2021-11-11 09:41:25 +0000";
layers = (
{
anchors = (
{
name = bottom;
pos = (254,-240);
},
{
name = top;
pos = (364,546);
}
);
layerId = "9D27F576-B54C-4464-AC1E-5B62749637F3";
shapes = (
{
closed = 1;
nodes = (
(527,-220,l),
(633,546,l),
(492,546,l),
(476,427,l),
(508,461,l),
(471,525,o),
(400,558,o),
(317,558,cs),
(159,558,o),
(37,440,o),
(37,276,cs),
(37,131,o),
(139,27,o),
(287,27,cs),
(364,27,o),
(424,55,o),
(465,116,c),
(428,154,l),
(393,-90,l),
(51,-90,l),
(32,-220,l)
);
},
{
closed = 1;
nodes = (
(237,163,o),
(192,210,o),
(192,279,cs),
(192,360,o),
(252,423,o),
(333,423,cs),
(404,423,o),
(448,375,o),
(448,305,cs),
(448,227,o),
(393,163,o),
(309,163,cs)
);
}
);
width = 651;
},
{
anchors = (
{
name = bottom;
pos = (261,-240);
},
{
name = top;
pos = (370,536);
}
);
layerId = "F445EC8D-29E3-46C7-99DD-9E4BBA6B70C5";
shapes = (
{
closed = 1;
nodes = (
(517,-220,l),
(623,536,l),
(547,536,l),
(531,416,l),
(541,436,l),
(502,504,o),
(430,548,o),
(338,548,cs),
(178,548,o),
(57,417,o),
(57,259,cs),
(57,109,o),
(167,8,o),
(302,8,cs),
(390,8,o),
(472,51,o),
(514,128,c),
(492,140,l),
(452,-145,l),
(81,-145,l),
(70,-220,l)
);
},
{
closed = 1;
nodes = (
(211,83,o),
(137,159,o),
(137,262,cs),
(137,382,o),
(231,473,o),
(340,473,cs),
(442,473,o),
(513,395,o),
(513,293,cs),
(513,183,o),
(419,83,o),
(308,83,cs)
);
}
);
width = 663;
},
{
anchors = (
{
name = bottom;
pos = (263,-240);
},
{
name = top;
pos = (371,526);
}
);
layerId = "1C1CFC13-4213-4775-A214-C31251F9A91A";
shapes = (
{
closed = 1;
nodes = (
(511,-220,l),
(615,526,l),
(570,526,l),
(549,377,l),
(556,393,l),
(526,479,o),
(442,538,o),
(340,538,cs),
(188,538,o),
(68,409,o),
(68,255,cs),
(68,117,o),
(165,8,o),
(306,8,cs),
(406,8,o),
(492,64,o),
(536,151,c),
(520,169,l),
(471,-180,l),
(87,-180,l),
(82,-220,l)
);
},
{
closed = 1;
nodes = (
(191,53,o),
(116,140,o),
(116,252,cs),
(116,381,o),
(209,493,o),
(340,493,cs),
(454,493,o),
(532,407,o),
(532,294,cs),
(532,162,o),
(435,53,o),
(306,53,cs)
);
}
);
width = 667;
},
{
associatedMasterId = "9D27F576-B54C-4464-AC1E-5B62749637F3";
guides = (
{
pos = (245,27);
}
);
layerId = "36422917-9031-4902-B1BB-24A8D1428F60";
name = "Nov 30 20, 14:05";
shapes = (
{
closed = 1;
nodes = (
(383,23,ls),
(375,-38,o),
(321,-85,o),
(248,-85,cs),
(184,-85,o),
(139,-58,o),
(132,-7,c),
(-11,-48,l),
(8,-150,o),
(111,-220,o),
(237,-220,cs),
(395,-220,o),
(513,-120,o),
(532,18,cs),
(536,43,l),
(386,43,l)
);
}
);
width = 631;
},
{
associatedMasterId = "F445EC8D-29E3-46C7-99DD-9E4BBA6B70C5";
layerId = "93CA3938-7F08-44F2-A43D-DEF172223270";
name = "Nov 30 20, 14:15";
shapes = (
{
closed = 1;
nodes = (
(378,-220,o),
(496,-120,o),
(515,19,cs),
(588,536,l),
(513,536,l),
(497,416,l),
(510,435,l),
(477,503,o),
(409,548,o),
(320,548,cs),
(170,548,o),
(43,431,o),
(22,282,cs),
(1,129,o),
(99,8,o),
(252,8,cs),
(337,8,o),
(421,50,o),
(468,127,c),
(457,140,l),
(441,23,ls),
(426,-85,o),
(331,-145,o),
(232,-145,cs),
(149,-145,o),
(100,-104,o),
(86,-53,c),
(14,-86,l),
(39,-164,o),
(119,-220,o),
(232,-220,cs)
);
},
{
closed = 1;
nodes = (
(152,83,o),
(86,169,o),
(101,274,cs),
(116,383,o),
(212,473,o),
(321,473,cs),
(422,473,o),
(492,386,o),
(477,282,cs),
(462,174,o),
(363,83,o),
(258,83,cs)
);
}
);
width = 629;
},
{
associatedMasterId = "1C1CFC13-4213-4775-A214-C31251F9A91A";
layerId = "42626357-0875-4421-AAFE-11C188FE47A7";
name = "Nov 30 20, 14:21";
shapes = (
{
closed = 1;
nodes = (
(370,-220,o),
(483,-123,o),
(501,6,cs),
(575,526,l),
(530,526,l),
(509,377,l),
(521,392,l),
(494,479,o),
(419,538,o),
(316,538,cs),
(171,538,o),
(50,421,o),
(30,277,cs),
(9,129,o),
(101,8,o),
(250,8,cs),
(349,8,o),
(437,63,o),
(488,150,c),
(479,169,l),
(457,10,ls),
(439,-116,o),
(328,-178,o),
(235,-178,cs),
(149,-178,o),
(89,-141,o),
(59,-75,c),
(20,-93,l),
(49,-164,o),
(125,-220,o),
(235,-220,cs)
);
},
{
closed = 1;
nodes = (
(128,53,o),
(60,149,o),
(76,269,cs),
(94,393,o),
(194,493,o),
(318,493,cs),
(437,493,o),
(509,398,o),
(492,277,cs),
(474,152,o),
(371,53,o),
(248,53,cs)
);
}
);
width = 630;
}
);
metricLeft = "=g";
metricRight = "=g";
},
{
color = 4;
glyphname = g.ss03;
kernLeft = o;
kernRight = g;
lastChange = "2021-11-11 09:41:25 +0000";
layers = (
{
anchors = (
{
name = bottom;
pos = (254,-240);
},
{
name = top;
pos = (364,546);
}
);
layerId = "9D27F576-B54C-4464-AC1E-5B62749637F3";
shapes = (
{
closed = 1;
nodes = (
(257,-220,ls),
(433,-220,o),
(539,-133,o),
(560,18,cs),
(633,546,l),
(492,546,l),
(476,427,l),
(508,461,l),
(471,525,o),
(400,558,o),
(317,558,cs),
(159,558,o),
(37,440,o),
(37,276,cs),
(37,131,o),
(139,27,o),
(287,27,cs),
(364,27,o),
(424,55,o),
(465,116,c),
(428,154,l),
(408,18,ls),
(398,-53,o),
(351,-90,o),
(268,-90,cs),
(72,-90,l),
(54,-220,l)
);
},
{
closed = 1;
nodes = (
(237,163,o),
(192,210,o),
(192,279,cs),
(192,360,o),
(252,423,o),
(333,423,cs),
(404,423,o),
(448,375,o),
(448,305,cs),
(448,227,o),
(393,163,o),
(309,163,cs)
);
}
);
width = 651;
},
{
anchors = (
{
name = bottom;
pos = (261,-240);
},
{
name = top;
pos = (370,536);
}
);
layerId = "F445EC8D-29E3-46C7-99DD-9E4BBA6B70C5";
shapes = (
{
closed = 1;
nodes = (
(270,-220,ls),
(427,-220,o),
(529,-136,o),
(547,-6,cs),
(623,536,l),
(547,536,l),
(531,416,l),
(541,436,l),
(502,504,o),
(430,548,o),
(338,548,cs),
(178,548,o),
(57,417,o),
(57,259,cs),
(57,109,o),
(167,8,o),
(302,8,cs),
(390,8,o),
(472,51,o),
(514,128,c),
(492,140,l),
(472,-1,ls),
(460,-86,o),
(388,-145,o),
(276,-145,cs),
(69,-145,l),
(59,-220,l)
);
},
{
closed = 1;
nodes = (
(211,83,o),
(137,159,o),
(137,262,cs),
(137,382,o),
(231,473,o),
(340,473,cs),
(442,473,o),
(513,395,o),
(513,293,cs),
(513,183,o),
(419,83,o),
(308,83,cs)
);
}
);
width = 663;
},
{
anchors = (
{
name = bottom;
pos = (263,-240);
},
{
name = top;
pos = (371,526);
}
);
layerId = "1C1CFC13-4213-4775-A214-C31251F9A91A";
shapes = (
{
closed = 1;
nodes = (
(285,-220,ls),
(425,-220,o),
(523,-142,o),
(541,-13,cs),
(615,526,l),
(570,526,l),
(549,377,l),
(556,393,l),
(526,479,o),
(442,538,o),
(340,538,cs),
(188,538,o),
(68,409,o),
(68,255,cs),
(68,117,o),
(165,8,o),
(306,8,cs),
(406,8,o),
(492,64,o),
(536,151,c),
(520,169,l),
(496,-9,ls),
(482,-113,o),
(402,-177,o),
(287,-177,cs),
(102,-177,l),
(96,-220,l)
);
},
{
closed = 1;
nodes = (
(191,53,o),
(116,140,o),
(116,252,cs),
(116,381,o),
(209,493,o),
(340,493,cs),
(454,493,o),
(532,407,o),
(532,294,cs),
(532,162,o),
(435,53,o),
(306,53,cs)
);
}
);
width = 668;
}
);
metricLeft = "=g";
metricRight = "=g";
},
{
color = 4;
glyphname = h;
kernLeft = h;
kernRight = n;
lastChange = "2021-11-11 09:41:25 +0000";
layers = (
{
anchors = (
{
name = bottom;
pos = (262,0);
},
{
name = center;
pos = (181,640);
},
{
name = top;
pos = (196,745);
}
);
layerId = "9D27F576-B54C-4464-AC1E-5B62749637F3";
shapes = (
{
closed = 1;
nodes = (
(167,0,l),
(211,319,ls),
(220,382,o),
(267,423,o),
(326,423,cs),
(385,423,o),
(420,382,o),
(411,319,cs),
(367,0,l),
(517,0,l),
(564,337,ls),
(581,461,o),
(507,558,o),
(381,558,cs),
(308,558,o),
(247,531,o),
(213,466,c),
(228,438,l),
(272,757,l),
(123,757,l),
(17,0,l)
);
}
);
width = 599;
},
{
anchors = (
{
name = bottom;
pos = (249,0);
},
{
name = center;
pos = (167,640);
},
{
name = top;
pos = (182,745);
}
);
layerId = "F445EC8D-29E3-46C7-99DD-9E4BBA6B70C5";
shapes = (
{
closed = 1;
nodes = (
(116,0,l),
(160,317,ls),
(173,413,o),
(244,473,o),
(326,473,cs),
(404,473,o),
(452,418,o),
(440,331,cs),
(394,0,l),
(470,0,l),
(517,336,ls),
(534,460,o),
(457,548,o),
(342,548,cs),
(264,548,o),
(194,507,o),
(159,438,c),
(176,432,l),
(221,757,l),
(146,757,l),
(40,0,l)
);
}
);
width = 574;
},
{
anchors = (
{
name = bottom;
pos = (249,0);
},
{
name = center;
pos = (164,640);
},
{
name = top;
pos = (179,745);
}
);
layerId = "1C1CFC13-4213-4775-A214-C31251F9A91A";
shapes = (
{
closed = 1;
nodes = (
(97,0,l),
(141,318,ls),
(154,415,o),
(226,495,o),
(328,495,cs),
(413,495,o),
(473,437,o),
(458,332,cs),
(412,0,l),
(457,0,l),
(503,333,ls),
(520,459,o),
(438,538,o),
(330,538,cs),
(248,538,o),
(174,492,o),
(143,422,c),
(155,415,l),
(203,757,l),
(158,757,l),
(52,0,l)
);
}
);
width = 571;
}
);
unicode = 104;
},
{
color = 4;
glyphname = h.ss01;
kernLeft = h;
kernRight = n;
lastChange = "2021-11-11 09:41:25 +0000";
layers = (
{
anchors = (
{
name = bottom;
pos = (262,0);
},
{
name = center;
pos = (181,640);
},
{
name = top;
pos = (196,745);
}
);
layerId = "9D27F576-B54C-4464-AC1E-5B62749637F3";
shapes = (
{
closed = 1;
nodes = (
(519,0,l),
(596,546,l),
(188,546,l),
(169,416,l),
(426,416,l),
(368,0,l)
);
},
{
closed = 1;
nodes = (
(168,0,l),
(274,757,l),
(123,757,l),
(17,0,l)
);
}
);
width = 602;
},
{
anchors = (
{
name = bottom;
pos = (249,0);
},
{
name = center;
pos = (167,640);
},
{
name = top;
pos = (182,745);
}
);
layerId = "F445EC8D-29E3-46C7-99DD-9E4BBA6B70C5";
shapes = (
{
closed = 1;
nodes = (
(469,0,l),
(544,536,l),
(166,536,l),
(155,461,l),
(458,461,l),
(394,0,l)
);
},
{
closed = 1;
nodes = (
(116,0,l),
(222,757,l),
(146,757,l),
(40,0,l)
);
}
);
width = 573;
},
{
anchors = (
{
name = bottom;
pos = (250,0);
},
{
name = center;
pos = (165,640);
},
{
name = top;
pos = (180,745);
}
);
layerId = "1C1CFC13-4213-4775-A214-C31251F9A91A";
shapes = (
{
closed = 1;
nodes = (
(458,0,l),
(532,526,l),
(157,526,l),
(151,486,l),
(481,486,l),
(413,0,l)
);
},
{
closed = 1;
nodes = (
(98,0,l),
(203,757,l),
(158,757,l),
(53,0,l)
);
}
);
width = 572;
}
);
metricLeft = "=h";
metricRight = "=n";
},
{
color = 4;
glyphname = h.ss03;
kernLeft = h;
kernRight = n;
lastChange = "2021-11-11 09:41:25 +0000";
layers = (
{
anchors = (
{
name = bottom;
pos = (262,0);
},
{
name = center;
pos = (181,640);
},
{
name = top;
pos = (196,745);
}
);
layerId = "9D27F576-B54C-4464-AC1E-5B62749637F3";
shapes = (
{
closed = 1;
nodes = (
(169,0,l),
(227,416,l),
(341,416,ls),
(396,416,o),
(423,384,o),
(415,328,cs),
(369,0,l),
(520,0,l),
(566,328,ls),
(585,460,o),
(501,546,o),
(352,546,cs),
(245,546,l),
(275,757,l),
(123,757,l),
(17,0,l)
);
}
);
width = 602;
},
{
anchors = (
{
name = bottom;
pos = (249,0);
},
{
name = center;
pos = (167,640);
},
{
name = top;
pos = (182,745);
}
);
layerId = "F445EC8D-29E3-46C7-99DD-9E4BBA6B70C5";
shapes = (
{
closed = 1;
nodes = (
(116,0,l),
(180,461,l),
(323,461,ls),
(408,461,o),
(451,412,o),
(439,329,cs),
(393,0,l),
(469,0,l),
(514,325,ls),
(532,458,o),
(460,536,o),
(330,536,cs),
(191,536,l),
(222,757,l),
(146,757,l),
(40,0,l)
);
}
);
width = 573;
},
{
anchors = (
{
name = bottom;
pos = (250,0);
},
{
name = center;
pos = (165,640);
},
{
name = top;
pos = (180,745);
}
);
layerId = "1C1CFC13-4213-4775-A214-C31251F9A91A";
shapes = (
{
closed = 1;
nodes = (
(98,0,l),
(166,486,l),
(339,486,ls),
(425,486,o),
(472,428,o),
(460,339,cs),
(413,0,l),
(458,0,l),
(505,335,ls),
(521,448,o),
(454,526,o),
(341,526,cs),
(172,526,l),
(203,757,l),
(158,757,l),
(53,0,l)
);
}
);
width = 572;
}
);
metricLeft = "=h";
metricRight = "=n";
},
{
color = 4;
glyphname = i;
kernLeft = i;
kernRight = i;
lastChange = "2021-11-11 10:42:29 +0000";
layers = (
{
anchors = (
{
name = bottom;
pos = (93,0);
}
);
layerId = "9D27F576-B54C-4464-AC1E-5B62749637F3";
shapes = (
{
closed = 1;
nodes = (
(168,0,l),
(244,546,l),
(93,546,l),
(17,0,l)
);
},
{
closed = 1;
nodes = (
(251,595,l),
(272,745,l),
(121,745,l),
(100,595,l)
);
}
);
width = 261;
},
{
anchors = (
{
name = bottom;
pos = (78,0);
}
);
layerId = "F445EC8D-29E3-46C7-99DD-9E4BBA6B70C5";
shapes = (
{
closed = 1;
nodes = (
(116,0,l),
(191,536,l),
(115,536,l),
(40,0,l)
);
},
{
closed = 1;
nodes = (
(205,635,l),
(220,745,l),
(144,745,l),
(129,635,l)
);
}
);
width = 231;
},
{
anchors = (
{
name = bottom;
pos = (74,0);
}
);
layerId = "1C1CFC13-4213-4775-A214-C31251F9A91A";
shapes = (
{
closed = 1;
nodes = (
(97,0,l),
(171,526,l),
(126,526,l),
(52,0,l)
);
},
{
closed = 1;
nodes = (
(186,635,l),
(201,745,l),
(156,745,l),
(141,635,l)
);
}
);
width = 222;
}
);
unicode = 105;
},
{
color = 4;
glyphname = i.ss01;
kernLeft = i;
kernRight = i;
lastChange = "2021-11-11 09:41:25 +0000";
layers = (
{
anchors = (
{
name = bottom;
pos = (155,0);
}
);
layerId = "9D27F576-B54C-4464-AC1E-5B62749637F3";
shapes = (
{
closed = 1;
nodes = (
(230,0,l),
(306,546,l),
(66,546,l),
(48,416,l),
(137,416,l),
(79,0,l)
);
},
{
closed = 1;
nodes = (
(313,595,l),
(334,745,l),
(183,745,l),
(162,595,l)
);
}
);
width = 323;
},
{
anchors = (
{
name = bottom;
pos = (115,0);
}
);
layerId = "F445EC8D-29E3-46C7-99DD-9E4BBA6B70C5";
shapes = (
{
closed = 1;
nodes = (
(152,0,l),
(227,536,l),
(77,536,l),
(66,461,l),
(141,461,l),
(77,0,l)
);
},
{
closed = 1;
nodes = (
(241,635,l),
(256,745,l),
(180,745,l),
(165,635,l)
);
}
);
width = 267;
},
{
anchors = (
{
name = bottom;
pos = (96,0);
}
);
layerId = "1C1CFC13-4213-4775-A214-C31251F9A91A";
shapes = (
{
closed = 1;
nodes = (
(118,0,l),
(192,526,l),
(82,526,l),
(75,481,l),
(140,481,l),
(73,0,l)
);
},
{
closed = 1;
nodes = (
(207,635,l),
(222,745,l),
(177,745,l),
(162,635,l)
);
}
);
width = 243;
}
);
metricLeft = "=i/2";
metricRight = "=i";
},
{
color = 4;
glyphname = idotless;
kernLeft = i;
kernRight = i;
lastChange = "2021-11-11 09:52:08 +0000";
layers = (
{
anchors = (
{
name = bottom;
pos = (82,0);
},
{
name = ogonek;
pos = (102,0);
},
{
name = top;
pos = (158,546);
}
);
layerId = "9D27F576-B54C-4464-AC1E-5B62749637F3";
shapes = (
{
closed = 1;
nodes = (
(157,0,l),
(233,546,l),
(82,546,l),
(6,0,l)
);
}
);
width = 239;
},
{
anchors = (
{
name = bottom;
pos = (63,0);
},
{
name = ogonek;
pos = (83,0);
},
{
name = top;
pos = (138,536);
}
);
layerId = "F445EC8D-29E3-46C7-99DD-9E4BBA6B70C5";
shapes = (
{
closed = 1;
nodes = (
(101,0,l),
(176,536,l),
(100,536,l),
(25,0,l)
);
}
);
width = 201;
},
{
anchors = (
{
name = bottom;
pos = (56,0);
},
{
name = ogonek;
pos = (66,0);
},
{
name = top;
pos = (129,526);
}
);
layerId = "1C1CFC13-4213-4775-A214-C31251F9A91A";
shapes = (
{
closed = 1;
nodes = (
(78,0,l),
(152,526,l),
(107,526,l),
(33,0,l)
);
}
);
width = 185;
}
);
metricLeft = "=i*.8";
metricRight = "=i*.8";
unicode = 305;
},
{
color = 4;
glyphname = idotless.ss01;
kernLeft = i;
kernRight = i;
lastChange = "2021-11-11 09:53:54 +0000";
layers = (
{
anchors = (
{
name = bottom;
pos = (149,0);
},
{
name = ogonek;
pos = (159,0);
},
{
name = top;
pos = (225,546);
}
);
layerId = "9D27F576-B54C-4464-AC1E-5B62749637F3";
shapes = (
{
closed = 1;
nodes = (
(224,0,l),
(300,546,l),
(60,546,l),
(42,416,l),
(131,416,l),
(73,0,l)
);
}
);
width = 306;
},
{
anchors = (
{
name = bottom;
pos = (107,0);
},
{
name = ogonek;
pos = (117,0);
},
{
name = top;
pos = (182,536);
}
);
layerId = "F445EC8D-29E3-46C7-99DD-9E4BBA6B70C5";
shapes = (
{
closed = 1;
nodes = (
(144,0,l),
(219,536,l),
(69,536,l),
(58,461,l),
(133,461,l),
(69,0,l)
);
}
);
width = 244;
},
{
anchors = (
{
name = bottom;
pos = (87,0);
},
{
name = ogonek;
pos = (97,0);
},
{
name = top;
pos = (160,526);
}
);
layerId = "1C1CFC13-4213-4775-A214-C31251F9A91A";
shapes = (
{
closed = 1;
nodes = (
(109,0,l),
(183,526,l),
(73,526,l),
(66,481,l),
(131,481,l),
(64,0,l)
);
}
);
width = 216;
}
);
metricLeft = "=idotless/2";
metricRight = "=idotless";
},
{
color = 4;
glyphname = j;
kernLeft = j;
kernRight = j;
lastChange = "2021-11-11 10:45:35 +0000";
layers = (
{
layerId = "9D27F576-B54C-4464-AC1E-5B62749637F3";
shapes = (
{
closed = 1;
nodes = (
(63,-222,o),
(150,-153,o),
(168,-24,cs),
(248,546,l),
(97,546,l),
(18,-16,ls),
(11,-64,o),
(-25,-92,o),
(-86,-92,cs),
(-94,-92,o),
(-105,-92,o),
(-116,-90,c),
(-126,-216,l),
(-113,-219,o),
(-93,-222,o),
(-69,-222,cs)
);
},
{
closed = 1;
nodes = (
(255,595,l),
(276,745,l),
(125,745,l),
(104,595,l)
);
}
);
width = 265;
},
{
layerId = "F445EC8D-29E3-46C7-99DD-9E4BBA6B70C5";
shapes = (
{
closed = 1;
nodes = (
(12,-220,o),
(94,-163,o),
(110,-52,cs),
(193,536,l),
(117,536,l),
(35,-48,ls),
(26,-115,o),
(-25,-150,o),
(-81,-150,cs),
(-92,-150,o),
(-107,-149,o),
(-121,-147,c),
(-127,-215,l),
(-117,-218,o),
(-92,-220,o),
(-81,-220,cs)
);
},
{
closed = 1;
nodes = (
(207,635,l),
(222,745,l),
(146,745,l),
(131,635,l)
);
}
);
width = 232;
},
{
layerId = "1C1CFC13-4213-4775-A214-C31251F9A91A";
shapes = (
{
closed = 1;
nodes = (
(10,-220,o),
(75,-167,o),
(90,-64,cs),
(173,526,l),
(128,526,l),
(45,-60,ls),
(35,-135,o),
(-13,-177,o),
(-84,-177,cs),
(-93,-177,o),
(-107,-176,o),
(-118,-174,c),
(-120,-214,l),
(-110,-217,o),
(-97,-220,o),
(-79,-220,cs)
);
},
{
closed = 1;
nodes = (
(188,635,l),
(203,745,l),
(158,745,l),
(143,635,l)
);
}
);
width = 224;
}
);
unicode = 106;
},
{
color = 4;
glyphname = j.ss01;
kernLeft = j;
kernRight = j;
lastChange = "2021-11-11 09:41:25 +0000";
layers = (
{
layerId = "9D27F576-B54C-4464-AC1E-5B62749637F3";
shapes = (
{
closed = 1;
nodes = (
(127,-222,l),
(235,546,l),
(84,546,l),
(-6,-92,l),
(-116,-92,l),
(-134,-222,l)
);
},
{
closed = 1;
nodes = (
(242,595,l),
(263,745,l),
(112,745,l),
(91,595,l)
);
}
);
width = 252;
},
{
layerId = "F445EC8D-29E3-46C7-99DD-9E4BBA6B70C5";
shapes = (
{
closed = 1;
nodes = (
(64,-220,l),
(170,536,l),
(94,536,l),
(-2,-150,l),
(-122,-150,l),
(-132,-220,l)
);
},
{
closed = 1;
nodes = (
(184,635,l),
(200,745,l),
(124,745,l),
(108,635,l)
);
}
);
width = 210;
},
{
layerId = "1C1CFC13-4213-4775-A214-C31251F9A91A";
shapes = (
{
closed = 1;
nodes = (
(46,-220,l),
(151,526,l),
(105,526,l),
(6,-180,l),
(-119,-180,l),
(-125,-220,l)
);
},
{
closed = 1;
nodes = (
(165,635,l),
(181,745,l),
(136,745,l),
(120,635,l)
);
}
);
width = 202;
}
);
metricLeft = "=j";
metricRight = "=j";
},
{
color = 4;
glyphname = j.ss02;
kernLeft = j;
kernRight = j;
lastChange = "2021-11-11 09:41:25 +0000";
layers = (
{
layerId = "9D27F576-B54C-4464-AC1E-5B62749637F3";
shapes = (
{
closed = 1;
nodes = (
(96,-222,o),
(183,-153,o),
(201,-24,cs),
(281,546,l),
(41,546,l),
(23,416,l),
(111,416,l),
(50,-16,ls),
(43,-64,o),
(8,-92,o),
(-54,-92,cs),
(-62,-92,o),
(-73,-92,o),
(-84,-90,c),
(-94,-216,l),
(-81,-219,o),
(-61,-222,o),
(-37,-222,cs)
);
},
{
closed = 1;
nodes = (
(288,595,l),
(309,745,l),
(158,745,l),
(137,595,l)
);
}
);
width = 298;
},
{
layerId = "F445EC8D-29E3-46C7-99DD-9E4BBA6B70C5";
shapes = (
{
closed = 1;
nodes = (
(44,-220,o),
(126,-163,o),
(142,-52,cs),
(225,536,l),
(75,536,l),
(65,461,l),
(138,461,l),
(67,-48,ls),
(58,-115,o),
(7,-150,o),
(-50,-150,cs),
(-61,-150,o),
(-76,-149,o),
(-90,-147,c),
(-96,-215,l),
(-86,-218,o),
(-61,-220,o),
(-50,-220,cs)
);
},
{
closed = 1;
nodes = (
(239,635,l),
(254,745,l),
(178,745,l),
(163,635,l)
);
}
);
width = 264;
},
{
layerId = "1C1CFC13-4213-4775-A214-C31251F9A91A";
shapes = (
{
closed = 1;
nodes = (
(39,-220,o),
(105,-167,o),
(119,-64,cs),
(202,526,l),
(92,526,l),
(86,481,l),
(151,481,l),
(74,-60,ls),
(63,-135,o),
(16,-177,o),
(-56,-177,cs),
(-65,-177,o),
(-79,-176,o),
(-90,-174,c),
(-92,-214,l),
(-82,-217,o),
(-69,-220,o),
(-51,-220,cs)
);
},
{
closed = 1;
nodes = (
(217,635,l),
(232,745,l),
(187,745,l),
(172,635,l)
);
}
);
width = 253;
}
);
metricLeft = "=j/2";
metricRight = "=j";
},
{
color = 4;
glyphname = jdotless;
kernLeft = i;
kernRight = j;
lastChange = "2021-11-11 09:41:25 +0000";
layers = (
{
anchors = (
{
name = bottom;
pos = (41,-240);
},
{
name = top;
pos = (149,526);
}
);
layerId = "1C1CFC13-4213-4775-A214-C31251F9A91A";
shapes = (
{
closed = 1;
nodes = (
(10,-220,o),
(75,-167,o),
(90,-64,cs),
(173,526,l),
(128,526,l),
(45,-60,ls),
(35,-135,o),
(-13,-177,o),
(-84,-177,cs),
(-93,-177,o),
(-107,-176,o),
(-118,-174,c),
(-120,-214,l),
(-110,-217,o),
(-97,-220,o),
(-79,-220,cs)
);
}
);
width = 224;
},
{
anchors = (
{
name = bottom;
pos = (45,-240);
},
{
name = top;
pos = (154,536);
}
);
layerId = "F445EC8D-29E3-46C7-99DD-9E4BBA6B70C5";
shapes = (
{
closed = 1;
nodes = (
(12,-220,o),
(94,-163,o),
(110,-52,cs),
(193,536,l),
(117,536,l),
(35,-48,ls),
(26,-115,o),
(-25,-150,o),
(-81,-150,cs),
(-92,-150,o),
(-107,-149,o),
(-121,-147,c),
(-127,-215,l),
(-117,-218,o),
(-92,-220,o),
(-81,-220,cs)
);
}
);
width = 232;
},
{
anchors = (
{
name = bottom;
pos = (61,-240);
},
{
name = top;
pos = (171,546);
}
);
layerId = "9D27F576-B54C-4464-AC1E-5B62749637F3";
shapes = (
{
closed = 1;
nodes = (
(63,-222,o),
(150,-153,o),
(168,-24,cs),
(248,546,l),
(97,546,l),
(18,-16,ls),
(11,-64,o),
(-25,-92,o),
(-86,-92,cs),
(-94,-92,o),
(-105,-92,o),
(-116,-90,c),
(-126,-216,l),
(-113,-219,o),
(-93,-222,o),
(-69,-222,cs)
);
}
);
width = 265;
}
);
unicode = 567;
},
{
color = 4;
glyphname = jdotless.ss01;
kernLeft = i;
kernRight = j;
lastChange = "2021-11-11 09:41:25 +0000";
layers = (
{
anchors = (
{
name = bottom;
pos = (54,-240);
},
{
name = top;
pos = (160,546);
}
);
layerId = "9D27F576-B54C-4464-AC1E-5B62749637F3";
shapes = (
{
closed = 1;
nodes = (
(127,-222,l),
(235,546,l),
(84,546,l),
(-6,-92,l),
(-116,-92,l),
(-134,-222,l)
);
}
);
width = 252;
},
{
anchors = (
{
name = bottom;
pos = (34,-240);
},
{
name = top;
pos = (132,536);
}
);
layerId = "F445EC8D-29E3-46C7-99DD-9E4BBA6B70C5";
shapes = (
{
closed = 1;
nodes = (
(64,-220,l),
(170,536,l),
(94,536,l),
(-2,-150,l),
(-122,-150,l),
(-132,-220,l)
);
}
);
width = 210;
},
{
anchors = (
{
name = bottom;
pos = (30,-240);
},
{
name = top;
pos = (128,526);
}
);
layerId = "1C1CFC13-4213-4775-A214-C31251F9A91A";
shapes = (
{
closed = 1;
nodes = (
(46,-220,l),
(151,526,l),
(105,526,l),
(6,-180,l),
(-119,-180,l),
(-125,-220,l)
);
}
);
width = 202;
}
);
metricLeft = "=j";
metricRight = "=j";
},
{
color = 4;
glyphname = jdotless.ss02;
kernLeft = i;
kernRight = j;
lastChange = "2021-11-11 09:41:25 +0000";
layers = (
{
anchors = (
{
name = bottom;
pos = (104,-240);
},
{
name = top;
pos = (214,546);
}
);
layerId = "9D27F576-B54C-4464-AC1E-5B62749637F3";
shapes = (
{
closed = 1;
nodes = (
(106,-222,o),
(193,-153,o),
(211,-24,cs),
(291,546,l),
(51,546,l),
(33,416,l),
(121,416,l),
(60,-16,ls),
(53,-64,o),
(18,-92,o),
(-43,-92,cs),
(-51,-92,o),
(-62,-92,o),
(-73,-90,c),
(-83,-216,l),
(-70,-219,o),
(-50,-222,o),
(-26,-222,cs)
);
}
);
width = 308;
},
{
anchors = (
{
name = bottom;
pos = (87,-240);
},
{
name = top;
pos = (196,536);
}
);
layerId = "F445EC8D-29E3-46C7-99DD-9E4BBA6B70C5";
shapes = (
{
closed = 1;
nodes = (
(54,-220,o),
(136,-163,o),
(152,-52,cs),
(235,536,l),
(85,536,l),
(75,461,l),
(148,461,l),
(77,-48,ls),
(68,-115,o),
(17,-150,o),
(-39,-150,cs),
(-50,-150,o),
(-65,-149,o),
(-79,-147,c),
(-85,-215,l),
(-75,-218,o),
(-50,-220,o),
(-39,-220,cs)
);
}
);
width = 274;
},
{
anchors = (
{
name = bottom;
pos = (79,-240);
},
{
name = top;
pos = (187,526);
}
);
layerId = "1C1CFC13-4213-4775-A214-C31251F9A91A";
shapes = (
{
closed = 1;
nodes = (
(48,-220,o),
(114,-167,o),
(128,-64,cs),
(211,526,l),
(101,526,l),
(95,481,l),
(160,481,l),
(83,-60,ls),
(72,-135,o),
(25,-177,o),
(-46,-177,cs),
(-55,-177,o),
(-69,-176,o),
(-80,-174,c),
(-82,-214,l),
(-72,-217,o),
(-59,-220,o),
(-41,-220,cs)
);
}
);
width = 262;
}
);
metricLeft = "=j/3";
metricRight = "=j";
},
{
color = 4;
glyphname = k;
kernLeft = h;
kernRight = k;
lastChange = "2021-11-11 10:33:18 +0000";
layers = (
{
anchors = (
{
name = bottom;
pos = (255,0);
},
{
name = top;
pos = (365,784);
}
);
layerId = "9D27F576-B54C-4464-AC1E-5B62749637F3";
shapes = (
{
closed = 1;
nodes = (
(168,0,l),
(196,204,l),
(137,117,l),
(330,299,l),
(249,277,l),
(375,0,l),
(536,0,l),
(384,326,l),
(613,546,l),
(414,546,l),
(137,290,l),
(206,272,l),
(274,757,l),
(123,757,l),
(17,0,l)
);
}
);
width = 586;
},
{
anchors = (
{
name = bottom;
pos = (236,0);
},
{
name = top;
pos = (347,784);
}
);
layerId = "F445EC8D-29E3-46C7-99DD-9E4BBA6B70C5";
shapes = (
{
closed = 1;
nodes = (
(115,0,l),
(142,197,l),
(108,135,l),
(284,293,l),
(240,297,l),
(413,0,l),
(498,0,l),
(315,321,l),
(556,536,l),
(452,536,l),
(109,232,l),
(147,227,l),
(221,757,l),
(145,757,l),
(39,0,l)
);
}
);
width = 547;
},
{
anchors = (
{
name = bottom;
pos = (233,0);
},
{
name = top;
pos = (343,784);
}
);
layerId = "1C1CFC13-4213-4775-A214-C31251F9A91A";
shapes = (
{
closed = 1;
nodes = (
(98,0,l),
(123,182,l),
(113,163,l),
(268,300,l),
(239,299,l),
(425,0,l),
(481,0,l),
(288,313,l),
(536,526,l),
(464,526,l),
(92,205,l),
(126,205,l),
(204,757,l),
(158,757,l),
(52,0,l)
);
}
);
width = 540;
}
);
unicode = 107;
},
{
color = 4;
glyphname = k.ss01;
kernLeft = h;
kernRight = k;
lastChange = "2021-11-11 09:41:25 +0000";
layers = (
{
layerId = "9D27F576-B54C-4464-AC1E-5B62749637F3";
shapes = (
{
closed = 1;
nodes = (
(537,0,l),
(386,276,l),
(592,546,l),
(417,546,l),
(259,341,l),
(254,224,l),
(378,0,l)
);
},
{
closed = 1;
nodes = (
(168,0,l),
(274,757,l),
(123,757,l),
(17,0,l)
);
},
{
closed = 1;
nodes = (
(328,218,l),
(347,348,l),
(161,348,l),
(142,218,l)
);
}
);
width = 586;
},
{
layerId = "F445EC8D-29E3-46C7-99DD-9E4BBA6B70C5";
shapes = (
{
closed = 1;
nodes = (
(499,0,l),
(338,285,l),
(542,536,l),
(446,536,l),
(269,319,l),
(270,249,l),
(414,0,l)
);
},
{
closed = 1;
nodes = (
(115,0,l),
(221,757,l),
(145,757,l),
(39,0,l)
);
},
{
closed = 1;
nodes = (
(318,247,l),
(329,322,l),
(126,322,l),
(115,247,l)
);
}
);
width = 548;
},
{
layerId = "1C1CFC13-4213-4775-A214-C31251F9A91A";
shapes = (
{
closed = 1;
nodes = (
(482,0,l),
(316,289,l),
(516,526,l),
(454,526,l),
(264,300,l),
(267,276,l),
(430,0,l)
);
},
{
closed = 1;
nodes = (
(97,0,l),
(203,757,l),
(158,757,l),
(52,0,l)
);
},
{
closed = 1;
nodes = (
(300,266,l),
(306,306,l),
(116,306,l),
(110,266,l)
);
}
);
width = 541;
}
);
metricLeft = "=k";
metricRight = "=k";
},
{
color = 4;
glyphname = kgreenlandic;
kernLeft = n;
kernRight = k;
lastChange = "2021-11-11 12:18:53 +0000";
layers = (
{
layerId = "1C1CFC13-4213-4775-A214-C31251F9A91A";
shapes = (
{
closed = 1;
nodes = (
(482,0,l),
(316,289,l),
(516,526,l),
(454,526,l),
(264,300,l),
(267,276,l),
(430,0,l)
);
},
{
closed = 1;
nodes = (
(97,0,l),
(170,526,l),
(125,526,l),
(52,0,l)
);
},
{
closed = 1;
nodes = (
(300,266,l),
(306,306,l),
(116,306,l),
(110,266,l)
);
}
);
width = 541;
},
{
layerId = "F445EC8D-29E3-46C7-99DD-9E4BBA6B70C5";
shapes = (
{
closed = 1;
nodes = (
(500,0,l),
(339,285,l),
(543,536,l),
(447,536,l),
(270,319,l),
(271,249,l),
(415,0,l)
);
},
{
closed = 1;
nodes = (
(116,0,l),
(191,536,l),
(115,536,l),
(40,0,l)
);
},
{
closed = 1;
nodes = (
(319,247,l),
(330,322,l),
(127,322,l),
(116,247,l)
);
}
);
width = 549;
},
{
layerId = "9D27F576-B54C-4464-AC1E-5B62749637F3";
shapes = (
{
closed = 1;
nodes = (
(537,0,l),
(386,276,l),
(592,546,l),
(417,546,l),
(259,341,l),
(254,224,l),
(378,0,l)
);
},
{
closed = 1;
nodes = (
(168,0,l),
(244,546,l),
(93,546,l),
(17,0,l)
);
},
{
closed = 1;
nodes = (
(328,218,l),
(347,348,l),
(161,348,l),
(142,218,l)
);
}
);
width = 586;
}
);
unicode = 312;
},
{
color = 4;
glyphname = l;
kernLeft = l;
kernRight = l;
lastChange = "2021-11-11 10:42:13 +0000";
layers = (
{
anchors = (
{
name = bottom;
pos = (93,0);
},
{
name = center;
pos = (148,392);
},
{
name = dot;
pos = (355,372);
},
{
name = top;
pos = (197,745);
},
{
name = topright;
pos = (300,546);
}
);
layerId = "9D27F576-B54C-4464-AC1E-5B62749637F3";
shapes = (
{
closed = 1;
nodes = (
(168,0,l),
(274,757,l),
(123,757,l),
(17,0,l)
);
}
);
width = 261;
},
{
anchors = (
{
name = bottom;
pos = (78,0);
},
{
name = center;
pos = (133,392);
},
{
name = dot;
pos = (296,372);
},
{
name = top;
pos = (182,745);
},
{
name = topright;
pos = (269,536);
}
);
layerId = "F445EC8D-29E3-46C7-99DD-9E4BBA6B70C5";
shapes = (
{
closed = 1;
nodes = (
(116,0,l),
(222,757,l),
(146,757,l),
(40,0,l)
);
}
);
width = 231;
},
{
anchors = (
{
name = bottom;
pos = (74,0);
},
{
name = center;
pos = (129,392);
},
{
name = dot;
pos = (287,372);
},
{
name = top;
pos = (179,745);
},
{
name = topright;
pos = (259,526);
}
);
layerId = "1C1CFC13-4213-4775-A214-C31251F9A91A";
shapes = (
{
closed = 1;
nodes = (
(97,0,l),
(203,757,l),
(158,757,l),
(52,0,l)
);
}
);
width = 222;
}
);
unicode = 108;
},
{
color = 4;
glyphname = l.ss01;
kernLeft = l;
kernRight = l;
lastChange = "2021-11-11 10:01:26 +0000";
layers = (
{
anchors = (
{
name = bottom;
pos = (93,0);
},
{
name = center;
pos = (148,392);
},
{
name = dot;
pos = (355,372);
},
{
name = top;
pos = (197,745);
},
{
name = topright;
pos = (292,546);
}
);
layerId = "9D27F576-B54C-4464-AC1E-5B62749637F3";
shapes = (
{
closed = 1;
nodes = (
(237,0,l),
(255,130,l),
(187,130,l),
(275,757,l),
(123,757,l),
(17,0,l)
);
}
);
width = 303;
},
{
anchors = (
{
name = bottom;
pos = (78,0);
},
{
name = center;
pos = (133,392);
},
{
name = dot;
pos = (296,372);
},
{
name = top;
pos = (182,745);
},
{
name = topright;
pos = (255,536);
}
);
layerId = "F445EC8D-29E3-46C7-99DD-9E4BBA6B70C5";
shapes = (
{
closed = 1;
nodes = (
(190,0,l),
(199,70,l),
(125,70,l),
(222,757,l),
(146,757,l),
(40,0,l)
);
}
);
width = 267;
},
{
anchors = (
{
name = bottom;
pos = (74,0);
},
{
name = center;
pos = (129,392);
},
{
name = dot;
pos = (287,372);
},
{
name = top;
pos = (179,745);
},
{
name = topright;
pos = (240,526);
}
);
layerId = "1C1CFC13-4213-4775-A214-C31251F9A91A";
shapes = (
{
closed = 1;
nodes = (
(172,0,l),
(177,40,l),
(103,40,l),
(204,757,l),
(158,757,l),
(52,0,l)
);
}
);
width = 253;
}
);
metricLeft = "=l";
metricRight = "=l/2";
},
{
color = 4;
glyphname = l.ss03;
kernLeft = l;
kernRight = l;
lastChange = "2021-11-10 07:30:53 +0000";
layers = (
{
anchors = (
{
name = bottom;
pos = (93,0);
},
{
name = center;
pos = (148,392);
},
{
name = dot;
pos = (355,372);
},
{
name = top;
pos = (197,745);
},
{
name = topright;
pos = (291,546);
}
);
layerId = "9D27F576-B54C-4464-AC1E-5B62749637F3";
shapes = (
{
closed = 1;
nodes = (
(236,-6,l),
(254,124,l),
(248,124,ls),
(205,124,o),
(188,141,o),
(194,181,cs),
(275,757,l),
(123,757,l),
(42,178,ls),
(25,54,o),
(80,-6,o),
(213,-6,cs)
);
}
);
width = 303;
},
{
anchors = (
{
name = bottom;
pos = (78,0);
},
{
name = center;
pos = (133,392);
},
{
name = dot;
pos = (296,372);
},
{
name = top;
pos = (182,745);
},
{
name = topright;
pos = (255,536);
}
);
layerId = "F445EC8D-29E3-46C7-99DD-9E4BBA6B70C5";
shapes = (
{
closed = 1;
nodes = (
(189,-6,l),
(198,59,l),
(188,59,ls),
(146,59,o),
(126,77,o),
(132,118,cs),
(222,757,l),
(146,757,l),
(56,116,ls),
(45,37,o),
(89,-6,o),
(174,-6,cs)
);
}
);
width = 267;
},
{
anchors = (
{
name = bottom;
pos = (75,0);
},
{
name = center;
pos = (130,392);
},
{
name = dot;
pos = (288,372);
},
{
name = top;
pos = (180,745);
},
{
name = topright;
pos = (241,526);
}
);
layerId = "1C1CFC13-4213-4775-A214-C31251F9A91A";
shapes = (
{
closed = 1;
nodes = (
(172,-6,l),
(177,34,l),
(166,34,ls),
(122,34,o),
(105,52,o),
(111,92,cs),
(204,757,l),
(159,757,l),
(66,96,ls),
(57,34,o),
(88,-6,o),
(163,-6,cs)
);
}
);
width = 254;
}
);
metricLeft = "=l";
metricRight = "=l/2";
},
{
color = 4;
glyphname = m;
kernLeft = n;
kernRight = n;
lastChange = "2021-11-10 07:03:53 +0000";
layers = (
{
anchors = (
{
name = bottom;
pos = (427,0);
},
{
name = top;
pos = (503,546);
}
);
layerId = "9D27F576-B54C-4464-AC1E-5B62749637F3";
shapes = (
{
closed = 1;
nodes = (
(167,0,l),
(211,319,ls),
(220,382,o),
(262,423,o),
(321,423,cs),
(380,423,o),
(410,382,o),
(401,319,cs),
(357,0,l),
(507,0,l),
(551,319,ls),
(560,382,o),
(602,423,o),
(661,423,cs),
(720,423,o),
(750,382,o),
(741,319,cs),
(697,0,l),
(847,0,l),
(895,347,ls),
(912,471,o),
(837,558,o),
(716,558,cs),
(625,558,o),
(549,521,o),
(498,427,c),
(552,431,l),
(533,508,o),
(467,558,o),
(376,558,cs),
(294,558,o),
(235,525,o),
(201,440,c),
(216,419,l),
(233,546,l),
(93,546,l),
(17,0,l)
);
}
);
width = 929;
},
{
anchors = (
{
name = bottom;
pos = (417,0);
},
{
name = top;
pos = (493,536);
}
);
layerId = "F445EC8D-29E3-46C7-99DD-9E4BBA6B70C5";
shapes = (
{
closed = 1;
nodes = (
(115,0,l),
(159,317,ls),
(172,413,o),
(243,473,o),
(321,473,cs),
(396,473,o),
(443,418,o),
(431,331,cs),
(385,0,l),
(460,0,l),
(506,330,ls),
(518,419,o),
(592,473,o),
(666,473,cs),
(741,473,o),
(788,418,o),
(776,331,cs),
(730,0,l),
(805,0,l),
(852,336,ls),
(869,460,o),
(789,548,o),
(678,548,cs),
(599,548,o),
(519,505,o),
(483,420,c),
(503,419,l),
(485,498,o),
(421,548,o),
(337,548,cs),
(269,548,o),
(205,513,o),
(168,452,c),
(177,437,l),
(190,536,l),
(115,536,l),
(40,0,l)
);
}
);
width = 909;
},
{
anchors = (
{
name = bottom;
pos = (418,0);
},
{
name = top;
pos = (492,526);
}
);
layerId = "1C1CFC13-4213-4775-A214-C31251F9A91A";
shapes = (
{
closed = 1;
nodes = (
(96,0,l),
(140,318,ls),
(154,415,o),
(225,495,o),
(322,495,cs),
(402,495,o),
(462,437,o),
(447,332,cs),
(401,0,l),
(446,0,l),
(490,318,ls),
(504,415,o),
(575,495,o),
(672,495,cs),
(752,495,o),
(812,437,o),
(797,332,cs),
(751,0,l),
(796,0,l),
(842,333,ls),
(860,459,o),
(777,538,o),
(674,538,cs),
(588,538,o),
(507,483,o),
(476,400,c),
(492,397,l),
(478,486,o),
(407,538,o),
(324,538,cs),
(251,538,o),
(180,496,o),
(146,433,c),
(154,417,l),
(170,526,l),
(125,526,l),
(51,0,l)
);
}
);
width = 910;
}
);
unicode = 109;
},
{
color = 4;
glyphname = m.ss01;
kernLeft = n;
kernRight = n;
lastChange = "2021-11-11 09:41:25 +0000";
layers = (
{
layerId = "9D27F576-B54C-4464-AC1E-5B62749637F3";
shapes = (
{
closed = 1;
nodes = (
(168,0,l),
(226,416,l),
(414,416,l),
(356,0,l),
(507,0,l),
(565,416,l),
(753,416,l),
(695,0,l),
(846,0,l),
(922,546,l),
(93,546,l),
(17,0,l)
);
}
);
width = 928;
},
{
layerId = "F445EC8D-29E3-46C7-99DD-9E4BBA6B70C5";
shapes = (
{
closed = 1;
nodes = (
(115,0,l),
(180,461,l),
(448,461,l),
(383,0,l),
(459,0,l),
(524,461,l),
(792,461,l),
(727,0,l),
(803,0,l),
(879,536,l),
(115,536,l),
(39,0,l)
);
}
);
width = 907;
},
{
layerId = "1C1CFC13-4213-4775-A214-C31251F9A91A";
shapes = (
{
closed = 1;
nodes = (
(97,0,l),
(165,486,l),
(469,486,l),
(401,0,l),
(446,0,l),
(514,486,l),
(818,486,l),
(750,0,l),
(795,0,l),
(869,526,l),
(125,526,l),
(51,0,l)
);
}
);
width = 909;
}
);
metricLeft = "=n";
metricRight = "=n";
},
{
color = 4;
glyphname = m.ss03;
kernLeft = n;
kernRight = n;
lastChange = "2021-11-10 07:30:53 +0000";
layers = (
{
anchors = (
{
name = bottom;
pos = (426,0);
},
{
name = top;
pos = (502,546);
}
);
layerId = "9D27F576-B54C-4464-AC1E-5B62749637F3";
shapes = (
{
closed = 1;
nodes = (
(168,0,l),
(226,416,l),
(414,416,l),
(356,0,l),
(507,0,l),
(565,416,l),
(667,416,ls),
(722,416,o),
(749,384,o),
(741,328,cs),
(695,0,l),
(846,0,l),
(892,328,ls),
(911,460,o),
(827,546,o),
(678,546,cs),
(93,546,l),
(17,0,l)
);
}
);
width = 928;
},
{
anchors = (
{
name = bottom;
pos = (416,0);
},
{
name = top;
pos = (492,536);
}
);
layerId = "F445EC8D-29E3-46C7-99DD-9E4BBA6B70C5";
shapes = (
{
closed = 1;
nodes = (
(116,0,l),
(180,461,l),
(448,461,l),
(384,0,l),
(460,0,l),
(524,461,l),
(657,461,ls),
(743,461,o),
(785,413,o),
(773,329,cs),
(727,0,l),
(803,0,l),
(848,325,ls),
(866,456,o),
(797,536,o),
(664,536,cs),
(115,536,l),
(40,0,l)
);
}
);
width = 907;
},
{
anchors = (
{
name = bottom;
pos = (418,0);
},
{
name = top;
pos = (492,526);
}
);
layerId = "1C1CFC13-4213-4775-A214-C31251F9A91A";
shapes = (
{
closed = 1;
nodes = (
(97,0,l),
(165,486,l),
(469,486,l),
(401,0,l),
(446,0,l),
(514,486,l),
(676,486,ls),
(762,486,o),
(809,428,o),
(797,339,cs),
(750,0,l),
(795,0,l),
(842,335,ls),
(858,448,o),
(791,526,o),
(678,526,cs),
(125,526,l),
(51,0,l)
);
}
);
width = 909;
}
);
metricLeft = "=n";
metricRight = "=n";
},
{
color = 4;
glyphname = n;
kernLeft = n;
kernRight = n;
lastChange = "2021-11-11 09:41:25 +0000";
layers = (
{
anchors = (
{
name = bottom;
pos = (262,0);
},
{
name = top;
pos = (338,546);
}
);
layerId = "9D27F576-B54C-4464-AC1E-5B62749637F3";
shapes = (
{
closed = 1;
nodes = (
(167,0,l),
(211,319,ls),
(220,382,o),
(267,423,o),
(326,423,cs),
(385,423,o),
(420,382,o),
(411,319,cs),
(367,0,l),
(517,0,l),
(564,337,ls),
(581,461,o),
(507,558,o),
(381,558,cs),
(308,558,o),
(247,531,o),
(213,466,c),
(219,438,l),
(233,546,l),
(93,546,l),
(17,0,l)
);
}
);
width = 599;
},
{
anchors = (
{
name = bottom;
pos = (249,0);
},
{
name = top;
pos = (325,536);
}
);
layerId = "F445EC8D-29E3-46C7-99DD-9E4BBA6B70C5";
shapes = (
{
closed = 1;
nodes = (
(115,0,l),
(159,317,ls),
(173,413,o),
(242,473,o),
(326,473,cs),
(406,473,o),
(453,418,o),
(441,331,cs),
(395,0,l),
(470,0,l),
(517,336,ls),
(534,460,o),
(457,548,o),
(342,548,cs),
(264,548,o),
(194,507,o),
(159,438,c),
(176,432,l),
(190,536,l),
(115,536,l),
(40,0,l)
);
}
);
width = 574;
},
{
anchors = (
{
name = bottom;
pos = (248,0);
},
{
name = top;
pos = (322,526);
}
);
layerId = "1C1CFC13-4213-4775-A214-C31251F9A91A";
shapes = (
{
closed = 1;
nodes = (
(96,0,l),
(140,318,ls),
(154,415,o),
(225,495,o),
(327,495,cs),
(412,495,o),
(472,437,o),
(457,332,cs),
(411,0,l),
(456,0,l),
(502,333,ls),
(520,459,o),
(437,538,o),
(329,538,cs),
(247,538,o),
(173,492,o),
(142,422,c),
(154,415,l),
(170,526,l),
(125,526,l),
(51,0,l)
);
}
);
width = 570;
}
);
unicode = 110;
},
{
color = 4;
glyphname = n.ss01;
kernLeft = n;
kernRight = n;
lastChange = "2021-11-11 09:41:25 +0000";
layers = (
{
anchors = (
{
name = bottom;
pos = (268,0);
},
{
name = top;
pos = (344,546);
}
);
layerId = "9D27F576-B54C-4464-AC1E-5B62749637F3";
shapes = (
{
closed = 1;
nodes = (
(168,0,l),
(226,416,l),
(426,416,l),
(368,0,l),
(519,0,l),
(595,546,l),
(93,546,l),
(17,0,l)
);
}
);
width = 612;
},
{
anchors = (
{
name = bottom;
pos = (254,0);
},
{
name = top;
pos = (330,536);
}
);
layerId = "F445EC8D-29E3-46C7-99DD-9E4BBA6B70C5";
shapes = (
{
closed = 1;
nodes = (
(115,0,l),
(180,461,l),
(458,461,l),
(393,0,l),
(469,0,l),
(545,536,l),
(115,536,l),
(39,0,l)
);
}
);
width = 584;
},
{
anchors = (
{
name = bottom;
pos = (254,0);
},
{
name = top;
pos = (328,526);
}
);
layerId = "1C1CFC13-4213-4775-A214-C31251F9A91A";
shapes = (
{
closed = 1;
nodes = (
(97,0,l),
(165,486,l),
(479,486,l),
(411,0,l),
(456,0,l),
(530,526,l),
(125,526,l),
(51,0,l)
);
}
);
width = 581;
}
);
metricLeft = "=n";
metricRight = "=|n";
},
{
color = 4;
glyphname = n.ss03;
kernLeft = n;
kernRight = n;
lastChange = "2021-11-11 09:41:25 +0000";
layers = (
{
anchors = (
{
name = bottom;
pos = (263,0);
},
{
name = top;
pos = (339,546);
}
);
layerId = "9D27F576-B54C-4464-AC1E-5B62749637F3";
shapes = (
{
closed = 1;
nodes = (
(169,0,l),
(227,416,l),
(341,416,ls),
(396,416,o),
(423,384,o),
(415,328,cs),
(369,0,l),
(520,0,l),
(566,328,ls),
(585,460,o),
(501,546,o),
(352,546,cs),
(93,546,l),
(17,0,l)
);
}
);
width = 602;
},
{
anchors = (
{
name = bottom;
pos = (249,0);
},
{
name = top;
pos = (325,536);
}
);
layerId = "F445EC8D-29E3-46C7-99DD-9E4BBA6B70C5";
shapes = (
{
closed = 1;
nodes = (
(116,0,l),
(180,461,l),
(323,461,ls),
(408,461,o),
(451,412,o),
(439,329,cs),
(393,0,l),
(469,0,l),
(514,325,ls),
(532,458,o),
(460,536,o),
(330,536,cs),
(115,536,l),
(40,0,l)
);
}
);
width = 573;
},
{
anchors = (
{
name = bottom;
pos = (249,0);
},
{
name = top;
pos = (323,526);
}
);
layerId = "1C1CFC13-4213-4775-A214-C31251F9A91A";
shapes = (
{
closed = 1;
nodes = (
(97,0,l),
(165,486,l),
(338,486,ls),
(424,486,o),
(471,428,o),
(459,339,cs),
(412,0,l),
(457,0,l),
(504,335,ls),
(520,448,o),
(453,526,o),
(340,526,cs),
(125,526,l),
(52,0,l)
);
}
);
width = 571;
}
);
metricLeft = "=n";
metricRight = "=n";
},
{
color = 4;
glyphname = eng;
kernLeft = n;
kernRight = n;
lastChange = "2021-11-11 09:41:25 +0000";
layers = (
{
layerId = "9D27F576-B54C-4464-AC1E-5B62749637F3";
shapes = (
{
closed = 1;
nodes = (
(403,-222,o),
(490,-152,o),
(508,-24,cs),
(559,337,l),
(576,461,o),
(502,558,o),
(376,558,cs),
(303,558,o),
(242,531,o),
(208,466,c),
(214,438,l),
(228,546,l),
(88,546,l),
(12,0,l),
(162,0,l),
(206,319,ls),
(215,382,o),
(262,423,o),
(321,423,cs),
(380,423,o),
(415,382,o),
(406,319,c),
(359,-16,ls),
(352,-64,o),
(316,-92,o),
(255,-92,cs),
(247,-92,o),
(236,-92,o),
(225,-90,c),
(215,-216,l),
(228,-219,o),
(248,-222,o),
(272,-222,cs)
);
}
);
width = 600;
},
{
layerId = "F445EC8D-29E3-46C7-99DD-9E4BBA6B70C5";
shapes = (
{
closed = 1;
nodes = (
(349,-220,o),
(434,-163,o),
(450,-52,cs),
(505,336,ls),
(523,460,o),
(445,548,o),
(330,548,cs),
(252,548,o),
(182,507,o),
(147,438,c),
(164,432,l),
(178,536,l),
(103,536,l),
(28,0,l),
(103,0,l),
(147,317,ls),
(160,413,o),
(230,473,o),
(314,473,cs),
(394,473,o),
(441,418,o),
(429,331,cs),
(375,-48,ls),
(365,-115,o),
(316,-150,o),
(260,-150,cs),
(249,-150,o),
(234,-149,o),
(220,-147,c),
(214,-215,l),
(224,-218,o),
(245,-220,o),
(256,-220,cs)
);
}
);
width = 600;
},
{
layerId = "1C1CFC13-4213-4775-A214-C31251F9A91A";
shapes = (
{
closed = 1;
nodes = (
(356,-220,o),
(421,-167,o),
(436,-64,cs),
(491,333,ls),
(508,459,o),
(426,538,o),
(318,538,cs),
(236,538,o),
(162,492,o),
(131,422,c),
(143,415,l),
(159,526,l),
(114,526,l),
(40,0,l),
(85,0,l),
(129,318,ls),
(142,415,o),
(214,495,o),
(316,495,cs),
(401,495,o),
(461,437,o),
(446,332,c),
(391,-60,ls),
(381,-135,o),
(333,-177,o),
(262,-177,cs),
(253,-177,o),
(239,-176,o),
(228,-174,c),
(226,-214,l),
(236,-217,o),
(249,-220,o),
(267,-220,cs)
);
}
);
width = 600;
}
);
unicode = 331;
},
{
color = 4;
glyphname = eng.ss01;
kernLeft = n;
kernRight = n;
lastChange = "2021-11-10 07:30:12 +0000";
layers = (
{
layerId = "9D27F576-B54C-4464-AC1E-5B62749637F3";
shapes = (
{
closed = 1;
nodes = (
(410,-222,o),
(498,-152,o),
(516,-24,cs),
(595,546,l),
(93,546,l),
(17,0,l),
(168,0,l),
(226,416,l),
(426,416,l),
(366,-16,ls),
(359,-64,o),
(323,-92,o),
(262,-92,cs),
(254,-92,o),
(243,-92,o),
(232,-90,c),
(222,-216,l),
(235,-219,o),
(255,-222,o),
(279,-222,cs)
);
}
);
width = 602;
},
{
layerId = "F445EC8D-29E3-46C7-99DD-9E4BBA6B70C5";
shapes = (
{
closed = 1;
nodes = (
(360,-220,o),
(445,-163,o),
(461,-52,cs),
(545,536,l),
(115,536,l),
(39,0,l),
(115,0,l),
(180,461,l),
(458,461,l),
(386,-48,ls),
(377,-112,o),
(330,-150,o),
(271,-150,cs),
(260,-150,o),
(245,-149,o),
(231,-147,c),
(225,-215,l),
(235,-218,o),
(256,-220,o),
(267,-220,cs)
);
}
);
width = 573;
},
{
layerId = "1C1CFC13-4213-4775-A214-C31251F9A91A";
shapes = (
{
closed = 1;
nodes = (
(367,-220,o),
(433,-167,o),
(447,-64,cs),
(530,526,l),
(125,526,l),
(51,0,l),
(97,0,l),
(165,486,l),
(479,486,l),
(402,-60,ls),
(391,-135,o),
(344,-177,o),
(273,-177,cs),
(264,-177,o),
(250,-176,o),
(239,-174,c),
(237,-214,l),
(247,-217,o),
(260,-220,o),
(278,-220,cs)
);
}
);
width = 570;
}
);
metricLeft = "=n";
metricRight = "=n";
},
{
color = 4;
glyphname = eng.ss03;
kernLeft = n;
kernRight = n;
lastChange = "2021-11-11 09:41:25 +0000";
layers = (
{
layerId = "9D27F576-B54C-4464-AC1E-5B62749637F3";
shapes = (
{
closed = 1;
nodes = (
(410,-222,o),
(499,-152,o),
(517,-24,cs),
(566,328,ls),
(584,460,o),
(501,546,o),
(352,546,cs),
(93,546,l),
(17,0,l),
(169,0,l),
(227,416,l),
(341,416,ls),
(395,416,o),
(423,384,o),
(415,328,cs),
(366,-16,ls),
(359,-64,o),
(323,-92,o),
(262,-92,cs),
(254,-92,o),
(243,-92,o),
(232,-90,c),
(222,-216,l),
(235,-219,o),
(255,-222,o),
(279,-222,cs)
);
}
);
width = 603;
},
{
layerId = "F445EC8D-29E3-46C7-99DD-9E4BBA6B70C5";
shapes = (
{
closed = 1;
nodes = (
(360,-220,o),
(445,-163,o),
(461,-52,cs),
(514,325,ls),
(533,458,o),
(460,536,o),
(330,536,cs),
(115,536,l),
(40,0,l),
(116,0,l),
(180,461,l),
(323,461,ls),
(408,461,o),
(451,412,o),
(439,329,cs),
(386,-48,ls),
(377,-115,o),
(327,-150,o),
(271,-150,cs),
(260,-150,o),
(245,-149,o),
(231,-147,c),
(225,-215,l),
(235,-218,o),
(256,-220,o),
(267,-220,cs)
);
}
);
width = 572;
},
{
layerId = "1C1CFC13-4213-4775-A214-C31251F9A91A";
shapes = (
{
closed = 1;
nodes = (
(365,-220,o),
(433,-170,o),
(448,-64,cs),
(504,335,ls),
(520,448,o),
(452,526,o),
(340,526,cs),
(125,526,l),
(52,0,l),
(97,0,l),
(165,486,l),
(338,486,ls),
(420,486,o),
(472,432,o),
(459,339,cs),
(403,-60,ls),
(392,-138,o),
(342,-177,o),
(274,-177,cs),
(265,-177,o),
(251,-176,o),
(240,-174,c),
(238,-214,l),
(248,-217,o),
(261,-220,o),
(279,-220,cs)
);
}
);
width = 571;
}
);
metricLeft = "=n";
metricRight = "=n";
},
{
color = 4;
glyphname = o;
kernLeft = o;
kernRight = o;
lastChange = "2021-11-10 07:58:16 +0000";
layers = (
{
anchors = (
{
name = bottom;
pos = (290,0);
},
{
name = center;
pos = (328,273);
},
{
name = ogonek;
pos = (309,0);
},
{
name = top;
pos = (366,546);
},
{
name = topright;
pos = (673,546);
}
);
layerId = "9D27F576-B54C-4464-AC1E-5B62749637F3";
shapes = (
{
closed = 1;
nodes = (
(481,-12,o),
(621,121,o),
(621,289,cs),
(621,446,o),
(500,558,o),
(344,558,cs),
(174,558,o),
(34,426,o),
(34,257,cs),
(34,100,o),
(155,-12,o),
(312,-12,cs)
);
},
{
closed = 1;
nodes = (
(238,123,o),
(190,177,o),
(190,255,cs),
(190,348,o),
(252,423,o),
(342,423,cs),
(417,423,o),
(465,368,o),
(465,291,cs),
(465,197,o),
(403,123,o),
(314,123,cs)
);
}
);
width = 655;
},
{
anchors = (
{
name = bottom;
pos = (291,0);
},
{
name = center;
pos = (329,268);
},
{
name = ogonek;
pos = (312,0);
},
{
name = top;
pos = (367,536);
},
{
name = topright;
pos = (676,536);
}
);
layerId = "F445EC8D-29E3-46C7-99DD-9E4BBA6B70C5";
shapes = (
{
closed = 1;
nodes = (
(473,-12,o),
(603,122,o),
(603,286,cs),
(603,439,o),
(491,548,o),
(344,548,cs),
(183,548,o),
(56,416,o),
(56,253,cs),
(56,97,o),
(171,-12,o),
(314,-12,cs)
);
},
{
closed = 1;
nodes = (
(211,63,o),
(136,143,o),
(136,251,cs),
(136,372,o),
(229,473,o),
(345,473,cs),
(447,473,o),
(523,394,o),
(523,287,cs),
(523,167,o),
(430,63,o),
(313,63,cs)
);
}
);
width = 658;
},
{
anchors = (
{
name = bottom;
pos = (295,0);
},
{
name = center;
pos = (332,263);
},
{
name = ogonek;
pos = (315,0);
},
{
name = top;
pos = (369,526);
},
{
name = topright;
pos = (681,526);
}
);
layerId = "1C1CFC13-4213-4775-A214-C31251F9A91A";
shapes = (
{
closed = 1;
nodes = (
(476,-12,o),
(598,121,o),
(598,283,cs),
(598,430,o),
(495,538,o),
(350,538,cs),
(189,538,o),
(66,406,o),
(66,243,cs),
(66,96,o),
(170,-12,o),
(315,-12,cs)
);
},
{
closed = 1;
nodes = (
(199,31,o),
(114,122,o),
(114,243,cs),
(114,379,o),
(217,495,o),
(351,495,cs),
(467,495,o),
(550,405,o),
(550,285,cs),
(550,148,o),
(448,31,o),
(314,31,cs)
);
}
);
width = 664;
},
{
associatedMasterId = "F445EC8D-29E3-46C7-99DD-9E4BBA6B70C5";
layerId = "AECC9D69-6FA8-4007-86AC-5436E8AE43CC";
name = "Nov 30 20, 14:55";
shapes = (
{
closed = 1;
nodes = (
(443,-12,o),
(573,122,o),
(573,286,cs),
(573,439,o),
(461,548,o),
(314,548,cs),
(153,548,o),
(26,416,o),
(26,253,cs),
(26,97,o),
(141,-12,o),
(284,-12,cs)
);
},
{
closed = 1;
nodes = (
(181,63,o),
(106,143,o),
(106,251,cs),
(106,372,o),
(199,473,o),
(315,473,cs),
(417,473,o),
(493,394,o),
(493,287,cs),
(493,167,o),
(400,63,o),
(283,63,cs)
);
}
);
width = 616;
}
);
unicode = 111;
},
{
color = 4;
glyphname = ohorn;
kernLeft = o;
kernRight = o;
lastChange = "2021-11-11 09:42:27 +0000";
layers = (
{
anchors = (
{
name = bottom;
pos = (295,0);
},
{
name = center;
pos = (332,263);
},
{
name = ogonek;
pos = (364,30);
},
{
name = top;
pos = (369,526);
},
{
name = topright;
pos = (681,526);
}
);
layerId = "1C1CFC13-4213-4775-A214-C31251F9A91A";
shapes = (
{
closed = 1;
nodes = (
(476,-12,o),
(598,121,o),
(598,283,cs),
(598,383,o),
(551,465,o),
(475,507,c),
(471,498,l),
(531,502,o),
(570,543,o),
(570,606,cs),
(570,627,o),
(566,649,o),
(560,674,c),
(515,674,l),
(520,653,o),
(525,631,o),
(525,610,cs),
(525,562,o),
(500,538,o),
(463,538,cs),
(350,538,ls),
(189,538,o),
(66,406,o),
(66,243,cs),
(66,96,o),
(170,-12,o),
(315,-12,cs)
);
},
{
closed = 1;
nodes = (
(199,31,o),
(114,122,o),
(114,243,cs),
(114,379,o),
(217,495,o),
(351,495,cs),
(467,495,o),
(550,405,o),
(550,285,cs),
(550,148,o),
(448,31,o),
(314,31,cs)
);
}
);
width = 664;
},
{
anchors = (
{
name = bottom;
pos = (291,0);
},
{
name = center;
pos = (329,268);
},
{
name = ogonek;
pos = (360,40);
},
{
name = top;
pos = (367,536);
},
{
name = topright;
pos = (676,536);
}
);
layerId = "F445EC8D-29E3-46C7-99DD-9E4BBA6B70C5";
shapes = (
{
closed = 1;
nodes = (
(473,-12,o),
(603,122,o),
(603,286,cs),
(603,378,o),
(563,452,o),
(500,499,c),
(494,486,l),
(565,498,o),
(609,544,o),
(609,614,cs),
(609,636,o),
(603,658,o),
(594,680,c),
(502,680,l),
(510,658,o),
(515,636,o),
(515,615,cs),
(515,561,o),
(483,548,o),
(456,548,cs),
(344,548,ls),
(183,548,o),
(56,416,o),
(56,253,cs),
(56,97,o),
(171,-12,o),
(314,-12,cs)
);
},
{
closed = 1;
nodes = (
(211,63,o),
(136,143,o),
(136,251,cs),
(136,372,o),
(229,473,o),
(345,473,cs),
(449,473,o),
(523,394,o),
(523,287,cs),
(523,167,o),
(430,63,o),
(313,63,cs)
);
}
);
width = 658;
},
{
anchors = (
{
name = bottom;
pos = (290,0);
},
{
name = center;
pos = (328,273);
},
{
name = ogonek;
pos = (302,40);
},
{
name = top;
pos = (366,546);
},
{
name = topright;
pos = (673,546);
}
);
layerId = "9D27F576-B54C-4464-AC1E-5B62749637F3";
shapes = (
{
closed = 1;
nodes = (
(481,-12,o),
(621,121,o),
(621,289,cs),
(621,380,o),
(580,457,o),
(516,504,c),
(503,460,l),
(583,475,o),
(631,534,o),
(631,619,cs),
(631,640,o),
(626,663,o),
(619,683,c),
(493,683,l),
(498,662,o),
(503,640,o),
(503,621,cs),
(503,561,o),
(467,558,o),
(448,558,cs),
(344,558,ls),
(174,558,o),
(34,426,o),
(34,257,cs),
(34,100,o),
(155,-12,o),
(312,-12,cs)
);
},
{
closed = 1;
nodes = (
(238,123,o),
(190,177,o),
(190,255,cs),
(190,348,o),
(252,423,o),
(342,423,cs),
(417,423,o),
(465,368,o),
(465,291,cs),
(465,197,o),
(403,123,o),
(314,123,cs)
);
}
);
width = 655;
}
);
metricLeft = "=o";
metricRight = "=o";
unicode = 417;
},
{
color = 4;
glyphname = oe;
kernLeft = o;
kernRight = e;
lastChange = "2021-11-11 09:41:25 +0000";
layers = (
{
layerId = "9D27F576-B54C-4464-AC1E-5B62749637F3";
shapes = (
{
closed = 1;
nodes = (
(413,-12,o),
(504,36,o),
(561,110,c),
(508,111,l),
(551,36,o),
(633,-12,o),
(740,-12,cs),
(850,-12,o),
(942,39,o),
(981,119,c),
(863,180,l),
(840,143,o),
(798,118,o),
(743,118,cs),
(672,118,o),
(629,159,o),
(624,231,c),
(1007,231,l),
(1014,260,o),
(1018,285,o),
(1018,310,cs),
(1018,451,o),
(928,558,o),
(762,558,cs),
(663,558,o),
(578,510,o),
(526,435,c),
(580,434,l),
(532,511,o),
(445,558,o),
(344,558,cs),
(174,558,o),
(34,426,o),
(34,257,cs),
(34,100,o),
(155,-12,o),
(312,-12,cs)
);
},
{
closed = 1;
nodes = (
(238,123,o),
(190,177,o),
(190,255,cs),
(190,348,o),
(252,423,o),
(342,423,cs),
(417,423,o),
(465,368,o),
(465,291,cs),
(465,197,o),
(403,123,o),
(314,123,cs)
);
},
{
closed = 1;
nodes = (
(653,398,o),
(692,438,o),
(761,438,cs),
(822,438,o),
(861,398,o),
(862,341,c),
(635,341,l)
);
}
);
width = 1048;
},
{
layerId = "F445EC8D-29E3-46C7-99DD-9E4BBA6B70C5";
shapes = (
{
closed = 1;
nodes = (
(423,-12,o),
(519,51,o),
(568,144,c),
(546,146,l),
(582,50,o),
(668,-12,o),
(777,-12,cs),
(885,-12,o),
(975,48,o),
(1013,121,c),
(950,157,l),
(913,101,o),
(857,58,o),
(778,58,cs),
(678,58,o),
(606,128,o),
(606,245,c),
(1028,245,l),
(1031,259,o),
(1036,289,o),
(1036,310,cs),
(1036,432,o),
(952,548,o),
(804,548,cs),
(695,548,o),
(607,484,o),
(561,393,c),
(583,392,l),
(545,487,o),
(454,548,o),
(344,548,cs),
(183,548,o),
(56,416,o),
(56,253,cs),
(56,97,o),
(171,-12,o),
(314,-12,cs)
);
},
{
closed = 1;
nodes = (
(211,63,o),
(136,143,o),
(136,251,cs),
(136,372,o),
(229,473,o),
(345,473,cs),
(447,473,o),
(523,394,o),
(523,287,cs),
(523,167,o),
(430,63,o),
(313,63,cs)
);
},
{
closed = 1;
nodes = (
(636,415,o),
(700,478,o),
(803,478,cs),
(895,478,o),
(965,407,o),
(957,315,c),
(614,315,l)
);
}
);
width = 1089;
},
{
layerId = "1C1CFC13-4213-4775-A214-C31251F9A91A";
shapes = (
{
closed = 1;
nodes = (
(439,-12,o),
(539,67,o),
(579,175,c),
(563,177,l),
(590,66,o),
(683,-12,o),
(804,-12,cs),
(897,-12,o),
(982,35,o),
(1026,112,c),
(989,134,l),
(947,69,o),
(880,30,o),
(803,30,cs),
(685,30,o),
(600,116,o),
(600,249,c),
(1047,249,l),
(1051,266,o),
(1054,287,o),
(1054,306,cs),
(1054,439,o),
(960,538,o),
(829,538,cs),
(711,538,o),
(614,459,o),
(573,351,c),
(590,350,l),
(564,462,o),
(472,538,o),
(350,538,cs),
(189,538,o),
(66,406,o),
(66,243,cs),
(66,96,o),
(170,-12,o),
(315,-12,cs)
);
},
{
closed = 1;
nodes = (
(199,31,o),
(114,122,o),
(114,243,cs),
(114,379,o),
(217,495,o),
(351,495,cs),
(467,495,o),
(550,405,o),
(550,285,cs),
(550,148,o),
(448,31,o),
(314,31,cs)
);
},
{
closed = 1;
nodes = (
(624,403,o),
(715,496,o),
(830,496,cs),
(940,496,o),
(1016,409,o),
(1007,289,c),
(604,289,l)
);
}
);
width = 1116;
}
);
metricLeft = "=o";
metricRight = "=e";
unicode = 339;
},
{
color = 4;
glyphname = p;
kernLeft = n;
kernRight = o;
lastChange = "2021-11-11 09:41:17 +0000";
layers = (
{
anchors = (
{
name = bottom;
pos = (298,0);
},
{
name = top;
pos = (374,546);
}
);
layerId = "9D27F576-B54C-4464-AC1E-5B62749637F3";
shapes = (
{
closed = 1;
nodes = (
(146,-200,l),
(187,100,l),
(154,71,l),
(191,18,o),
(261,-12,o),
(342,-12,cs),
(507,-12,o),
(638,124,o),
(638,290,cs),
(638,442,o),
(526,558,o),
(375,558,cs),
(297,558,o),
(232,529,o),
(192,474,c),
(221,442,l),
(234,546,l),
(93,546,l),
(-11,-200,l)
);
},
{
closed = 1;
nodes = (
(251,123,o),
(202,176,o),
(202,255,cs),
(202,348,o),
(264,423,o),
(354,423,cs),
(431,423,o),
(482,368,o),
(482,290,cs),
(482,196,o),
(418,123,o),
(326,123,cs)
);
}
);
width = 672;
},
{
anchors = (
{
name = bottom;
pos = (295,0);
},
{
name = top;
pos = (371,536);
}
);
layerId = "F445EC8D-29E3-46C7-99DD-9E4BBA6B70C5";
shapes = (
{
closed = 1;
nodes = (
(88,-200,l),
(132,120,l),
(117,110,l),
(152,34,o),
(234,-12,o),
(328,-12,cs),
(490,-12,o),
(611,125,o),
(611,289,cs),
(611,434,o),
(513,548,o),
(363,548,cs),
(272,548,o),
(196,506,o),
(149,438,c),
(174,416,l),
(191,536,l),
(115,536,l),
(12,-200,l)
);
},
{
closed = 1;
nodes = (
(224,63,o),
(150,143,o),
(150,253,cs),
(150,371,o),
(235,473,o),
(354,473,cs),
(459,473,o),
(531,394,o),
(531,287,cs),
(531,166,o),
(443,63,o),
(326,63,cs)
);
}
);
width = 666;
},
{
anchors = (
{
name = bottom;
pos = (301,0);
},
{
name = top;
pos = (375,526);
}
);
layerId = "1C1CFC13-4213-4775-A214-C31251F9A91A";
shapes = (
{
closed = 1;
nodes = (
(70,-200,l),
(118,149,l),
(110,141,l),
(146,46,o),
(231,-12,o),
(333,-12,cs),
(487,-12,o),
(610,120,o),
(610,284,cs),
(610,429,o),
(509,538,o),
(368,538,cs),
(268,538,o),
(179,482,o),
(135,395,c),
(150,377,l),
(171,526,l),
(125,526,l),
(24,-200,l)
);
},
{
closed = 1;
nodes = (
(218,33,o),
(136,120,o),
(136,242,cs),
(136,378,o),
(235,493,o),
(368,493,cs),
(479,493,o),
(562,410,o),
(562,286,cs),
(562,148,o),
(467,33,o),
(332,33,cs)
);
}
);
width = 676;
}
);
unicode = 112;
},
{
color = 4;
glyphname = p.ss02;
kernLeft = n;
kernRight = o;
lastChange = "2021-11-11 09:41:25 +0000";
layers = (
{
layerId = "9D27F576-B54C-4464-AC1E-5B62749637F3";
shapes = (
{
closed = 1;
nodes = (
(189,-200,l),
(231,110,l),
(195,74,l),
(233,18,o),
(303,-12,o),
(385,-12,cs),
(550,-12,o),
(681,124,o),
(681,290,cs),
(681,442,o),
(569,558,o),
(418,558,cs),
(344,558,o),
(283,533,o),
(243,483,c),
(265,446,l),
(277,546,l),
(67,546,l),
(48,416,l),
(118,416,l),
(32,-200,l)
);
},
{
closed = 1;
nodes = (
(294,123,o),
(245,176,o),
(245,255,cs),
(245,348,o),
(307,423,o),
(397,423,cs),
(474,423,o),
(525,368,o),
(525,290,cs),
(525,196,o),
(461,123,o),
(369,123,cs)
);
}
);
width = 715;
},
{
layerId = "F445EC8D-29E3-46C7-99DD-9E4BBA6B70C5";
shapes = (
{
closed = 1;
nodes = (
(124,-200,l),
(169,126,l),
(153,110,l),
(188,34,o),
(270,-12,o),
(364,-12,cs),
(526,-12,o),
(647,125,o),
(647,289,cs),
(647,434,o),
(549,548,o),
(399,548,cs),
(319,548,o),
(250,515,o),
(203,461,c),
(214,442,l),
(227,536,l),
(77,536,l),
(67,466,l),
(141,466,l),
(48,-200,l)
);
},
{
closed = 1;
nodes = (
(260,63,o),
(186,143,o),
(186,253,cs),
(186,371,o),
(271,473,o),
(390,473,cs),
(495,473,o),
(567,394,o),
(567,287,cs),
(567,166,o),
(479,63,o),
(362,63,cs)
);
}
);
width = 702;
},
{
layerId = "1C1CFC13-4213-4775-A214-C31251F9A91A";
shapes = (
{
closed = 1;
nodes = (
(100,-200,l),
(150,164,l),
(136,152,l),
(170,51,o),
(258,-12,o),
(363,-12,cs),
(517,-12,o),
(640,120,o),
(640,284,cs),
(640,429,o),
(539,538,o),
(398,538,cs),
(305,538,o),
(221,490,o),
(175,412,c),
(183,396,l),
(201,526,l),
(81,526,l),
(76,486,l),
(149,486,l),
(54,-200,l)
);
},
{
closed = 1;
nodes = (
(248,33,o),
(166,120,o),
(166,242,cs),
(166,378,o),
(265,493,o),
(398,493,cs),
(509,493,o),
(592,410,o),
(592,286,cs),
(592,148,o),
(497,33,o),
(362,33,cs)
);
}
);
width = 706;
}
);
metricLeft = "=p/2";
metricRight = "=o";
},
{
color = 4;
glyphname = thorn;
kernLeft = h;
kernRight = o;
lastChange = "2021-11-11 09:41:25 +0000";
layers = (
{
layerId = "9D27F576-B54C-4464-AC1E-5B62749637F3";
shapes = (
{
closed = 1;
nodes = (
(146,-200,l),
(187,100,l),
(154,71,l),
(191,18,o),
(261,-12,o),
(342,-12,cs),
(507,-12,o),
(638,124,o),
(638,290,cs),
(638,442,o),
(526,558,o),
(375,558,cs),
(297,558,o),
(232,529,o),
(192,474,c),
(236,442,l),
(277,745,l),
(121,745,l),
(-11,-200,l)
);
},
{
closed = 1;
nodes = (
(251,123,o),
(202,176,o),
(202,255,cs),
(202,348,o),
(264,423,o),
(354,423,cs),
(431,423,o),
(482,368,o),
(482,290,cs),
(482,196,o),
(418,123,o),
(326,123,cs)
);
}
);
width = 672;
},
{
layerId = "F445EC8D-29E3-46C7-99DD-9E4BBA6B70C5";
shapes = (
{
closed = 1;
nodes = (
(88,-200,l),
(132,120,l),
(117,110,l),
(152,34,o),
(234,-12,o),
(328,-12,cs),
(490,-12,o),
(611,125,o),
(611,289,cs),
(611,434,o),
(513,548,o),
(363,548,cs),
(272,548,o),
(196,506,o),
(149,438,c),
(174,416,l),
(220,745,l),
(144,745,l),
(12,-200,l)
);
},
{
closed = 1;
nodes = (
(224,63,o),
(150,143,o),
(150,253,cs),
(150,371,o),
(235,473,o),
(354,473,cs),
(459,473,o),
(531,394,o),
(531,287,cs),
(531,166,o),
(443,63,o),
(326,63,cs)
);
}
);
width = 666;
},
{
layerId = "1C1CFC13-4213-4775-A214-C31251F9A91A";
shapes = (
{
closed = 1;
nodes = (
(70,-200,l),
(118,149,l),
(110,141,l),
(146,46,o),
(231,-12,o),
(333,-12,cs),
(487,-12,o),
(610,120,o),
(610,284,cs),
(610,429,o),
(509,538,o),
(368,538,cs),
(268,538,o),
(179,482,o),
(135,395,c),
(150,377,l),
(201,745,l),
(156,745,l),
(24,-200,l)
);
},
{
closed = 1;
nodes = (
(218,33,o),
(136,120,o),
(136,242,cs),
(136,378,o),
(235,493,o),
(368,493,cs),
(479,493,o),
(562,410,o),
(562,286,cs),
(562,148,o),
(467,33,o),
(332,33,cs)
);
}
);
width = 676;
}
);
metricLeft = "=p";
metricRight = "=p";
unicode = 254;
},
{
color = 4;
glyphname = q;
kernLeft = o;
kernRight = u;
lastChange = "2021-11-11 09:41:25 +0000";
layers = (
{
anchors = (
{
name = bottom;
pos = (298,0);
},
{
name = top;
pos = (374,546);
}
);
layerId = "9D27F576-B54C-4464-AC1E-5B62749637F3";
shapes = (
{
closed = 1;
nodes = (
(550,-200,l),
(652,546,l),
(510,546,l),
(497,442,l),
(521,470,l),
(486,525,o),
(421,558,o),
(339,558,cs),
(175,558,o),
(33,436,o),
(33,247,cs),
(33,94,o),
(138,-12,o),
(295,-12,cs),
(370,-12,o),
(440,17,o),
(480,77,c),
(438,100,l),
(399,-200,l)
);
},
{
closed = 1;
nodes = (
(240,123,o),
(189,177,o),
(189,256,cs),
(189,351,o),
(254,423,o),
(345,423,cs),
(420,423,o),
(469,367,o),
(469,291,cs),
(469,197,o),
(408,123,o),
(317,123,cs)
);
}
);
width = 671;
},
{
anchors = (
{
name = bottom;
pos = (297,0);
},
{
name = top;
pos = (373,536);
}
);
layerId = "F445EC8D-29E3-46C7-99DD-9E4BBA6B70C5";
shapes = (
{
closed = 1;
nodes = (
(527,-200,l),
(629,536,l),
(553,536,l),
(536,416,l),
(546,432,l),
(507,504,o),
(435,548,o),
(337,548,cs),
(175,548,o),
(55,413,o),
(55,247,cs),
(55,97,o),
(157,-12,o),
(302,-12,cs),
(393,-12,o),
(475,31,o),
(517,108,c),
(495,120,l),
(452,-200,l)
);
},
{
closed = 1;
nodes = (
(206,63,o),
(135,141,o),
(135,247,cs),
(135,369,o),
(221,473,o),
(340,473,cs),
(442,473,o),
(517,393,o),
(517,286,cs),
(517,167,o),
(425,63,o),
(307,63,cs)
);
}
);
width = 670;
},
{
anchors = (
{
name = bottom;
pos = (301,0);
},
{
name = top;
pos = (375,526);
}
);
layerId = "1C1CFC13-4213-4775-A214-C31251F9A91A";
shapes = (
{
closed = 1;
nodes = (
(523,-200,l),
(623,526,l),
(578,526,l),
(557,377,l),
(564,387,l),
(532,480,o),
(446,538,o),
(344,538,cs),
(188,538,o),
(66,403,o),
(66,244,cs),
(66,102,o),
(164,-12,o),
(309,-12,cs),
(409,-12,o),
(498,44,o),
(543,131,c),
(525,149,l),
(478,-200,l)
);
},
{
closed = 1;
nodes = (
(193,33,o),
(114,120,o),
(114,241,cs),
(114,378,o),
(211,493,o),
(344,493,cs),
(453,493,o),
(540,412,o),
(540,286,cs),
(540,147,o),
(442,33,o),
(308,33,cs)
);
}
);
width = 676;
}
);
unicode = 113;
},
{
color = 4;
glyphname = q.ss02;
kernLeft = o;
kernRight = u;
lastChange = "2021-11-10 07:58:16 +0000";
layers = (
{
layerId = "9D27F576-B54C-4464-AC1E-5B62749637F3";
shapes = (
{
closed = 1;
nodes = (
(550,-200,l),
(634,416,l),
(701,416,l),
(720,546,l),
(510,546,l),
(494,427,l),
(528,461,l),
(493,521,o),
(425,558,o),
(339,558,cs),
(175,558,o),
(33,436,o),
(33,247,cs),
(33,94,o),
(138,-12,o),
(295,-12,cs),
(360,-12,o),
(421,9,o),
(460,53,c),
(437,92,l),
(399,-200,l)
);
},
{
closed = 1;
nodes = (
(240,123,o),
(189,177,o),
(189,256,cs),
(189,351,o),
(254,423,o),
(345,423,cs),
(420,423,o),
(469,367,o),
(469,291,cs),
(469,197,o),
(408,123,o),
(317,123,cs)
);
}
);
width = 710;
},
{
layerId = "F445EC8D-29E3-46C7-99DD-9E4BBA6B70C5";
shapes = (
{
closed = 1;
nodes = (
(527,-200,l),
(619,466,l),
(693,466,l),
(703,536,l),
(553,536,l),
(535,407,l),
(551,423,l),
(514,500,o),
(439,548,o),
(337,548,cs),
(175,548,o),
(55,413,o),
(55,247,cs),
(55,97,o),
(157,-12,o),
(302,-12,cs),
(383,-12,o),
(457,23,o),
(503,86,c),
(493,103,l),
(452,-200,l)
);
},
{
closed = 1;
nodes = (
(206,63,o),
(135,141,o),
(135,247,cs),
(135,369,o),
(221,473,o),
(340,473,cs),
(442,473,o),
(517,393,o),
(517,286,cs),
(517,167,o),
(425,63,o),
(307,63,cs)
);
}
);
width = 704;
},
{
layerId = "1C1CFC13-4213-4775-A214-C31251F9A91A";
shapes = (
{
closed = 1;
nodes = (
(523,-200,l),
(618,486,l),
(693,486,l),
(698,526,l),
(578,526,l),
(555,362,l),
(568,374,l),
(539,475,o),
(451,538,o),
(344,538,cs),
(188,538,o),
(66,403,o),
(66,244,cs),
(66,102,o),
(164,-12,o),
(309,-12,cs),
(400,-12,o),
(483,35,o),
(531,110,c),
(522,126,l),
(478,-200,l)
);
},
{
closed = 1;
nodes = (
(193,33,o),
(114,120,o),
(114,241,cs),
(114,378,o),
(211,493,o),
(344,493,cs),
(453,493,o),
(540,412,o),
(540,286,cs),
(540,147,o),
(442,33,o),
(308,33,cs)
);
}
);
width = 706;
}
);
metricLeft = "=o";
metricRight = "=|p/2";
},
{
color = 4;
glyphname = r;
kernLeft = n;
kernRight = r;
lastChange = "2021-11-11 09:41:25 +0000";
layers = (
{
anchors = (
{
name = bottom;
pos = (93,0);
},
{
name = top;
pos = (253,546);
}
);
layerId = "9D27F576-B54C-4464-AC1E-5B62749637F3";
shapes = (
{
closed = 1;
nodes = (
(168,0,l),
(207,284,ls),
(220,375,o),
(276,422,o),
(349,422,cs),
(396,422,l),
(414,552,l),
(382,552,ls),
(306,552,o),
(245,526,o),
(208,434,c),
(216,415,l),
(234,546,l),
(93,546,l),
(17,0,l)
);
}
);
width = 386;
},
{
anchors = (
{
name = bottom;
pos = (78,0);
},
{
name = top;
pos = (240,536);
}
);
layerId = "F445EC8D-29E3-46C7-99DD-9E4BBA6B70C5";
shapes = (
{
closed = 1;
nodes = (
(116,0,l),
(160,320,ls),
(174,418,o),
(231,468,o),
(308,468,cs),
(355,468,l),
(366,543,l),
(332,543,ls),
(258,543,o),
(202,512,o),
(169,461,c),
(179,448,l),
(191,536,l),
(115,536,l),
(40,0,l)
);
}
);
width = 338;
},
{
anchors = (
{
name = bottom;
pos = (74,0);
},
{
name = top;
pos = (240,526);
}
);
layerId = "1C1CFC13-4213-4775-A214-C31251F9A91A";
shapes = (
{
closed = 1;
nodes = (
(96,0,l),
(141,320,ls),
(155,417,o),
(220,487,o),
(316,487,cs),
(350,487,l),
(356,532,l),
(323,532,ls),
(244,532,o),
(173,490,o),
(143,420,c),
(155,415,l),
(171,526,l),
(125,526,l),
(51,0,l)
);
}
);
width = 341;
}
);
unicode = 114;
},
{
color = 4;
glyphname = r.ss01;
kernLeft = n;
kernRight = r;
lastChange = "2021-11-11 09:41:25 +0000";
layers = (
{
anchors = (
{
name = bottom;
pos = (93,0);
},
{
name = top;
pos = (253,546);
}
);
layerId = "9D27F576-B54C-4464-AC1E-5B62749637F3";
shapes = (
{
closed = 1;
nodes = (
(168,0,l),
(226,416,l),
(395,416,l),
(413,546,l),
(93,546,l),
(17,0,l)
);
}
);
width = 386;
},
{
anchors = (
{
name = bottom;
pos = (78,0);
},
{
name = top;
pos = (240,536);
}
);
layerId = "F445EC8D-29E3-46C7-99DD-9E4BBA6B70C5";
shapes = (
{
closed = 1;
nodes = (
(115,0,l),
(180,461,l),
(364,461,l),
(375,536,l),
(115,536,l),
(39,0,l)
);
}
);
width = 348;
},
{
anchors = (
{
name = bottom;
pos = (74,0);
},
{
name = top;
pos = (240,526);
}
);
layerId = "1C1CFC13-4213-4775-A214-C31251F9A91A";
shapes = (
{
closed = 1;
nodes = (
(97,0,l),
(164,481,l),
(358,481,l),
(365,526,l),
(125,526,l),
(51,0,l)
);
}
);
width = 350;
}
);
metricLeft = "=n";
metricRight = "=r";
},
{
color = 4;
glyphname = r.ss02;
kernLeft = n;
kernRight = r;
lastChange = "2021-11-10 07:31:15 +0000";
layers = (
{
anchors = (
{
name = bottom;
pos = (165,0);
},
{
name = top;
pos = (271,546);
}
);
layerId = "9D27F576-B54C-4464-AC1E-5B62749637F3";
shapes = (
{
closed = 1;
nodes = (
(340,0,l),
(358,130,l),
(249,130,l),
(270,284,ls),
(282,375,o),
(339,422,o),
(412,422,cs),
(459,422,l),
(477,552,l),
(445,552,ls),
(368,552,o),
(308,526,o),
(270,434,c),
(279,418,l),
(297,546,l),
(66,546,l),
(48,416,l),
(138,416,l),
(98,130,l),
(8,130,l),
(-11,0,l)
);
}
);
width = 449;
},
{
anchors = (
{
name = bottom;
pos = (125,0);
},
{
name = top;
pos = (240,536);
}
);
layerId = "F445EC8D-29E3-46C7-99DD-9E4BBA6B70C5";
shapes = (
{
closed = 1;
nodes = (
(247,0,l),
(257,75,l),
(163,75,l),
(197,320,ls),
(210,418,o),
(268,468,o),
(345,468,cs),
(392,468,l),
(403,543,l),
(369,543,ls),
(294,543,o),
(237,511,o),
(205,459,c),
(215,442,l),
(228,536,l),
(77,536,l),
(66,461,l),
(141,461,l),
(87,75,l),
(12,75,l),
(2,0,l)
);
}
);
width = 375;
},
{
anchors = (
{
name = bottom;
pos = (96,0);
},
{
name = top;
pos = (229,526);
}
);
layerId = "1C1CFC13-4213-4775-A214-C31251F9A91A";
shapes = (
{
closed = 1;
nodes = (
(183,0,l),
(189,45,l),
(124,45,l),
(163,320,ls),
(177,417,o),
(242,487,o),
(338,487,cs),
(372,487,l),
(378,532,l),
(345,532,ls),
(269,532,o),
(200,493,o),
(169,428,c),
(176,414,l),
(192,526,l),
(82,526,l),
(75,481,l),
(140,481,l),
(79,45,l),
(14,45,l),
(8,0,l)
);
}
);
width = 363;
}
);
metricLeft = "=r/2";
metricRight = "=r";
},
{
color = 4;
glyphname = s;
kernLeft = s;
kernRight = s;
lastChange = "2021-11-10 07:31:15 +0000";
layers = (
{
anchors = (
{
name = bottom;
pos = (218,0);
},
{
name = top;
pos = (294,546);
}
);
layerId = "9D27F576-B54C-4464-AC1E-5B62749637F3";
shapes = (
{
closed = 1;
nodes = (
(371,-12,o),
(463,67,o),
(463,169,cs),
(463,240,o),
(418,292,o),
(336,317,cs),
(252,343,ls),
(228,350,o),
(200,361,o),
(200,390,cs),
(200,420,o),
(229,438,o),
(270,438,cs),
(319,438,o),
(366,410,o),
(376,366,c),
(491,412,l),
(466,503,o),
(384,558,o),
(275,558,cs),
(148,558,o),
(55,481,o),
(55,376,cs),
(55,303,o),
(100,248,o),
(180,225,cs),
(271,199,ls),
(290,194,o),
(317,183,o),
(317,154,cs),
(317,126,o),
(292,103,o),
(243,103,cs),
(184,103,o),
(139,137,o),
(117,194,c),
(4,148,l),
(25,52,o),
(120,-12,o),
(239,-12,cs)
);
}
);
width = 512;
},
{
anchors = (
{
name = bottom;
pos = (217,0);
},
{
name = top;
pos = (293,536);
}
);
layerId = "F445EC8D-29E3-46C7-99DD-9E4BBA6B70C5";
shapes = (
{
closed = 1;
nodes = (
(349,-12,o),
(437,60,o),
(437,152,cs),
(437,218,o),
(392,268,o),
(312,292,cs),
(226,318,ls),
(176,333,o),
(156,356,o),
(156,392,cs),
(156,443,o),
(202,480,o),
(267,480,cs),
(329,480,o),
(374,447,o),
(396,386,c),
(462,412,l),
(440,494,o),
(365,548,o),
(271,548,cs),
(164,548,o),
(78,474,o),
(78,382,cs),
(78,316,o),
(121,268,o),
(204,245,cs),
(279,224,ls),
(334,209,o),
(359,185,o),
(359,149,cs),
(359,95,o),
(310,56,o),
(242,56,cs),
(171,56,o),
(114,96,o),
(90,161,c),
(25,135,l),
(50,46,o),
(133,-12,o),
(235,-12,cs)
);
}
);
width = 510;
},
{
anchors = (
{
name = bottom;
pos = (216,0);
},
{
name = top;
pos = (290,526);
}
);
layerId = "1C1CFC13-4213-4775-A214-C31251F9A91A";
shapes = (
{
closed = 1;
nodes = (
(342,-12,o),
(422,53,o),
(422,142,cs),
(422,222,o),
(366,260,o),
(300,278,cs),
(214,302,ls),
(160,317,o),
(136,343,o),
(136,385,cs),
(136,448,o),
(192,495,o),
(266,495,cs),
(329,495,o),
(377,461,o),
(399,402,c),
(444,418,l),
(424,489,o),
(350,538,o),
(264,538,cs),
(164,538,o),
(89,470,o),
(89,381,cs),
(89,319,o),
(126,278,o),
(204,256,cs),
(290,232,ls),
(348,216,o),
(375,187,o),
(375,143,cs),
(375,78,o),
(316,31,o),
(234,31,cs),
(160,31,o),
(104,69,o),
(77,136,c),
(35,120,l),
(62,40,o),
(141,-12,o),
(236,-12,cs)
);
}
);
width = 506;
}
);
unicode = 115;
},
{
color = 4;
glyphname = germandbls;
kernLeft = I;
kernRight = B;
lastChange = "2021-11-11 09:41:25 +0000";
layers = (
{
layerId = "9D27F576-B54C-4464-AC1E-5B62749637F3";
shapes = (
{
closed = 1;
nodes = (
(156,-160,l),
(247,486,ls),
(259,574,o),
(318,627,o),
(393,627,cs),
(444,627,o),
(475,602,o),
(475,559,cs),
(475,515,o),
(444,460,o),
(359,460,cs),
(322,460,l),
(304,330,l),
(368,330,ls),
(428,330,o),
(461,296,o),
(461,243,cs),
(461,199,o),
(440,130,o),
(332,130,cs),
(276,130,l),
(258,0,l),
(331,0,ls),
(523,0,o),
(615,109,o),
(615,248,cs),
(615,342,o),
(573,392,o),
(489,416,c),
(478,373,l),
(595,411,o),
(628,493,o),
(628,564,cs),
(628,688,o),
(529,757,o),
(399,757,cs),
(244,757,o),
(120,660,o),
(97,494,cs),
(5,-160,l)
);
}
);
width = 654;
},
{
layerId = "F445EC8D-29E3-46C7-99DD-9E4BBA6B70C5";
shapes = (
{
closed = 1;
nodes = (
(106,-150,l),
(202,538,ls),
(215,628,o),
(284,687,o),
(369,687,cs),
(439,687,o),
(481,647,o),
(481,585,cs),
(481,537,o),
(445,430,o),
(317,430,cs),
(276,430,l),
(266,360,l),
(317,360,ls),
(411,360,o),
(463,312,o),
(463,234,cs),
(463,172,o),
(426,70,o),
(273,70,cs),
(225,70,l),
(216,0,l),
(267,0,ls),
(491,0,o),
(543,155,o),
(543,236,cs),
(543,319,o),
(500,376,o),
(420,407,c),
(419,386,l),
(521,417,o),
(562,518,o),
(562,592,cs),
(562,692,o),
(488,757,o),
(372,757,cs),
(249,757,o),
(146,676,o),
(127,542,cs),
(30,-150,l)
);
}
);
width = 605;
},
{
layerId = "1C1CFC13-4213-4775-A214-C31251F9A91A";
shapes = (
{
closed = 1;
nodes = (
(87,-140,l),
(183,539,ls),
(198,647,o),
(280,712,o),
(371,712,cs),
(452,712,o),
(501,661,o),
(501,595,cs),
(501,528,o),
(452,417,o),
(319,417,cs),
(266,417,l),
(260,372,l),
(324,372,ls),
(421,372,o),
(482,317,o),
(482,231,cs),
(482,150,o),
(427,45,o),
(271,45,cs),
(214,45,l),
(208,0,l),
(269,0,ls),
(465,0,o),
(533,136,o),
(533,230,cs),
(533,313,o),
(479,385,o),
(386,401,c),
(383,384,l),
(502,422,o),
(551,500,o),
(551,587,cs),
(551,696,o),
(474,757,o),
(373,757,cs),
(258,757,o),
(157,678,o),
(138,543,cs),
(42,-140,l)
);
}
);
width = 606;
}
);
metricLeft = "=I";
metricRight = "=s";
unicode = 223;
},
{
color = 4;
glyphname = t;
kernLeft = t;
kernRight = t;
lastChange = "2021-11-11 12:18:27 +0000";
layers = (
{
anchors = (
{
name = bottom;
pos = (275,0);
},
{
name = center;
pos = (186,273);
},
{
name = top;
pos = (242,670);
},
{
name = topright;
pos = (363,546);
}
);
layerId = "9D27F576-B54C-4464-AC1E-5B62749637F3";
shapes = (
{
closed = 1;
nodes = (
(306,-6,o),
(333,-5,o),
(353,0,c),
(364,127,l),
(347,124,o),
(337,124,o),
(325,124,cs),
(265,124,o),
(244,147,o),
(252,203,cs),
(282,416,l),
(408,416,l),
(426,546,l),
(300,546,l),
(318,670,l),
(166,670,l),
(161,634,ls),
(153,578,o),
(114,546,o),
(58,546,cs),
(56,546,l),
(38,416,l),
(130,416,l),
(100,201,ls),
(82,73,o),
(151,-6,o),
(286,-6,cs)
);
}
);
width = 425;
},
{
anchors = (
{
name = bottom;
pos = (237,0);
},
{
name = center;
pos = (170,268);
},
{
name = top;
pos = (225,660);
},
{
name = topright;
pos = (305,536);
}
);
layerId = "F445EC8D-29E3-46C7-99DD-9E4BBA6B70C5";
shapes = (
{
closed = 1;
nodes = (
(258,-6,o),
(281,-6,o),
(297,-2,c),
(303,67,l),
(292,65,o),
(276,64,o),
(263,64,cs),
(198,64,o),
(184,100,o),
(192,154,cs),
(235,461,l),
(352,461,l),
(363,536,l),
(246,536,l),
(263,660,l),
(187,660,l),
(181,617,ls),
(175,571,o),
(139,536,o),
(94,536,cs),
(71,536,l),
(60,461,l),
(159,461,l),
(117,158,ls),
(103,54,o),
(150,-6,o),
(248,-6,cs)
);
}
);
width = 390;
},
{
anchors = (
{
name = bottom;
pos = (203,0);
},
{
name = center;
pos = (166,263);
},
{
name = top;
pos = (220,650);
},
{
name = topright;
pos = (282,526);
}
);
layerId = "1C1CFC13-4213-4775-A214-C31251F9A91A";
shapes = (
{
closed = 1;
nodes = (
(242,-6,o),
(263,-6,o),
(277,-2,c),
(279,40,l),
(269,38,o),
(251,37,o),
(238,37,cs),
(164,37,o),
(164,87,o),
(169,124,cs),
(220,486,l),
(333,486,l),
(339,526,l),
(225,526,l),
(242,650,l),
(197,650,l),
(187,582,ls),
(182,545,o),
(162,526,o),
(128,526,cs),
(80,526,l),
(74,486,l),
(174,486,l),
(124,128,ls),
(112,40,o),
(152,-6,o),
(236,-6,cs)
);
}
);
width = 380;
}
);
unicode = 116;
},
{
color = 4;
glyphname = t.ss01;
kernLeft = t;
kernRight = t;
lastChange = "2021-11-11 10:10:16 +0000";
layers = (
{
anchors = (
{
name = bottom;
pos = (275,0);
},
{
name = center;
pos = (186,273);
},
{
name = top;
pos = (242,670);
},
{
name = topright;
pos = (364,546);
}
);
layerId = "9D27F576-B54C-4464-AC1E-5B62749637F3";
shapes = (
{
closed = 1;
nodes = (
(350,0,l),
(368,130,l),
(242,130,l),
(282,416,l),
(408,416,l),
(427,546,l),
(300,546,l),
(317,670,l),
(166,670,l),
(149,546,l),
(57,546,l),
(38,416,l),
(130,416,l),
(72,0,l)
);
}
);
width = 423;
},
{
anchors = (
{
name = bottom;
pos = (237,0);
},
{
name = center;
pos = (170,268);
},
{
name = top;
pos = (225,660);
},
{
name = topright;
pos = (305,536);
}
);
layerId = "F445EC8D-29E3-46C7-99DD-9E4BBA6B70C5";
shapes = (
{
closed = 1;
nodes = (
(296,0,l),
(306,75,l),
(181,75,l),
(235,461,l),
(352,461,l),
(363,536,l),
(246,536,l),
(263,660,l),
(187,660,l),
(170,536,l),
(71,536,l),
(60,461,l),
(159,461,l),
(95,0,l)
);
}
);
width = 389;
},
{
anchors = (
{
name = bottom;
pos = (203,0);
},
{
name = center;
pos = (166,263);
},
{
name = top;
pos = (220,650);
},
{
name = topright;
pos = (282,526);
}
);
layerId = "1C1CFC13-4213-4775-A214-C31251F9A91A";
shapes = (
{
closed = 1;
nodes = (
(276,0,l),
(282,40,l),
(157,40,l),
(220,486,l),
(334,486,l),
(339,526,l),
(225,526,l),
(243,650,l),
(198,650,l),
(180,526,l),
(80,526,l),
(75,486,l),
(175,486,l),
(106,0,l)
);
}
);
width = 379;
}
);
metricLeft = "=t";
metricRight = "=t";
},
{
color = 4;
glyphname = u;
kernLeft = u;
kernRight = u;
lastChange = "2021-11-11 12:18:38 +0000";
layers = (
{
anchors = (
{
name = bottom;
pos = (262,0);
},
{
name = ogonek;
pos = (477,0);
},
{
name = top;
pos = (338,546);
},
{
name = topright;
pos = (618,546);
}
);
layerId = "9D27F576-B54C-4464-AC1E-5B62749637F3";
shapes = (
{
closed = 1;
nodes = (
(292,-12,o),
(353,15,o),
(387,80,c),
(381,108,l),
(367,0,l),
(507,0,l),
(583,546,l),
(433,546,l),
(389,227,ls),
(380,164,o),
(333,123,o),
(274,123,cs),
(215,123,o),
(180,164,o),
(189,227,cs),
(233,546,l),
(83,546,l),
(38,229,ls),
(17,83,o),
(83,-12,o),
(220,-12,cs)
);
}
);
width = 600;
},
{
anchors = (
{
name = bottom;
pos = (249,0);
},
{
name = ogonek;
pos = (422,0);
},
{
name = top;
pos = (325,536);
},
{
name = topright;
pos = (592,536);
}
);
layerId = "F445EC8D-29E3-46C7-99DD-9E4BBA6B70C5";
shapes = (
{
closed = 1;
nodes = (
(310,-12,o),
(379,29,o),
(415,98,c),
(398,104,l),
(384,0,l),
(459,0,l),
(534,536,l),
(459,536,l),
(414,219,ls),
(400,123,o),
(332,63,o),
(248,63,cs),
(168,63,o),
(120,118,o),
(132,205,cs),
(179,536,l),
(104,536,l),
(58,210,ls),
(39,76,o),
(117,-12,o),
(232,-12,cs)
);
}
);
width = 574;
},
{
anchors = (
{
name = bottom;
pos = (249,0);
},
{
name = ogonek;
pos = (424,0);
},
{
name = top;
pos = (323,526);
},
{
name = topright;
pos = (588,526);
}
);
layerId = "1C1CFC13-4213-4775-A214-C31251F9A91A";
shapes = (
{
closed = 1;
nodes = (
(325,-12,o),
(397,34,o),
(428,104,c),
(416,111,l),
(401,0,l),
(446,0,l),
(520,526,l),
(475,526,l),
(430,208,ls),
(416,111,o),
(347,31,o),
(243,31,cs),
(160,31,o),
(97,83,o),
(113,194,cs),
(160,526,l),
(115,526,l),
(68,198,ls),
(48,61,o),
(135,-12,o),
(241,-12,cs)
);
}
);
width = 571;
}
);
unicode = 117;
},
{
color = 4;
glyphname = u.ss01;
kernLeft = u;
kernRight = u;
lastChange = "2021-11-11 09:54:56 +0000";
layers = (
{
anchors = (
{
name = bottom;
pos = (256,0);
},
{
name = ogonek;
pos = (276,0);
},
{
name = top;
pos = (338,546);
},
{
name = topright;
pos = (617,546);
}
);
layerId = "9D27F576-B54C-4464-AC1E-5B62749637F3";
shapes = (
{
closed = 1;
nodes = (
(506,0,l),
(582,546,l),
(431,546,l),
(373,130,l),
(175,130,l),
(233,546,l),
(82,546,l),
(6,0,l)
);
}
);
width = 599;
},
{
anchors = (
{
name = bottom;
pos = (243,0);
},
{
name = ogonek;
pos = (263,0);
},
{
name = top;
pos = (325,536);
},
{
name = topright;
pos = (591,536);
}
);
layerId = "F445EC8D-29E3-46C7-99DD-9E4BBA6B70C5";
shapes = (
{
closed = 1;
nodes = (
(458,0,l),
(534,536,l),
(458,536,l),
(393,75,l),
(115,75,l),
(180,536,l),
(104,536,l),
(28,0,l)
);
}
);
width = 573;
},
{
anchors = (
{
name = bottom;
pos = (242,0);
},
{
name = ogonek;
pos = (263,0);
},
{
name = top;
pos = (322,526);
},
{
name = topright;
pos = (587,526);
}
);
layerId = "1C1CFC13-4213-4775-A214-C31251F9A91A";
shapes = (
{
closed = 1;
nodes = (
(445,0,l),
(519,526,l),
(473,526,l),
(405,40,l),
(91,40,l),
(159,526,l),
(114,526,l),
(40,0,l)
);
}
);
width = 570;
}
);
metricLeft = "=u";
metricRight = "=u";
},
{
color = 4;
glyphname = u.ss03;
kernLeft = u;
kernRight = u;
lastChange = "2021-11-11 09:55:11 +0000";
layers = (
{
anchors = (
{
name = bottom;
pos = (262,0);
},
{
name = ogonek;
pos = (282,0);
},
{
name = top;
pos = (338,546);
},
{
name = topright;
pos = (617,546);
}
);
layerId = "9D27F576-B54C-4464-AC1E-5B62749637F3";
shapes = (
{
closed = 1;
nodes = (
(407,-12,o),
(517,76,o),
(536,215,cs),
(582,546,l),
(431,546,l),
(386,222,ls),
(378,162,o),
(332,123,o),
(273,123,cs),
(214,123,o),
(180,162,o),
(188,222,cs),
(233,546,l),
(82,546,l),
(37,223,ls),
(18,84,o),
(108,-12,o),
(262,-12,cs)
);
}
);
width = 599;
},
{
anchors = (
{
name = bottom;
pos = (249,0);
},
{
name = ogonek;
pos = (269,0);
},
{
name = top;
pos = (325,536);
},
{
name = topright;
pos = (591,536);
}
);
layerId = "F445EC8D-29E3-46C7-99DD-9E4BBA6B70C5";
shapes = (
{
closed = 1;
nodes = (
(373,-12,o),
(468,71,o),
(486,198,cs),
(534,536,l),
(458,536,l),
(411,205,ls),
(399,119,o),
(336,62,o),
(252,62,cs),
(168,62,o),
(121,119,o),
(133,205,cs),
(180,536,l),
(104,536,l),
(57,202,ls),
(39,75,o),
(115,-12,o),
(246,-12,cs)
);
}
);
width = 573;
},
{
anchors = (
{
name = bottom;
pos = (248,0);
},
{
name = ogonek;
pos = (268,0);
},
{
name = top;
pos = (322,526);
},
{
name = topright;
pos = (587,526);
}
);
layerId = "1C1CFC13-4213-4775-A214-C31251F9A91A";
shapes = (
{
closed = 1;
nodes = (
(346,-12,o),
(452,57,o),
(470,184,cs),
(519,526,l),
(473,526,l),
(425,186,ls),
(411,85,o),
(327,31,o),
(246,31,cs),
(165,31,o),
(97,85,o),
(111,186,cs),
(159,526,l),
(114,526,l),
(66,188,ls),
(48,61,o),
(137,-12,o),
(244,-12,cs)
);
}
);
width = 570;
}
);
metricLeft = "=u";
metricRight = "=u";
},
{
color = 4;
glyphname = uhorn;
kernLeft = u;
kernRight = u;
lastChange = "2021-11-11 09:42:57 +0000";
layers = (
{
anchors = (
{
name = bottom;
pos = (249,0);
},
{
name = ogonek;
pos = (430,30);
},
{
name = top;
pos = (323,526);
},
{
name = topright;
pos = (588,526);
}
);
layerId = "1C1CFC13-4213-4775-A214-C31251F9A91A";
shapes = (
{
closed = 1;
nodes = (
(312,-12,o),
(375,21,o),
(411,74,c),
(401,0,l),
(446,0,l),
(517,508,l),
(497,485,l),
(565,484,o),
(610,527,o),
(610,594,cs),
(610,615,o),
(606,637,o),
(600,662,c),
(555,662,l),
(560,641,o),
(565,619,o),
(565,598,cs),
(565,550,o),
(540,526,o),
(503,526,cs),
(475,526,l),
(430,208,ls),
(416,111,o),
(347,31,o),
(243,31,cs),
(160,31,o),
(97,83,o),
(113,194,cs),
(160,526,l),
(115,526,l),
(68,198,ls),
(48,61,o),
(135,-12,o),
(241,-12,cs)
);
}
);
width = 576;
},
{
anchors = (
{
name = bottom;
pos = (249,0);
},
{
name = ogonek;
pos = (446,40);
},
{
name = top;
pos = (325,536);
},
{
name = topright;
pos = (592,536);
}
);
layerId = "F445EC8D-29E3-46C7-99DD-9E4BBA6B70C5";
shapes = (
{
closed = 1;
nodes = (
(296,-12,o),
(354,16,o),
(393,64,c),
(384,0,l),
(459,0,l),
(529,499,l),
(509,475,l),
(583,479,o),
(631,527,o),
(631,602,cs),
(631,622,o),
(626,646,o),
(618,669,c),
(545,669,l),
(553,643,o),
(557,623,o),
(557,605,cs),
(557,553,o),
(528,536,o),
(496,536,cs),
(459,536,l),
(414,219,ls),
(400,123,o),
(332,63,o),
(248,63,cs),
(168,63,o),
(120,118,o),
(132,205,cs),
(179,536,l),
(104,536,l),
(58,210,ls),
(39,76,o),
(117,-12,o),
(232,-12,cs)
);
}
);
width = 596;
},
{
anchors = (
{
name = bottom;
pos = (262,0);
},
{
name = ogonek;
pos = (465,40);
},
{
name = top;
pos = (338,546);
},
{
name = topright;
pos = (618,546);
}
);
layerId = "9D27F576-B54C-4464-AC1E-5B62749637F3";
shapes = (
{
closed = 1;
nodes = (
(284,-12,o),
(339,9,o),
(375,60,c),
(367,0,l),
(507,0,l),
(579,513,l),
(513,445,l),
(638,431,o),
(720,496,o),
(720,607,cs),
(720,628,o),
(715,651,o),
(708,671,c),
(582,671,l),
(587,650,o),
(592,628,o),
(592,609,cs),
(592,549,o),
(556,546,o),
(537,546,cs),
(433,546,l),
(389,227,ls),
(380,164,o),
(333,123,o),
(274,123,cs),
(215,123,o),
(180,164,o),
(189,227,cs),
(233,546,l),
(83,546,l),
(38,229,ls),
(17,83,o),
(83,-12,o),
(220,-12,cs)
);
}
);
width = 682;
}
);
metricLeft = "=u";
metricRight = "=u/8";
unicode = 432;
},
{
color = 4;
glyphname = uhorn.ss01;
kernLeft = u;
kernRight = u;
lastChange = "2021-11-11 09:43:11 +0000";
layers = (
{
anchors = (
{
name = bottom;
pos = (262,0);
},
{
name = top;
pos = (338,546);
}
);
layerId = "9D27F576-B54C-4464-AC1E-5B62749637F3";
shapes = (
{
closed = 1;
nodes = (
(506,0,l),
(578,513,l),
(511,445,l),
(638,430,o),
(720,497,o),
(720,607,cs),
(720,628,o),
(715,651,o),
(708,671,c),
(582,671,l),
(587,650,o),
(592,628,o),
(592,609,cs),
(592,549,o),
(556,546,o),
(537,546,cs),
(431,546,l),
(373,130,l),
(175,130,l),
(233,546,l),
(82,546,l),
(6,0,l)
);
}
);
width = 682;
},
{
anchors = (
{
name = bottom;
pos = (249,0);
},
{
name = top;
pos = (325,536);
}
);
layerId = "F445EC8D-29E3-46C7-99DD-9E4BBA6B70C5";
shapes = (
{
closed = 1;
nodes = (
(458,0,l),
(529,499,l),
(509,475,l),
(583,479,o),
(631,527,o),
(631,602,cs),
(631,622,o),
(626,646,o),
(618,669,c),
(545,669,l),
(553,643,o),
(557,623,o),
(557,605,cs),
(557,553,o),
(528,536,o),
(496,536,cs),
(458,536,l),
(393,75,l),
(115,75,l),
(180,536,l),
(104,536,l),
(28,0,l)
);
}
);
width = 596;
},
{
anchors = (
{
name = bottom;
pos = (248,0);
},
{
name = top;
pos = (322,526);
}
);
layerId = "1C1CFC13-4213-4775-A214-C31251F9A91A";
shapes = (
{
closed = 1;
nodes = (
(445,0,l),
(516,508,l),
(496,486,l),
(565,483,o),
(610,527,o),
(610,594,cs),
(610,615,o),
(606,637,o),
(600,662,c),
(555,662,l),
(560,641,o),
(565,619,o),
(565,598,cs),
(565,550,o),
(540,526,o),
(503,526,cs),
(473,526,l),
(405,40,l),
(91,40,l),
(159,526,l),
(114,526,l),
(40,0,l)
);
}
);
width = 576;
}
);
metricLeft = "=u";
metricRight = "=u/8";
},
{
color = 4;
glyphname = uhorn.ss03;
kernLeft = u;
kernRight = u;
lastChange = "2021-11-11 09:43:26 +0000";
layers = (
{
anchors = (
{
name = bottom;
pos = (262,0);
},
{
name = ogonek;
pos = (311,40);
},
{
name = top;
pos = (338,546);
},
{
name = topright;
pos = (617,546);
}
);
layerId = "9D27F576-B54C-4464-AC1E-5B62749637F3";
shapes = (
{
closed = 1;
nodes = (
(407,-12,o),
(517,76,o),
(536,215,cs),
(578,513,l),
(511,445,l),
(638,430,o),
(720,497,o),
(720,607,cs),
(720,628,o),
(715,651,o),
(708,671,c),
(582,671,l),
(587,650,o),
(592,628,o),
(592,609,cs),
(592,549,o),
(556,546,o),
(537,546,cs),
(431,546,l),
(386,222,ls),
(378,162,o),
(332,123,o),
(273,123,cs),
(214,123,o),
(180,162,o),
(188,222,cs),
(233,546,l),
(82,546,l),
(37,223,ls),
(18,84,o),
(108,-12,o),
(262,-12,cs)
);
}
);
width = 682;
},
{
anchors = (
{
name = bottom;
pos = (249,0);
},
{
name = ogonek;
pos = (299,40);
},
{
name = top;
pos = (325,536);
},
{
name = topright;
pos = (591,536);
}
);
layerId = "F445EC8D-29E3-46C7-99DD-9E4BBA6B70C5";
shapes = (
{
closed = 1;
nodes = (
(373,-12,o),
(468,71,o),
(486,198,cs),
(529,499,l),
(509,475,l),
(583,479,o),
(631,527,o),
(631,602,cs),
(631,622,o),
(626,646,o),
(618,669,c),
(545,669,l),
(553,643,o),
(557,623,o),
(557,605,cs),
(557,553,o),
(528,536,o),
(496,536,cs),
(458,536,l),
(411,205,ls),
(399,119,o),
(336,62,o),
(252,62,cs),
(168,62,o),
(121,119,o),
(133,205,cs),
(180,536,l),
(104,536,l),
(57,202,ls),
(39,75,o),
(115,-12,o),
(246,-12,cs)
);
}
);
width = 596;
},
{
anchors = (
{
name = bottom;
pos = (248,0);
},
{
name = ogonek;
pos = (296,31);
},
{
name = top;
pos = (322,526);
},
{
name = topright;
pos = (587,526);
}
);
layerId = "1C1CFC13-4213-4775-A214-C31251F9A91A";
shapes = (
{
closed = 1;
nodes = (
(346,-12,o),
(452,57,o),
(470,184,cs),
(516,508,l),
(496,486,l),
(565,483,o),
(610,527,o),
(610,594,cs),
(610,615,o),
(606,637,o),
(600,662,c),
(555,662,l),
(560,641,o),
(565,619,o),
(565,598,cs),
(565,550,o),
(540,526,o),
(503,526,cs),
(473,526,l),
(425,186,ls),
(411,85,o),
(327,31,o),
(246,31,cs),
(165,31,o),
(97,85,o),
(111,186,cs),
(159,526,l),
(114,526,l),
(66,188,ls),
(48,61,o),
(137,-12,o),
(244,-12,cs)
);
}
);
width = 576;
}
);
metricLeft = "=u";
metricRight = "=u/8";
},
{
color = 4;
glyphname = v;
kernLeft = v;
kernRight = v;
lastChange = "2021-11-11 09:41:25 +0000";
layers = (
{
anchors = (
{
name = bottom;
pos = (253,0);
},
{
name = top;
pos = (329,546);
}
);
layerId = "9D27F576-B54C-4464-AC1E-5B62749637F3";
shapes = (
{
closed = 1;
nodes = (
(317,0,l),
(609,546,l),
(438,546,l),
(231,133,l),
(296,133,l),
(205,546,l),
(49,546,l),
(187,0,l)
);
}
);
width = 582;
},
{
anchors = (
{
name = bottom;
pos = (221,0);
},
{
name = top;
pos = (297,536);
}
);
layerId = "F445EC8D-29E3-46C7-99DD-9E4BBA6B70C5";
shapes = (
{
closed = 1;
nodes = (
(257,0,l),
(544,536,l),
(456,536,l),
(213,66,l),
(239,66,l),
(129,536,l),
(49,536,l),
(182,0,l)
);
}
);
width = 517;
},
{
anchors = (
{
name = bottom;
pos = (223,0);
},
{
name = top;
pos = (297,526);
}
);
layerId = "1C1CFC13-4213-4775-A214-C31251F9A91A";
shapes = (
{
closed = 1;
nodes = (
(245,0,l),
(534,526,l),
(479,526,l),
(215,39,l),
(235,39,l),
(108,526,l),
(59,526,l),
(197,0,l)
);
}
);
width = 519;
}
);
unicode = 118;
},
{
color = 4;
glyphname = w;
kernLeft = w;
kernRight = w;
lastChange = "2021-11-11 09:41:25 +0000";
layers = (
{
anchors = (
{
name = bottom;
pos = (418,0);
},
{
name = top;
pos = (494,546);
}
);
layerId = "9D27F576-B54C-4464-AC1E-5B62749637F3";
shapes = (
{
closed = 1;
nodes = (
(291,0,l),
(507,422,l),
(454,422,l),
(544,0,l),
(674,0,l),
(939,546,l),
(781,546,l),
(594,152,l),
(646,153,l),
(557,546,l),
(427,546,l),
(221,153,l),
(276,152,l),
(199,546,l),
(49,546,l),
(161,0,l)
);
}
);
width = 912;
},
{
anchors = (
{
name = bottom;
pos = (361,0);
},
{
name = top;
pos = (437,536);
}
);
layerId = "F445EC8D-29E3-46C7-99DD-9E4BBA6B70C5";
shapes = (
{
closed = 1;
nodes = (
(232,0,l),
(439,459,l),
(415,459,l),
(489,0,l),
(564,0,l),
(824,536,l),
(737,536,l),
(519,67,l),
(550,67,l),
(472,536,l),
(397,536,l),
(186,67,l),
(216,67,l),
(129,536,l),
(49,536,l),
(157,0,l)
);
}
);
width = 797;
},
{
anchors = (
{
name = bottom;
pos = (348,0);
},
{
name = top;
pos = (422,526);
}
);
layerId = "1C1CFC13-4213-4775-A214-C31251F9A91A";
shapes = (
{
closed = 1;
nodes = (
(213,0,l),
(420,469,l),
(408,469,l),
(481,0,l),
(529,0,l),
(784,526,l),
(730,526,l),
(494,33,l),
(520,33,l),
(444,526,l),
(396,526,l),
(181,33,l),
(204,33,l),
(108,526,l),
(59,526,l),
(165,0,l)
);
}
);
width = 769;
}
);
unicode = 119;
},
{
color = 4;
glyphname = x;
lastChange = "2021-11-10 07:58:16 +0000";
layers = (
{
anchors = (
{
name = bottom;
pos = (253,0);
},
{
name = top;
pos = (329,546);
}
);
layerId = "9D27F576-B54C-4464-AC1E-5B62749637F3";
shapes = (
{
closed = 1;
nodes = (
(151,0,l),
(321,212,l),
(253,212,l),
(370,0,l),
(530,0,l),
(378,274,l),
(608,546,l),
(429,546,l),
(256,334,l),
(332,334,l),
(217,546,l),
(54,546,l),
(205,278,l),
(-27,0,l)
);
}
);
width = 581;
},
{
anchors = (
{
name = bottom;
pos = (207,0);
},
{
name = top;
pos = (283,536);
}
);
layerId = "F445EC8D-29E3-46C7-99DD-9E4BBA6B70C5";
shapes = (
{
closed = 1;
nodes = (
(69,0,l),
(261,232,l),
(224,236,l),
(352,0,l),
(439,0,l),
(292,265,l),
(517,536,l),
(418,536,l),
(228,305,l),
(271,301,l),
(142,536,l),
(56,536,l),
(201,272,l),
(-27,0,l)
);
}
);
width = 490;
},
{
anchors = (
{
name = bottom;
pos = (202,0);
},
{
name = top;
pos = (276,526);
}
);
layerId = "1C1CFC13-4213-4775-A214-C31251F9A91A";
shapes = (
{
closed = 1;
nodes = (
(48,0,l),
(261,247,l),
(217,252,l),
(355,0,l),
(415,0,l),
(270,256,l),
(492,526,l),
(430,526,l),
(221,274,l),
(263,271,l),
(119,526,l),
(62,526,l),
(210,263,l),
(-15,0,l)
);
}
);
width = 477;
}
);
unicode = 120;
},
{
color = 4;
glyphname = y;
kernLeft = y;
kernRight = v;
lastChange = "2021-11-11 09:41:25 +0000";
layers = (
{
anchors = (
{
name = bottom;
pos = (528,100);
},
{
name = top;
pos = (339,546);
}
);
layerId = "9D27F576-B54C-4464-AC1E-5B62749637F3";
shapes = (
{
closed = 1;
nodes = (
(172,-222,o),
(249,-169,o),
(310,-55,cs),
(629,546,l),
(460,546,l),
(240,113,l),
(301,113,l),
(203,546,l),
(49,546,l),
(203,-63,l),
(217,62,l),
(167,-19,ls),
(145,-54,o),
(117,-92,o),
(61,-92,cs),
(43,-92,o),
(17,-89,o),
(-2,-83,c),
(-11,-203,l),
(10,-215,o),
(40,-222,o),
(76,-222,cs)
);
}
);
width = 602;
},
{
anchors = (
{
name = bottom;
pos = (462,100);
},
{
name = top;
pos = (306,536);
}
);
layerId = "F445EC8D-29E3-46C7-99DD-9E4BBA6B70C5";
shapes = (
{
closed = 1;
nodes = (
(127,-220,o),
(190,-149,o),
(233,-70,cs),
(563,537,l),
(478,537,l),
(222,67,l),
(247,67,l),
(128,537,l),
(49,537,l),
(196,-32,l),
(206,34,l),
(160,-44,ls),
(115,-120,o),
(84,-145,o),
(17,-145,cs),
(-3,-145,o),
(-24,-141,o),
(-37,-139,c),
(-43,-208,l),
(-23,-216,o),
(0,-220,o),
(23,-220,cs)
);
}
);
width = 536;
},
{
anchors = (
{
name = bottom;
pos = (458,100);
},
{
name = top;
pos = (303,526);
}
);
layerId = "1C1CFC13-4213-4775-A214-C31251F9A91A";
shapes = (
{
closed = 1;
nodes = (
(119,-220,o),
(179,-137,o),
(209,-83,cs),
(546,526,l),
(492,526,l),
(219,30,l),
(247,30,l),
(116,526,l),
(67,526,l),
(213,-24,l),
(215,22,l),
(159,-74,ls),
(121,-139,o),
(81,-176,o),
(14,-177,cs),
(1,-177,o),
(-19,-176,o),
(-39,-171,c),
(-41,-211,l),
(-22,-218,o),
(1,-220,o),
(19,-220,cs)
);
}
);
width = 531;
}
);
unicode = 121;
},
{
color = 4;
glyphname = y.ss01;
kernLeft = y;
kernRight = v;
lastChange = "2021-11-11 09:41:25 +0000";
layers = (
{
anchors = (
{
name = bottom;
pos = (528,100);
},
{
name = top;
pos = (339,546);
}
);
layerId = "9D27F576-B54C-4464-AC1E-5B62749637F3";
shapes = (
{
closed = 1;
nodes = (
(239,-200,l),
(634,546,l),
(465,546,l),
(256,136,l),
(302,130,l),
(208,546,l),
(54,546,l),
(207,-55,l),
(218,67,l),
(146,-70,l),
(-37,-70,l),
(-55,-200,l)
);
}
);
width = 607;
},
{
anchors = (
{
name = bottom;
pos = (462,100);
},
{
name = top;
pos = (306,536);
}
);
layerId = "F445EC8D-29E3-46C7-99DD-9E4BBA6B70C5";
shapes = (
{
closed = 1;
nodes = (
(162,-200,l),
(563,537,l),
(478,537,l),
(224,67,l),
(247,67,l),
(128,537,l),
(49,537,l),
(196,-32,l),
(204,34,l),
(114,-130,l),
(-24,-130,l),
(-34,-200,l)
);
}
);
width = 536;
},
{
anchors = (
{
name = bottom;
pos = (458,100);
},
{
name = top;
pos = (303,526);
}
);
layerId = "1C1CFC13-4213-4775-A214-C31251F9A91A";
shapes = (
{
closed = 1;
nodes = (
(136,-200,l),
(538,526,l),
(484,526,l),
(211,30,l),
(239,30,l),
(108,526,l),
(59,526,l),
(205,-24,l),
(208,22,l),
(102,-160,l),
(-24,-160,l),
(-30,-200,l)
);
}
);
width = 523;
}
);
metricLeft = "=y";
metricRight = "=y";
},
{
color = 4;
glyphname = y.ss02;
kernLeft = y;
kernRight = v;
lastChange = "2021-11-11 09:41:25 +0000";
layers = (
{
anchors = (
{
name = bottom;
pos = (528,100);
},
{
name = top;
pos = (339,546);
}
);
layerId = "9D27F576-B54C-4464-AC1E-5B62749637F3";
shapes = (
{
closed = 1;
nodes = (
(240,-200,l),
(629,546,l),
(460,546,l),
(240,113,l),
(301,113,l),
(203,546,l),
(49,546,l),
(203,-63,l),
(217,62,l),
(75,-200,l)
);
}
);
width = 602;
},
{
anchors = (
{
name = bottom;
pos = (462,100);
},
{
name = top;
pos = (306,536);
}
);
layerId = "F445EC8D-29E3-46C7-99DD-9E4BBA6B70C5";
shapes = (
{
closed = 1;
nodes = (
(162,-200,l),
(563,537,l),
(478,537,l),
(224,67,l),
(247,67,l),
(128,537,l),
(49,537,l),
(196,-32,l),
(204,34,l),
(76,-200,l)
);
}
);
width = 536;
},
{
anchors = (
{
name = bottom;
pos = (458,100);
},
{
name = top;
pos = (303,526);
}
);
layerId = "1C1CFC13-4213-4775-A214-C31251F9A91A";
shapes = (
{
closed = 1;
nodes = (
(132,-200,l),
(538,526,l),
(484,526,l),
(211,30,l),
(239,30,l),
(108,526,l),
(59,526,l),
(205,-24,l),
(207,22,l),
(78,-200,l)
);
}
);
width = 523;
}
);
metricLeft = "=y";
metricRight = "=y";
},
{
color = 4;
glyphname = y.ss03;
kernLeft = u;
kernRight = u;
lastChange = "2021-11-11 09:41:25 +0000";
layers = (
{
anchors = (
{
name = bottom;
pos = (638,100);
},
{
name = top;
pos = (349,546);
}
);
guides = (
{
pos = (327,27);
}
);
layerId = "9D27F576-B54C-4464-AC1E-5B62749637F3";
shapes = (
{
closed = 1;
nodes = (
(389,-220,o),
(511,-128,o),
(531,17,cs),
(605,546,l),
(453,546,l),
(414,262,ls),
(405,199,o),
(359,162,o),
(302,162,cs),
(240,162,o),
(208,199,o),
(217,262,cs),
(257,546,l),
(105,546,l),
(65,258,ls),
(46,122,o),
(110,27,o),
(247,27,cs),
(319,27,o),
(381,54,o),
(415,119,c),
(398,147,l),
(381,25,ls),
(371,-46,o),
(318,-85,o),
(247,-85,cs),
(186,-85,o),
(148,-58,o),
(142,-7,c),
(-1,-48,l),
(18,-150,o),
(110,-220,o),
(243,-220,cs)
);
}
);
width = 622;
},
{
anchors = (
{
name = bottom;
pos = (563,100);
},
{
name = top;
pos = (327,536);
}
);
layerId = "F445EC8D-29E3-46C7-99DD-9E4BBA6B70C5";
shapes = (
{
closed = 1;
nodes = (
(343,-220,o),
(442,-145,o),
(461,-11,cs),
(538,536,l),
(462,536,l),
(420,239,ls),
(406,143,o),
(338,83,o),
(254,83,cs),
(174,83,o),
(128,138,o),
(140,225,cs),
(184,536,l),
(108,536,l),
(64,220,ls),
(47,96,o),
(124,8,o),
(239,8,cs),
(317,8,o),
(386,49,o),
(422,118,c),
(404,124,l),
(386,-7,ls),
(372,-106,o),
(298,-145,o),
(221,-145,cs),
(143,-145,o),
(99,-104,o),
(86,-59,c),
(16,-86,l),
(38,-164,o),
(112,-220,o),
(219,-220,cs)
);
}
);
width = 577;
},
{
anchors = (
{
name = bottom;
pos = (564,100);
},
{
name = top;
pos = (326,526);
}
);
layerId = "1C1CFC13-4213-4775-A214-C31251F9A91A";
shapes = (
{
closed = 1;
nodes = (
(330,-220,o),
(430,-152,o),
(448,-24,cs),
(526,526,l),
(480,526,l),
(438,228,ls),
(424,131,o),
(357,51,o),
(252,51,cs),
(169,51,o),
(107,103,o),
(121,204,cs),
(167,526,l),
(121,526,l),
(76,208,ls),
(58,81,o),
(144,8,o),
(250,8,cs),
(334,8,o),
(406,54,o),
(437,124,c),
(424,131,l),
(403,-20,ls),
(386,-140,o),
(297,-178,o),
(221,-178,cs),
(146,-178,o),
(92,-141,o),
(66,-75,c),
(27,-93,l),
(52,-164,o),
(117,-220,o),
(219,-220,cs)
);
}
);
width = 577;
}
);
metricLeft = "=u";
metricRight = "=u";
},
{
color = 4;
glyphname = z;
kernLeft = z;
kernRight = z;
lastChange = "2021-11-11 09:41:25 +0000";
layers = (
{
anchors = (
{
name = bottom;
pos = (214,0);
},
{
name = center;
pos = (252,273);
},
{
name = top;
pos = (290,546);
}
);
layerId = "9D27F576-B54C-4464-AC1E-5B62749637F3";
shapes = (
{
closed = 1;
nodes = (
(444,0,l),
(462,130,l),
(134,130,l),
(159,83,l),
(504,426,l),
(519,546,l),
(63,546,l),
(45,416,l),
(367,416,l),
(337,463,l),
(-11,120,l),
(-26,0,l)
);
}
);
width = 493;
},
{
anchors = (
{
name = bottom;
pos = (182,0);
},
{
name = center;
pos = (220,268);
},
{
name = top;
pos = (258,536);
}
);
layerId = "F445EC8D-29E3-46C7-99DD-9E4BBA6B70C5";
shapes = (
{
closed = 1;
nodes = (
(390,0,l),
(400,75,l),
(63,75,l),
(75,48,l),
(455,471,l),
(463,536,l),
(77,536,l),
(66,461,l),
(386,461,l),
(374,488,l),
(-7,65,l),
(-15,0,l)
);
}
);
width = 450;
},
{
anchors = (
{
name = bottom;
pos = (181,0);
},
{
name = center;
pos = (218,263);
},
{
name = top;
pos = (255,526);
}
);
layerId = "1C1CFC13-4213-4775-A214-C31251F9A91A";
shapes = (
{
closed = 1;
nodes = (
(377,0,l),
(382,40,l),
(27,40,l),
(39,10,l),
(444,496,l),
(448,526,l),
(90,526,l),
(84,486,l),
(416,486,l),
(403,516,l),
(0,30,l),
(-3,0,l)
);
}
);
width = 436;
}
);
unicode = 122;
},
{
color = 4;
export = 0;
glyphname = f.liga;
kernLeft = f;
kernRight = f;
lastChange = "2021-11-11 09:41:25 +0000";
layers = (
{
layerId = "9D27F576-B54C-4464-AC1E-5B62749637F3";
shapes = (
{
closed = 1;
nodes = (
(233,0,l),
(291,416,l),
(509,416,l),
(527,546,l),
(309,546,l),
(310,553,ls),
(318,607,o),
(353,627,o),
(413,627,cs),
(420,627,o),
(429,627,o),
(442,625,c),
(452,751,l),
(439,754,o),
(417,757,o),
(396,757,cs),
(264,757,o),
(182,686,o),
(161,558,cs),
(159,546,l),
(67,546,l),
(49,416,l),
(140,416,l),
(82,0,l)
);
}
);
width = 411;
},
{
layerId = "F445EC8D-29E3-46C7-99DD-9E4BBA6B70C5";
shapes = (
{
closed = 1;
nodes = (
(170,0,l),
(234,461,l),
(535,461,l),
(546,536,l),
(245,536,l),
(250,572,ls),
(262,658,o),
(316,687,o),
(382,687,cs),
(387,687,o),
(407,686,o),
(416,684,c),
(421,752,l),
(408,755,o),
(388,757,o),
(370,757,cs),
(283,757,o),
(193,698,o),
(175,576,cs),
(169,536,l),
(63,536,l),
(52,461,l),
(158,461,l),
(94,0,l)
);
}
);
width = 393;
},
{
layerId = "1C1CFC13-4213-4775-A214-C31251F9A91A";
shapes = (
{
closed = 1;
nodes = (
(151,0,l),
(219,486,l),
(532,486,l),
(538,526,l),
(224,526,l),
(232,580,ls),
(245,665,o),
(298,714,o),
(375,714,cs),
(384,714,o),
(398,713,o),
(409,711,c),
(410,753,l),
(401,756,o),
(388,757,o),
(370,757,cs),
(280,757,o),
(203,695,o),
(187,583,cs),
(179,526,l),
(71,526,l),
(65,486,l),
(174,486,l),
(106,0,l)
);
}
);
width = 407;
}
);
},
